<svg width="38" height="37" viewBox="0 0 38 37" fill="none" xmlns="http://www.w3.org/2000/svg">
<path d="M36.875 18.75C36.875 28.7602 28.7602 36.875 18.75 36.875C8.73984 36.875 0.625 28.7602 0.625 18.75C0.625 8.73984 8.73984 0.625 18.75 0.625C29.375 0.625 22.0991 8.84086 25.3791 12.1209C28.6591 15.4009 36.875 8.125 36.875 18.75Z" fill="#E3E4E2"/>
<path d="M18.75 9.375C20.4759 9.375 21.875 7.97589 21.875 6.25C21.875 4.52411 20.4759 3.125 18.75 3.125C17.0241 3.125 15.625 4.52411 15.625 6.25C15.625 7.97589 17.0241 9.375 18.75 9.375Z" fill="#85BB40"/>
<path d="M18.75 21.875C20.4759 21.875 21.875 20.4759 21.875 18.75C21.875 17.0241 20.4759 15.625 18.75 15.625C17.0241 15.625 15.625 17.0241 15.625 18.75C15.625 20.4759 17.0241 21.875 18.75 21.875Z" fill="#EB5849"/>
<path d="M18.75 34.375C20.4759 34.375 21.875 32.9759 21.875 31.25C21.875 29.5241 20.4759 28.125 18.75 28.125C17.0241 28.125 15.625 29.5241 15.625 31.25C15.625 32.9759 17.0241 34.375 18.75 34.375Z" fill="#F8BC1E"/>
<path d="M9.91113 13.0361C11.637 13.0361 13.0361 11.637 13.0361 9.91113C13.0361 8.18524 11.637 6.78613 9.91113 6.78613C8.18524 6.78613 6.78613 8.18524 6.78613 9.91113C6.78613 11.637 8.18524 13.0361 9.91113 13.0361Z" fill="#2C9547"/>
<path d="M6.25 21.875C7.97589 21.875 9.375 20.4759 9.375 18.75C9.375 17.0241 7.97589 15.625 6.25 15.625C4.52411 15.625 3.125 17.0241 3.125 18.75C3.125 20.4759 4.52411 21.875 6.25 21.875Z" fill="#0093B9"/>
<path d="M31.25 21.875C32.9759 21.875 34.375 20.4759 34.375 18.75C34.375 17.0241 32.9759 15.625 31.25 15.625C29.5241 15.625 28.125 17.0241 28.125 18.75C28.125 20.4759 29.5241 21.875 31.25 21.875Z" fill="#D83D69"/>
<path d="M27.5889 30.7139C29.3148 30.7139 30.7139 29.3148 30.7139 27.5889C30.7139 25.863 29.3148 24.4639 27.5889 24.4639C25.863 24.4639 24.4639 25.863 24.4639 27.5889C24.4639 29.3148 25.863 30.7139 27.5889 30.7139Z" fill="#F7CE2C"/>
<path d="M9.91113 30.7139C11.637 30.7139 13.0361 29.3148 13.0361 27.5889C13.0361 25.863 11.637 24.4639 9.91113 24.4639C8.18524 24.4639 6.78613 25.863 6.78613 27.5889C6.78613 29.3148 8.18524 30.7139 9.91113 30.7139Z" fill="#57C3C1"/>
<path d="M36.8866 34.2781C36.8645 34.6113 36.7128 34.9225 36.464 35.1451C36.2152 35.3678 35.889 35.484 35.5555 35.469L6.82812 34.1738L7.075 30.4316L35.7234 32.9223C36.0562 32.9512 36.3643 33.1093 36.5817 33.3628C36.7992 33.6163 36.9086 33.9449 36.8866 34.2781Z" fill="#4E4E4F"/>
<path d="M12.0573 30.8648L11.8241 34.3987L6.82812 34.1735L7.075 30.4316L12.0573 30.8648Z" fill="#C9C9C8"/>
<path d="M7.07477 30.4322C6.88359 30.06 6.60716 29.7383 6.26801 29.4932C5.92886 29.2482 5.53661 29.0867 5.12322 29.0221C4.70983 28.9575 4.28702 28.9914 3.88925 29.1213C3.49149 29.2511 3.13004 29.4731 2.83438 29.7691L0.714844 31.8916L2.53719 34.2739C2.79137 34.6063 3.1205 34.8738 3.49775 35.0548C3.875 35.2358 4.28968 35.325 4.70797 35.3153C5.12627 35.3055 5.53634 35.1971 5.90475 34.9987C6.27316 34.8003 6.58947 34.5177 6.82789 34.1739L7.07477 30.4322Z" fill="#A17835"/>
<path d="M35.7773 32.3L7.44975 29.8371C7.18154 29.4311 6.82633 29.0898 6.40988 28.838C5.99343 28.5863 5.52617 28.4303 5.04198 28.3815C4.55779 28.3327 4.06881 28.3922 3.61048 28.5558C3.15215 28.7194 2.73597 28.9829 2.3921 29.3272L0.272564 31.4496C0.165601 31.5568 0.101155 31.6991 0.091198 31.8501C0.0812406 32.0012 0.126448 32.1507 0.218424 32.271L2.04069 34.6538C2.3447 35.0557 2.73811 35.3812 3.18976 35.6047C3.64141 35.8281 4.13889 35.9434 4.6428 35.9412C4.66926 35.9412 4.69582 35.9409 4.72249 35.9403C5.17921 35.932 5.62902 35.8272 6.04243 35.6329C6.45583 35.4386 6.8235 35.1591 7.12131 34.8127L35.527 36.0935C35.5555 36.0948 35.5838 36.0954 35.612 36.0954C36.0939 36.0929 36.5572 35.9086 36.909 35.5792C37.2609 35.2499 37.4755 34.7999 37.5098 34.3192C37.5399 33.8235 37.3759 33.3356 37.0525 32.9587C36.7292 32.5818 36.2718 32.3455 35.7773 32.3ZM11.3931 31.4346L11.2405 33.7471L9.99147 33.6909L10.1477 31.3264L11.3931 31.4346ZM4.69335 34.6903C4.37326 34.6994 4.05562 34.632 3.76691 34.4935C3.47819 34.355 3.22676 34.1495 3.03358 33.8941L1.54358 31.946L3.27655 30.2105C3.49293 29.9938 3.75555 29.8288 4.04474 29.728C4.33394 29.6272 4.64219 29.5931 4.94642 29.6284C5.25064 29.6636 5.54294 29.7673 5.80141 29.9316C6.05988 30.0959 6.27782 30.3165 6.43889 30.577L6.21647 33.9464C6.03227 34.174 5.80046 34.3586 5.53733 34.4871C5.2742 34.6156 4.98613 34.6849 4.69335 34.6903ZM7.65639 31.1098L8.90194 31.2181L8.74249 33.6345L7.4935 33.5782L7.65639 31.1098ZM36.2626 34.2368C36.2511 34.4068 36.1737 34.5655 36.0467 34.6791C35.9198 34.7926 35.7535 34.8521 35.5833 34.8446L12.4896 33.8033L12.6387 31.5429L35.6691 33.5451C35.8385 33.5607 35.9952 33.6417 36.1059 33.7708C36.2167 33.8999 36.2729 34.067 36.2626 34.2368ZM36.5785 10.5432C36.1432 10.2751 35.6766 10.0615 35.1892 9.9073L34.8101 11.0984C35.1998 11.2214 35.5729 11.392 35.9208 11.6062L36.5785 10.5432ZM26.494 7.33926C26.2779 9.08363 26.1759 10.2665 26.7049 10.7954C26.9891 11.0794 27.462 11.1814 28.1097 11.1814C28.667 11.1814 29.354 11.1058 30.1612 11.0058C31.2535 10.8707 32.4916 10.7174 33.6761 10.8582L33.8239 9.61715C32.4887 9.45801 31.1705 9.62121 30.0062 9.76558C29.4571 9.83363 28.0517 10.0078 27.6061 9.89426C27.4926 9.44895 27.6668 8.0427 27.7348 7.49269C28.0018 5.33691 28.3676 2.38434 26.3301 0.0791016L25.3932 0.906445C27.0573 2.7898 26.7581 5.20668 26.494 7.33926Z" fill="black"/>
<path d="M3.42026 27.1978C1.95232 24.5329 1.2044 21.5314 1.25024 18.4892C1.29608 15.4471 2.13411 12.4695 3.68168 9.85C5.22925 7.23052 7.43289 5.05969 10.0753 3.55158C12.7177 2.04348 15.7076 1.25021 18.75 1.25C21.1797 1.25 22.7399 1.67922 23.5203 2.5625C24.4382 3.60156 24.2318 5.26781 24.0132 7.03219C23.7637 9.04781 23.5054 11.1316 24.9371 12.5634C26.3689 13.9953 28.4528 13.7368 30.4684 13.4873C32.2329 13.2686 33.8995 13.0624 34.9381 13.9803C35.8208 14.7602 36.25 16.3203 36.25 18.75C36.2509 22.9623 34.7316 27.0334 31.9713 30.2153L32.9154 31.0347C35.873 27.6254 37.5009 23.2633 37.5 18.75C37.5 15.9413 36.9327 14.0745 35.7656 13.0431C34.3047 11.752 32.2762 12.0034 30.3145 12.2463C28.5176 12.4688 26.821 12.6789 25.821 11.6789C24.821 10.6789 25.0312 8.98203 25.2537 7.18547C25.4967 5.22375 25.7479 3.19523 24.4568 1.7343C23.4255 0.567344 21.5587 0 18.75 0C15.4904 0.000960416 12.2874 0.851412 9.4566 2.46751C6.62584 4.08361 4.26514 6.40955 2.60723 9.21602C0.949326 12.0225 0.0514567 15.2126 0.00214669 18.4718C-0.0471634 21.731 0.753788 24.9468 2.32604 27.8022L3.42026 27.1978Z" fill="black"/>
<path d="M18.75 2.5C18.0083 2.5 17.2833 2.71993 16.6666 3.13199C16.0499 3.54404 15.5693 4.12971 15.2855 4.81494C15.0016 5.50016 14.9274 6.25416 15.0721 6.98159C15.2168 7.70902 15.5739 8.3772 16.0984 8.90165C16.6228 9.4261 17.291 9.78325 18.0184 9.92795C18.7458 10.0726 19.4998 9.99838 20.1851 9.71455C20.8703 9.43072 21.456 8.95007 21.868 8.33339C22.2801 7.7167 22.5 6.99168 22.5 6.25C22.4989 5.25577 22.1035 4.30258 21.4004 3.59956C20.6974 2.89654 19.7442 2.5011 18.75 2.5ZM18.75 8.75C18.2555 8.75 17.7722 8.60338 17.3611 8.32867C16.95 8.05397 16.6295 7.66352 16.4403 7.20671C16.2511 6.74989 16.2016 6.24723 16.298 5.76227C16.3945 5.27732 16.6326 4.83186 16.9822 4.48223C17.3319 4.1326 17.7773 3.8945 18.2623 3.79804C18.7472 3.70157 19.2499 3.75108 19.7067 3.9403C20.1635 4.12952 20.554 4.44995 20.8287 4.86107C21.1034 5.2722 21.25 5.75555 21.25 6.25C21.2493 6.91281 20.9856 7.54826 20.5169 8.01694C20.0483 8.48562 19.4128 8.74926 18.75 8.75ZM18.75 15C18.0083 15 17.2833 15.2199 16.6666 15.632C16.0499 16.044 15.5693 16.6297 15.2855 17.3149C15.0016 18.0002 14.9274 18.7542 15.0721 19.4816C15.2168 20.209 15.5739 20.8772 16.0984 21.4017C16.6228 21.9261 17.291 22.2833 18.0184 22.4279C18.7458 22.5726 19.4998 22.4984 20.1851 22.2145C20.8703 21.9307 21.456 21.4501 21.868 20.8334C22.2801 20.2167 22.5 19.4917 22.5 18.75C22.4989 17.7558 22.1035 16.8026 21.4004 16.0996C20.6974 15.3965 19.7442 15.0011 18.75 15ZM18.75 21.25C18.2555 21.25 17.7722 21.1034 17.3611 20.8287C16.95 20.554 16.6295 20.1635 16.4403 19.7067C16.2511 19.2499 16.2016 18.7472 16.298 18.2623C16.3945 17.7773 16.6326 17.3319 16.9822 16.9822C17.3319 16.6326 17.7773 16.3945 18.2623 16.298C18.7472 16.2016 19.2499 16.2511 19.7067 16.4403C20.1635 16.6295 20.554 16.95 20.8287 17.3611C21.1034 17.7722 21.25 18.2555 21.25 18.75C21.2493 19.4128 20.9856 20.0483 20.5169 20.5169C20.0483 20.9856 19.4128 21.2493 18.75 21.25ZM12.5629 7.25953C11.9494 6.64604 11.1422 6.26424 10.2788 6.17918C9.41543 6.09412 8.54924 6.31107 7.82786 6.79305C7.10648 7.27504 6.57454 7.99225 6.32267 8.82247C6.07081 9.65269 6.1146 10.5446 6.4466 11.3461C6.77859 12.1477 7.37824 12.8093 8.14337 13.2183C8.9085 13.6273 9.79178 13.7583 10.6427 13.5891C11.4936 13.4198 12.2595 12.9608 12.8099 12.2901C13.3603 11.6195 13.6612 10.7788 13.6612 9.91117C13.6625 9.41852 13.5661 8.9305 13.3776 8.47535C13.1891 8.02019 12.9122 7.60695 12.5629 7.25953ZM11.6789 11.6789C11.3293 12.0285 10.8838 12.2667 10.3989 12.3631C9.91391 12.4596 9.41124 12.4101 8.95442 12.2209C8.4976 12.0317 8.10715 11.7112 7.83244 11.3001C7.55773 10.889 7.41111 10.4056 7.41111 9.91117C7.41111 9.41672 7.55773 8.93336 7.83244 8.52224C8.10715 8.11111 8.4976 7.79068 8.95442 7.60146C9.41124 7.41225 9.91391 7.36274 10.3989 7.45922C10.8838 7.55569 11.3293 7.7938 11.6789 8.14344C12.1477 8.61228 12.4111 9.24815 12.4111 9.91117C12.4111 10.5742 12.1477 11.2101 11.6789 11.6789ZM10 18.75C10 18.0083 9.78007 17.2833 9.36801 16.6666C8.95596 16.0499 8.37029 15.5693 7.68506 15.2855C6.99984 15.0016 6.24584 14.9274 5.51841 15.0721C4.79098 15.2167 4.1228 15.5739 3.59835 16.0983C3.0739 16.6228 2.71675 17.291 2.57206 18.0184C2.42736 18.7458 2.50162 19.4998 2.78545 20.1851C3.06928 20.8703 3.54993 21.456 4.16661 21.868C4.7833 22.2801 5.50832 22.5 6.25 22.5C7.24423 22.4989 8.19742 22.1035 8.90044 21.4004C9.60347 20.6974 9.99891 19.7442 10 18.75ZM6.25 21.25C5.75555 21.25 5.2722 21.1034 4.86108 20.8287C4.44995 20.554 4.12952 20.1635 3.9403 19.7067C3.75108 19.2499 3.70158 18.7472 3.79804 18.2623C3.8945 17.7773 4.1326 17.3319 4.48223 16.9822C4.83187 16.6326 5.27732 16.3945 5.76228 16.298C6.24723 16.2016 6.7499 16.2511 7.20671 16.4403C7.66353 16.6295 8.05397 16.95 8.32868 17.3611C8.60338 17.7722 8.75 18.2555 8.75 18.75C8.74926 19.4128 8.48563 20.0483 8.01695 20.5169C7.54827 20.9856 6.91281 21.2493 6.25 21.25ZM13.0173 29.6909C13.3433 29.2089 13.5527 28.6577 13.6289 28.0807C13.705 27.5038 13.6459 26.9171 13.4561 26.367C13.2663 25.8169 12.9511 25.3185 12.5355 24.9112C12.1198 24.504 11.615 24.1991 11.0612 24.0206C10.5073 23.8421 9.91947 23.795 9.34423 23.883C8.769 23.971 8.22213 24.1916 7.7469 24.5274C7.27167 24.8633 6.88112 25.3051 6.60615 25.818C6.33119 26.3308 6.17935 26.9007 6.16266 27.4823L7.41219 27.5177C7.42333 27.1299 7.52455 26.7501 7.70783 26.4082C7.89111 26.0663 8.15143 25.7718 8.4682 25.5479C8.78496 25.324 9.14948 25.1769 9.53291 25.1182C9.91635 25.0596 10.3082 25.0909 10.6774 25.2098C11.0466 25.3287 11.3831 25.5319 11.6603 25.8033C11.9374 26.0747 12.1476 26.4068 12.2742 26.7735C12.4008 27.1401 12.4404 27.5312 12.3898 27.9158C12.3391 28.3004 12.1997 28.6679 11.9825 28.9893L13.0173 29.6909ZM15.75 29L16.7495 29.7508C17.0119 29.4009 17.3614 29.126 17.7632 28.9534C18.1651 28.7809 18.6051 28.7167 19.0395 28.7673C19.4739 28.8179 19.8874 28.9815 20.2388 29.2418C20.5902 29.5021 20.8672 29.85 21.0422 30.2508L22.1875 29.75C21.925 29.1491 21.5096 28.6274 20.9826 28.2371C20.4557 27.8468 19.8356 27.6015 19.1842 27.5256C18.5329 27.4497 17.873 27.5459 17.2704 27.8046C16.6678 28.0633 16.1436 28.4755 15.75 29ZM29.017 29.6414L29.733 30.6661C29.9144 30.5394 30.0843 30.3969 30.2408 30.2405C30.7652 29.716 31.1224 29.0478 31.2671 28.3204C31.4118 27.593 31.3375 26.839 31.0537 26.1538C30.7699 25.4685 30.2892 24.8829 29.6725 24.4708C29.0558 24.0587 28.3308 23.8388 27.5891 23.8388C26.8475 23.8388 26.1224 24.0587 25.5058 24.4708C24.8891 24.8829 24.4084 25.4685 24.1246 26.1538C23.8408 26.839 23.7665 27.593 23.9112 28.3204C24.0559 29.0478 24.4131 29.716 24.9375 30.2405C25.031 30.3339 25.1293 30.4224 25.232 30.5056L26.0188 29.5344C25.95 29.4785 25.8841 29.4192 25.8214 29.3566C25.4718 29.0069 25.2337 28.5615 25.1372 28.0765C25.0407 27.5916 25.0902 27.0889 25.2794 26.6321C25.4687 26.1753 25.7891 25.7848 26.2002 25.5101C26.6113 25.2354 27.0947 25.0888 27.5891 25.0888C28.0836 25.0888 28.567 25.2354 28.9781 25.5101C29.3892 25.7848 29.7096 26.1753 29.8989 26.6321C30.0881 27.0889 30.1376 27.5916 30.0411 28.0765C29.9446 28.5615 29.7065 29.0069 29.3569 29.3566C29.2521 29.4613 29.1384 29.5566 29.017 29.6414ZM35 18.75C35 18.0083 34.7801 17.2833 34.368 16.6666C33.956 16.0499 33.3703 15.5693 32.6851 15.2855C31.9998 15.0016 31.2458 14.9274 30.5184 15.0721C29.791 15.2167 29.1228 15.5739 28.5984 16.0983C28.0739 16.6228 27.7168 17.291 27.5721 18.0184C27.4274 18.7458 27.5016 19.4998 27.7855 20.1851C28.0693 20.8703 28.5499 21.456 29.1666 21.868C29.7833 22.2801 30.5083 22.5 31.25 22.5C32.2442 22.4989 33.1974 22.1035 33.9004 21.4004C34.6035 20.6974 34.9989 19.7442 35 18.75ZM31.25 21.25C30.7555 21.25 30.2722 21.1034 29.8611 20.8287C29.45 20.554 29.1295 20.1635 28.9403 19.7067C28.7511 19.2499 28.7016 18.7472 28.798 18.2623C28.8945 17.7773 29.1326 17.3319 29.4822 16.9822C29.8319 16.6326 30.2773 16.3945 30.7623 16.298C31.2472 16.2016 31.7499 16.2511 32.2067 16.4403C32.6635 16.6295 33.054 16.95 33.3287 17.3611C33.6034 17.7722 33.75 18.2555 33.75 18.75C33.7493 19.4128 33.4856 20.0483 33.0169 20.5169C32.5483 20.9856 31.9128 21.2493 31.25 21.25Z" fill="black"/>
</svg>
