<svg width="40" height="38" viewBox="0 0 40 38" fill="none" xmlns="http://www.w3.org/2000/svg">
<path d="M27.1539 37.1468H16.5156C17.1521 36.7941 17.6825 36.2774 18.0518 35.6504C18.4211 35.0235 18.6159 34.3091 18.6159 33.5814V31.6416H25.0537V33.5814C25.0537 34.3091 25.2484 35.0235 25.6178 35.6504C25.9871 36.2774 26.5175 36.7941 27.1539 37.1468Z" fill="#474747"/>
<path d="M39.0141 7.53809V29.6268C39.0141 30.74 38.1117 31.6425 36.9985 31.6425H6.6709C5.5577 31.6425 4.65527 30.74 4.65527 29.6268V7.53809C4.65527 6.42488 5.5577 5.52246 6.6709 5.52246H36.9985C38.1117 5.52254 39.0141 6.42488 39.0141 7.53809Z" fill="#475DA9"/>
<path d="M39.013 7.54012V29.6284C39.013 30.7396 38.1102 31.6424 36.9991 31.6424H6.67195C5.55711 31.6424 4.6543 30.7396 4.6543 29.6284V29.3982H12.6664C25.9019 29.3982 36.6445 18.7323 36.7651 5.52246H36.999C38.1102 5.52246 39.013 6.42527 39.013 7.54012Z" fill="black" fill-opacity="0.07"/>
<path d="M7.47656 8.34375H36.1916V27.1902H7.47656V8.34375Z" fill="#E8F1F8"/>
<path d="M29.7995 37.5616H13.8702C13.7601 37.5616 13.6545 37.5179 13.5767 37.44C13.4988 37.3622 13.4551 37.2566 13.4551 37.1465C13.4551 37.0364 13.4988 36.9309 13.5767 36.853C13.6545 36.7752 13.7601 36.7314 13.8702 36.7314H29.7995C29.9096 36.7314 30.0152 36.7752 30.093 36.853C30.1709 36.9309 30.2146 37.0364 30.2146 37.1465C30.2146 37.2566 30.1709 37.3622 30.093 37.44C30.0152 37.5179 29.9096 37.5616 29.7995 37.5616Z" fill="#474747"/>
<path d="M34.0538 16.5373V24.7111C34.0538 24.8251 34.0085 24.9344 33.9279 25.015C33.8473 25.0957 33.738 25.1409 33.624 25.1409H31.715C31.601 25.1409 31.4917 25.0957 31.4111 25.015C31.3304 24.9344 31.2852 24.8251 31.2852 24.7111V16.5373C31.2852 16.4233 31.3304 16.3139 31.4111 16.2333C31.4917 16.1527 31.601 16.1074 31.715 16.1074H33.624C33.738 16.1074 33.8473 16.1527 33.9279 16.2333C34.0085 16.3139 34.0538 16.4233 34.0538 16.5373Z" fill="#0E9C4A"/>
<path d="M34.0548 16.5373V24.7111C34.0547 24.8251 34.0094 24.9343 33.9288 25.0149C33.8482 25.0955 33.739 25.1408 33.625 25.1409H31.715C31.601 25.1408 31.4918 25.0955 31.4112 25.0149C31.3306 24.9343 31.2853 24.8251 31.2852 24.7111V24.6681C32.397 24.489 33.2467 23.5233 33.2467 22.3612V16.1074H33.625C33.739 16.1075 33.8483 16.1528 33.9289 16.2334C34.0094 16.314 34.0548 16.4233 34.0548 16.5373Z" fill="black" fill-opacity="0.063"/>
<path d="M29.6905 14.6671V24.7114C29.6905 24.8254 29.6453 24.9347 29.5646 25.0153C29.484 25.0959 29.3747 25.1412 29.2607 25.1412H27.3517C27.2377 25.1412 27.1284 25.0959 27.0478 25.0153C26.9672 24.9347 26.9219 24.8254 26.9219 24.7114V14.6671C26.9219 14.5531 26.9672 14.4438 27.0478 14.3632C27.1284 14.2826 27.2377 14.2373 27.3517 14.2373H29.2607C29.3747 14.2373 29.484 14.2826 29.5646 14.3632C29.6453 14.4438 29.6905 14.5531 29.6905 14.6671Z" fill="#FDCF17"/>
<path d="M29.6906 14.6671V24.7114C29.6905 24.8253 29.6452 24.9346 29.5646 25.0152C29.484 25.0958 29.3747 25.1411 29.2607 25.1412H27.3507C27.2368 25.1411 27.1275 25.0958 27.0469 25.0152C26.9663 24.9346 26.921 24.8253 26.9209 24.7114V24.6684C28.0328 24.4893 28.8825 23.5236 28.8825 22.3615V14.2373H29.2607C29.3747 14.2374 29.484 14.2827 29.5646 14.3633C29.6452 14.4439 29.6905 14.5532 29.6906 14.6671Z" fill="black" fill-opacity="0.063"/>
<path d="M25.3273 18.1574V24.7112C25.3273 24.8252 25.282 24.9345 25.2014 25.0152C25.1208 25.0958 25.0114 25.1411 24.8974 25.1411H22.9884C22.932 25.1411 22.8761 25.1299 22.8239 25.1083C22.7718 25.0867 22.7244 25.0551 22.6845 25.0152C22.6446 24.9752 22.6129 24.9279 22.5913 24.8757C22.5697 24.8236 22.5586 24.7677 22.5586 24.7112V18.1574C22.5586 18.1009 22.5697 18.045 22.5913 17.9929C22.6129 17.9407 22.6446 17.8934 22.6845 17.8534C22.7244 17.8135 22.7718 17.7819 22.8239 17.7603C22.8761 17.7387 22.932 17.7275 22.9884 17.7275H24.8974C25.0114 17.7275 25.1208 17.7728 25.2014 17.8534C25.282 17.934 25.3273 18.0434 25.3273 18.1574Z" fill="#F14F4A"/>
<path d="M25.3273 18.1574V24.7112C25.3272 24.8252 25.2819 24.9345 25.2013 25.015C25.1207 25.0956 25.0114 25.141 24.8975 25.1411H22.9875C22.8735 25.141 22.7642 25.0956 22.6836 25.015C22.603 24.9345 22.5577 24.8252 22.5576 24.7112V24.6682C23.6695 24.4891 24.5192 23.5234 24.5192 22.3614V17.7275H24.8975C25.0114 17.7276 25.1207 17.7729 25.2013 17.8535C25.2819 17.9341 25.3272 18.0434 25.3273 18.1574Z" fill="black" fill-opacity="0.063"/>
<path d="M20.963 15.5011V24.7115C20.963 24.8255 20.9177 24.9349 20.8371 25.0155C20.7565 25.0961 20.6472 25.1414 20.5332 25.1414H18.6242C18.5102 25.1414 18.4008 25.0961 18.3202 25.0155C18.2396 24.9349 18.1943 24.8255 18.1943 24.7115V15.5011C18.1943 15.3871 18.2396 15.2778 18.3202 15.1972C18.4008 15.1166 18.5102 15.0713 18.6242 15.0713H20.5332C20.5896 15.0713 20.6455 15.0824 20.6977 15.104C20.7498 15.1256 20.7972 15.1572 20.8372 15.1971C20.8771 15.2371 20.9087 15.2845 20.9303 15.3366C20.9519 15.3888 20.963 15.4447 20.963 15.5011Z" fill="#F78721"/>
<path d="M20.964 15.5012V24.7116C20.9639 24.8256 20.9186 24.9348 20.838 25.0154C20.7574 25.096 20.6481 25.1413 20.5342 25.1414H18.6242C18.5102 25.1413 18.4009 25.096 18.3203 25.0154C18.2398 24.9348 18.1944 24.8256 18.1943 24.7116V24.6686C19.3062 24.4895 20.1559 23.5238 20.1559 22.3618V15.0713H20.5342C20.6482 15.0714 20.7574 15.1167 20.838 15.1973C20.9186 15.2779 20.9639 15.3872 20.964 15.5012Z" fill="black" fill-opacity="0.063"/>
<path d="M19.5789 2.09289V10.4854C19.5789 11.6412 18.6419 12.5783 17.486 12.5783H16.0053L14.8902 15.4554C14.6499 16.0754 13.7725 16.0749 13.5328 15.4547L12.4213 12.5782H2.09289C0.937031 12.5782 0 11.6412 0 10.4853V2.09289C0 0.937031 0.937031 0 2.09289 0H17.486C18.6419 0 19.5789 0.937031 19.5789 2.09289Z" fill="#0E9C4A"/>
<path d="M17.486 0H17.0582C17.0582 5.41883 12.6654 9.81164 7.24656 9.81164H0V10.4853C0 11.6412 0.937031 12.5782 2.09289 12.5782H12.4213L13.5328 15.4547C13.7725 16.0749 14.6499 16.0754 14.8902 15.4554L16.0053 12.5783H17.486C18.6419 12.5783 19.5789 11.6412 19.5789 10.4854V2.09289C19.5789 0.937031 18.6419 0 17.486 0Z" fill="black" fill-opacity="0.063"/>
<path d="M6.30524 9.48373L3.56353 7.92795C3.47007 7.87246 3.4021 7.78253 3.37423 7.67748C3.34636 7.57242 3.36081 7.46063 3.41446 7.36611C3.46812 7.27159 3.55671 7.20189 3.6612 7.17198C3.76569 7.14207 3.87775 7.15434 3.97329 7.20615L6.43392 8.60248L8.95189 5.9742C9.01412 5.90945 9.09564 5.86658 9.18426 5.85201C9.27288 5.83743 9.36383 5.85193 9.44353 5.89334L11.8282 7.13763L14.3727 2.59388C14.4266 2.49794 14.5164 2.42729 14.6223 2.39743C14.7282 2.36757 14.8417 2.38093 14.9377 2.43459C14.9853 2.46122 15.0272 2.49697 15.0609 2.53978C15.0946 2.58259 15.1196 2.63163 15.1344 2.68409C15.1492 2.73656 15.1535 2.79142 15.1471 2.84556C15.1407 2.89969 15.1237 2.95203 15.097 2.99959L12.3555 7.89498C12.3026 7.98905 12.2153 8.05888 12.1119 8.08971C12.0085 8.12053 11.8971 8.10992 11.8014 8.06013L9.33571 6.77349L6.80978 9.41006C6.74586 9.47671 6.66154 9.52015 6.57016 9.53349C6.47877 9.54684 6.38555 9.52932 6.30524 9.48373Z" fill="#E8F1F8"/>
<path d="M15.208 4.18243L13.2632 3.20399C12.9457 3.0443 12.9637 2.58516 13.2926 2.45071L14.8265 1.82376C14.8813 1.80137 14.9403 1.79098 14.9994 1.79328C15.0585 1.79559 15.1165 1.81055 15.1693 1.83714C15.2222 1.86373 15.2688 1.90134 15.3059 1.94744C15.343 1.99354 15.3698 2.04705 15.3844 2.10438L15.7954 3.70969C15.8835 4.05407 15.5255 4.34212 15.208 4.18243Z" fill="#E8F1F8"/>
<path d="M15.6677 25.1417H10.4161C10.306 25.1417 10.2004 25.0979 10.1226 25.0201C10.0447 24.9423 10.001 24.8367 10.001 24.7266C10.001 24.6165 10.0447 24.5109 10.1226 24.4331C10.2004 24.3553 10.306 24.3115 10.4161 24.3115H15.6677C15.7778 24.3115 15.8834 24.3553 15.9612 24.4331C16.039 24.5109 16.0828 24.6165 16.0828 24.7266C16.0828 24.8367 16.039 24.9423 15.9612 25.0201C15.8834 25.0979 15.7778 25.1417 15.6677 25.1417Z" fill="#474747"/>
<path d="M15.6677 22.0694H10.4161C10.306 22.0694 10.2004 22.0257 10.1226 21.9478C10.0447 21.87 10.001 21.7644 10.001 21.6543C10.001 21.5442 10.0447 21.4387 10.1226 21.3608C10.2004 21.283 10.306 21.2393 10.4161 21.2393H15.6677C15.7778 21.2393 15.8834 21.283 15.9612 21.3608C16.039 21.4387 16.0828 21.5442 16.0828 21.6543C16.0828 21.7644 16.039 21.87 15.9612 21.9478C15.8834 22.0257 15.7778 22.0694 15.6677 22.0694Z" fill="#474747"/>
<path d="M15.6679 18.9971H13.7305C13.6204 18.9971 13.5148 18.9534 13.437 18.8756C13.3592 18.7977 13.3154 18.6922 13.3154 18.5821C13.3154 18.472 13.3592 18.3664 13.437 18.2886C13.5148 18.2107 13.6204 18.167 13.7305 18.167H15.6679C15.778 18.167 15.8836 18.2107 15.9614 18.2886C16.0393 18.3664 16.083 18.472 16.083 18.5821C16.083 18.6922 16.0393 18.7977 15.9614 18.8756C15.8836 18.9534 15.778 18.9971 15.6679 18.9971Z" fill="#474747"/>
</svg>
