<svg width="40" height="36" viewBox="0 0 40 36" fill="none" xmlns="http://www.w3.org/2000/svg">
<path d="M17.8884 30.3871C24.7913 30.3871 30.3871 24.7913 30.3871 17.8884C30.3871 10.9855 24.7913 5.38965 17.8884 5.38965C10.9855 5.38965 5.38965 10.9855 5.38965 17.8884C5.38965 24.7913 10.9855 30.3871 17.8884 30.3871Z" fill="#FE6663"/>
<path d="M17.8889 25.0757C21.8581 25.0757 25.0757 21.8581 25.0757 17.8889C25.0757 13.9198 21.8581 10.7021 17.8889 10.7021C13.9198 10.7021 10.7021 13.9198 10.7021 17.8889C10.7021 21.8581 13.9198 25.0757 17.8889 25.0757Z" fill="white"/>
<path d="M0.789062 5.99051L6.81195 12.042H12.0488L6.01094 5.99051H0.789062ZM12.0488 12.042L6.01094 5.99051V0.782227L12.0488 6.80512V12.042Z" fill="#BAEE83"/>
<path d="M37.4668 34.9974H19.4511C18.8984 34.9974 18.4502 34.5493 18.4502 33.9964V18.9053H38.4677V33.9964C38.4677 34.5493 38.0196 34.9974 37.4668 34.9974Z" fill="#7ACCFF"/>
<path d="M17.7002 18.9053V23.6973C17.7002 24.8029 18.5964 25.699 19.7019 25.699H26.5579L30.3613 25.6934L37.216 25.6978C38.3221 25.6985 39.2189 24.8021 39.2189 23.6961V18.9053H17.7002Z" fill="#C7EAFF"/>
<path d="M29.8608 24.0462H27.0584C26.9755 24.0462 26.9082 24.1134 26.9082 24.1964V26.2006C26.9082 27.0574 27.6028 27.7519 28.4596 27.7519C29.3164 27.7519 30.0109 27.0574 30.0109 26.2006V24.1964C30.0109 24.1767 30.007 24.1571 29.9995 24.1389C29.992 24.1207 29.9809 24.1041 29.967 24.0902C29.953 24.0763 29.9365 24.0652 29.9183 24.0576C29.9001 24.0501 29.8805 24.0462 29.8608 24.0462ZM24.3584 18.8011V16.5078C24.3584 16.3371 24.4262 16.1734 24.5469 16.0527C24.6676 15.9321 24.8312 15.8643 25.0019 15.8643H31.9171C32.0878 15.8643 32.2515 15.9321 32.3722 16.0527C32.4929 16.1734 32.5607 16.3371 32.5607 16.5078V18.8011H24.3584Z" fill="white"/>
<path d="M33.7475 13.9911L33.7521 14.0101C33.8388 14.3676 34.1584 14.6074 34.5107 14.6074C34.5716 14.6074 34.6336 14.6002 34.6954 14.5852C35.1146 14.4836 35.3721 14.0613 35.2704 13.642L35.264 13.6157C35.1604 13.1969 34.7368 12.9415 34.3181 13.0451C33.8993 13.1488 33.6438 13.5723 33.7475 13.9911ZM11.3251 14.8546C10.9163 14.7171 10.4732 14.9369 10.3356 15.3457C10.0604 16.1632 9.9209 17.0189 9.9209 17.8889C9.9209 20.7063 11.3628 23.2584 13.7778 24.7157C13.8656 24.7687 13.963 24.8039 14.0644 24.8192C14.1659 24.8346 14.2694 24.8298 14.3689 24.8052C14.4685 24.7805 14.5623 24.7365 14.6448 24.6756C14.7274 24.6147 14.7972 24.5381 14.8501 24.4503C15.0731 24.0808 14.9543 23.6007 14.5848 23.3778C12.6426 22.2059 11.4831 20.1539 11.4831 17.8887C11.4831 17.1886 11.5952 16.5006 11.8162 15.844C11.9539 15.4352 11.734 14.9921 11.3251 14.8546ZM15.6571 11.8825C16.3699 11.6175 17.1207 11.4832 17.8889 11.4832C19.5275 11.4832 21.0867 12.1015 22.279 13.2243C22.4237 13.361 22.6153 13.437 22.8143 13.4368C22.9209 13.4369 23.0264 13.4152 23.1243 13.3729C23.2221 13.3306 23.3103 13.2688 23.3832 13.1911C23.679 12.8769 23.6641 12.3825 23.35 12.0868C21.8667 10.6901 19.9271 9.9209 17.8888 9.9209C16.9342 9.9209 16.0001 10.0882 15.1126 10.4181C14.7082 10.5685 14.5023 11.0181 14.6526 11.4225C14.8029 11.8269 15.2525 12.0329 15.6571 11.8825Z" fill="black"/>
<path d="M40 18.9052C40 18.4739 39.6502 18.1241 39.2188 18.1241H33.3418V16.508C33.3418 15.7224 32.7027 15.0833 31.9171 15.0833H30.8684C30.3314 12.5872 29.0946 10.3138 27.2794 8.49844C24.1991 5.4182 19.7981 4.04453 15.5065 4.8232C15.082 4.90023 14.8003 5.3068 14.8773 5.73133C14.9544 6.15586 15.361 6.43727 15.7855 6.36047C19.5729 5.67313 23.4568 6.88531 26.1746 9.60328C27.6964 11.1251 28.7578 13.0112 29.2663 15.0834H25.0019C24.2163 15.0834 23.5772 15.7225 23.5772 16.508V18.1241H17.7002C17.2687 18.1241 16.919 18.474 16.919 18.9053V23.6974C16.919 24.4307 17.2045 25.0981 17.6696 25.5958V29.6047C14.6221 29.5527 11.7761 28.3471 9.60352 26.1745C6.81484 23.3858 5.62016 19.4105 6.40773 15.5405C6.49375 15.1178 6.22078 14.7053 5.79805 14.6193C5.37516 14.5332 4.96281 14.8062 4.8768 15.229C3.98445 19.6141 5.33836 24.1187 8.49867 27.2791C10.9304 29.7109 14.2423 31.1068 17.6695 31.1658V33.9965C17.6695 34.0698 17.6745 34.1418 17.6831 34.2127C8.77523 34.102 1.56234 26.8225 1.56234 17.8888C1.56234 15.0953 2.27289 12.3647 3.6225 9.94484L6.2582 12.593C6.33079 12.666 6.41706 12.7239 6.51208 12.7634C6.6071 12.8029 6.70898 12.8232 6.81188 12.8232H11.7252L16.5418 17.6398C16.6944 17.7924 16.8943 17.8687 17.0941 17.8687C17.294 17.8687 17.494 17.7924 17.6465 17.6398C17.9516 17.3348 17.9516 16.8402 17.6465 16.535L12.8298 11.7184V6.80508C12.8298 6.70233 12.8095 6.60059 12.7701 6.50569C12.7307 6.41079 12.673 6.32459 12.6002 6.25203L9.95719 3.61547C12.3739 2.27039 15.1 1.56227 17.8888 1.56227C24.2259 1.56227 30.0434 5.27891 32.7098 11.0309C32.7724 11.1662 32.8725 11.2808 32.9982 11.361C33.1239 11.4412 33.2699 11.4838 33.419 11.4837C33.5323 11.4837 33.6443 11.4589 33.747 11.4111C34.1384 11.2296 34.3087 10.7652 34.1273 10.3738C32.7117 7.32008 30.4694 4.73234 27.6424 2.89047C24.7403 0.999453 21.3675 0 17.8888 0C14.684 0 11.5538 0.853828 8.81086 2.47195L6.56258 0.228984C6.45327 0.119912 6.31408 0.045687 6.16261 0.015687C6.01113 -0.0143129 5.85416 0.00125864 5.71153 0.0604342C5.5689 0.11961 5.44701 0.219734 5.36126 0.348156C5.27552 0.476578 5.22975 0.627535 5.22977 0.781953V5.20906H0.788984C0.634618 5.209 0.483694 5.25468 0.355274 5.34034C0.226854 5.426 0.126697 5.54779 0.0674538 5.69034C0.00821023 5.83288 -0.00746331 5.98979 0.0224127 6.14124C0.0522886 6.29268 0.126374 6.43188 0.235313 6.54125L2.48008 8.79664C0.856641 11.5433 0 14.6784 0 17.8888C0 22.667 1.86078 27.1594 5.23953 30.5381C8.61828 33.917 13.1106 35.7777 17.8889 35.7777L37.4673 35.7785C38.4499 35.7785 39.2494 34.9791 39.2494 33.9964V25.5961C39.7337 25.0789 40 24.408 40 23.6959V18.9052V18.9052ZM6.79203 2.66469L11.2675 7.12906V10.1528L6.79203 5.66727V2.66469ZM5.6868 6.77148L10.1627 11.2605H7.13648L2.66859 6.77148H5.6868ZM25.1394 16.6456H31.7793V18.1241H25.1394V16.6456ZM18.4812 19.6864H38.4377V23.696C38.4377 24.0223 38.3106 24.3288 38.0799 24.5594C37.9669 24.673 37.8324 24.7631 37.6843 24.8244C37.5362 24.8857 37.3774 24.9171 37.2171 24.9166H37.2163L30.792 24.9126V24.1966C30.792 23.6831 30.3742 23.2653 29.8606 23.2653H27.0582C26.5447 23.2653 26.1269 23.683 26.1269 24.1966V24.9179H19.7017C19.0287 24.9179 18.4812 24.3703 18.4812 23.6973V19.6864ZM29.2296 24.8276V26.2008C29.2296 26.6255 28.8841 26.9709 28.4595 26.9709C28.0348 26.9709 27.6893 26.6254 27.6893 26.2008V24.8276H29.2296ZM37.4673 34.2162H20.4091C20.4035 34.2161 20.3981 34.2153 20.3925 34.2153H19.4431C19.3864 34.2132 19.3327 34.1892 19.2933 34.1484C19.2539 34.1076 19.2318 34.0531 19.2317 33.9964V26.4397C19.3846 26.4658 19.5415 26.4802 19.7016 26.4802H26.1441C26.2827 27.6351 27.2678 28.5333 28.4594 28.5333C29.6527 28.5333 30.6391 27.6322 30.7752 26.4748L37.2152 26.4788H37.217C37.3762 26.4788 37.5331 26.4648 37.6869 26.4387V30.4659H32.5605C32.1291 30.4659 31.7793 30.8158 31.7793 31.2471C31.7793 31.6784 32.1291 32.0283 32.5605 32.0283H37.6869V33.9963C37.6869 34.0546 37.6637 34.1105 37.6226 34.1517C37.5814 34.1929 37.5255 34.2161 37.4673 34.2162Z" fill="black"/>
<path d="M28.7333 30.4658C28.5271 30.4658 28.3264 30.5493 28.1803 30.6947C28.035 30.84 27.9521 31.0416 27.9521 31.247C27.9521 31.4524 28.035 31.6539 28.1803 31.7992C28.3274 31.9452 28.5261 32.0274 28.7333 32.0282C28.9388 32.0282 29.1395 31.9446 29.2856 31.7992C29.4309 31.6539 29.5145 31.4524 29.5145 31.247C29.5145 31.0416 29.4309 30.84 29.2856 30.6947C29.1388 30.5488 28.9403 30.4665 28.7333 30.4658Z" fill="black"/>
</svg>
