<svg width="40" height="40" viewBox="0 0 40 40" fill="none" xmlns="http://www.w3.org/2000/svg">
<path fill-rule="evenodd" clip-rule="evenodd" d="M24.094 23.0235C24.5573 24.536 23.4955 26.1579 21.8565 26.5977C19.8932 27.1235 18.5291 26.0032 18.051 24.3235C17.8557 23.6352 17.5104 22.6461 17.0877 21.4571L23.208 19.818C23.4463 20.7993 23.7377 21.8633 24.094 23.0235ZM16.2057 18.9625C14.9807 15.4399 13.5799 11.0852 13.2026 7.56644C12.2799 -1.06012 21.0565 -1.83199 22.3502 6.30941C22.7901 9.08363 21.6252 11.3102 22.6659 17.2336L16.2057 18.9625ZM28.4151 28.6149C27.9518 30.1274 29.0135 31.7493 30.6526 32.1891C32.6159 32.7149 33.9799 31.5946 34.458 29.9149C34.6534 29.2258 34.9987 28.2375 35.4213 27.0508L29.301 25.4094C29.0627 26.3899 28.7705 27.4539 28.4151 28.6149ZM36.3034 24.5532C37.5284 21.0305 38.9291 16.6758 39.3065 13.1571C40.2291 4.53051 31.4526 3.75863 30.1588 11.9C29.719 14.6743 30.8838 16.9032 29.8432 22.8243L36.3034 24.5532Z" fill="#FFBF2E"/>
<path fill-rule="evenodd" clip-rule="evenodd" d="M10.941 31.2336L3.38477 38.7867C2.75586 39.4172 1.72617 39.4172 1.0957 38.7867C0.466797 38.1578 0.466797 37.1281 1.0957 36.5L8.65195 28.9437C9.05742 28.5383 9.71602 28.5383 10.1215 28.9437L10.941 29.7633C11.3465 30.1672 11.3465 30.8273 10.941 31.2336Z" fill="#334973"/>
<path fill-rule="evenodd" clip-rule="evenodd" d="M21.5556 26.6659C19.7533 27.005 18.5025 25.9152 18.0501 24.323C17.8548 23.6347 17.5095 22.6456 17.0868 21.4566L18.2368 21.1495C18.2493 21.1839 18.3525 21.4519 18.3353 21.4566C18.9814 23.2761 19.4017 26.2089 21.5556 26.6659ZM16.2056 18.962C15.6306 17.3081 15.015 15.4691 14.4868 13.6199C14.8454 13.4222 15.2142 13.2527 15.5915 13.1089C16.1197 15.016 16.7501 16.9277 17.3486 18.655L16.2056 18.962ZM14.1478 12.3847C13.7079 10.7136 13.3626 9.06361 13.2017 7.56595C12.6697 2.59486 15.3579 0.233138 17.979 0.679232C15.829 1.05501 14.004 3.39095 14.4501 7.56595C14.5962 8.91751 14.8923 10.3917 15.2697 11.8956C14.8884 12.0347 14.5126 12.198 14.1478 12.3847ZM28.415 28.6144C27.9517 30.1269 29.0134 31.7488 30.6525 32.1886C31.1353 32.3175 31.579 32.3472 31.9845 32.2941C31.8111 32.273 31.6329 32.2386 31.4478 32.1886C29.8064 31.7488 28.7447 30.1269 29.2079 28.6144C29.5408 27.5331 29.8173 26.5331 30.0447 25.6089L29.3001 25.4097C29.0626 26.3894 28.7704 27.4534 28.415 28.6144ZM35.554 6.24017C33.3165 5.99095 30.804 7.83392 30.1587 11.8995C29.7189 14.6738 30.8837 16.9027 29.8431 22.8238L30.5704 23.0167C31.504 17.3527 30.5236 14.6136 30.9548 11.8995C31.5236 8.31048 33.5486 6.45501 35.554 6.24017Z" fill="#E6AC29"/>
<path d="M24.692 22.8417C24.349 21.7183 24.0553 20.6519 23.8186 19.6714C23.7787 19.5074 23.6748 19.3667 23.5303 19.28C23.4585 19.2374 23.379 19.2096 23.2964 19.1982C23.2137 19.1868 23.1296 19.192 23.049 19.2136L16.9279 20.8542C16.7592 20.8995 16.6178 21.0128 16.5365 21.1675C16.4553 21.3222 16.442 21.5035 16.5006 21.6675C16.8889 22.7628 17.2537 23.8042 17.4514 24.4949C17.9615 26.2949 19.2967 27.3495 20.9311 27.3495C21.2818 27.3495 21.6467 27.3011 22.0193 27.2003C23.0389 26.9277 23.9084 26.2566 24.4045 25.3589C24.8443 24.5644 24.9467 23.6699 24.692 22.8417ZM23.3092 24.755C22.9764 25.3566 22.3881 25.8081 21.6943 25.9933C19.5217 26.5769 18.8178 24.7331 18.6537 24.1535C18.4857 23.5675 18.2115 22.7636 17.9037 21.8894L22.7561 20.5886C22.9678 21.416 23.2154 22.2949 23.4943 23.2089C23.4943 23.2097 23.4943 23.2097 23.4951 23.2105C23.6498 23.7097 23.5834 24.2589 23.3092 24.755ZM35.5826 26.4449L29.4615 24.8058C29.381 24.7842 29.2969 24.779 29.2143 24.7904C29.1317 24.8018 29.0522 24.8296 28.9805 24.8722C28.9088 24.9148 28.8463 24.9713 28.7968 25.0384C28.7472 25.1055 28.7116 25.1818 28.692 25.2628C28.4537 26.2488 28.1592 27.3144 27.8162 28.4308V28.4316C27.5623 29.2613 27.6654 30.1566 28.1061 30.9527C28.6021 31.8488 29.4717 32.5199 30.492 32.7933C30.8631 32.8925 31.2264 32.941 31.5756 32.941C33.2107 32.941 34.5475 31.8855 35.06 30.087C35.2584 29.3949 35.6232 28.3542 36.0115 27.2581C36.0405 27.1768 36.0522 27.0904 36.046 27.0044C36.0398 26.9183 36.0159 26.8345 35.9756 26.7581C35.9351 26.6817 35.8793 26.6145 35.8117 26.5606C35.7441 26.5067 35.6661 26.4673 35.5826 26.4449ZM33.8561 29.7433C33.7131 30.2449 33.1631 31.6964 31.6068 31.6964C31.3678 31.6964 31.1045 31.662 30.8154 31.5847C30.1217 31.3988 29.5326 30.9472 29.2006 30.3464C28.9256 29.8503 28.8592 29.3011 29.0123 28.7988C29.292 27.8886 29.5404 27.0105 29.7537 26.1792L34.6061 27.4785C34.2982 28.3527 34.024 29.1566 33.8561 29.7433ZM39.0068 7.88939C38.2342 6.61127 37.0662 5.80892 35.7162 5.62923C34.3521 5.44798 32.9857 5.92142 31.8686 6.96283C30.6717 8.07767 29.867 9.75189 29.5412 11.8035C29.3553 12.9792 29.4373 14.0394 29.5326 15.2667C29.6693 17.0308 29.8396 19.2269 29.2279 22.7152C29.1717 23.0347 29.3693 23.3433 29.6826 23.4277L36.1404 25.1574C36.1943 25.1722 36.249 25.1785 36.3022 25.1785C36.5623 25.1785 36.8037 25.0152 36.8928 24.7581C38.1021 21.2847 39.5404 16.8339 39.9295 13.223C40.1561 11.1074 39.8373 9.26283 39.0068 7.88939ZM38.6857 13.0902C38.3303 16.391 37.0459 20.4777 35.9021 23.798L30.5561 22.366C31.0818 19.048 30.9162 16.9074 30.7811 15.1699C30.6881 13.9738 30.6146 13.0292 30.7779 11.9995C31.0592 10.2261 31.7318 8.80111 32.7225 7.87845C33.5607 7.0972 34.5662 6.73939 35.5529 6.86986C37.4162 7.11752 39.1084 9.13705 38.6857 13.0902ZM25.6834 14.2027C24.8373 13.3566 23.8748 12.6956 22.8475 12.2199C22.8553 11.2519 22.9186 10.4269 22.9764 9.67923C23.0717 8.45033 23.1537 7.38861 22.9662 6.21205C22.6412 4.16048 21.8365 2.48705 20.6412 1.37142C19.5248 0.330797 18.1592 -0.143422 16.7943 0.0378282C15.4443 0.216734 14.2756 1.01986 13.5029 2.29798C12.6725 3.6722 12.3537 5.51752 12.5803 7.63392C12.749 9.21048 13.1193 10.9495 13.5842 12.6988C12.8813 13.1185 12.2331 13.6236 11.6545 14.2027C7.93809 17.9214 7.7959 23.8824 11.2264 27.7738L10.5295 28.4706C10.2193 28.1769 9.81621 28.0144 9.38652 28.0144H9.38418C8.93965 28.0152 8.52246 28.1886 8.21074 28.5019L0.656055 36.0574C0.231836 36.48 -0.000976562 37.0433 -0.000976562 37.6441C-0.000976562 38.2449 0.232617 38.8089 0.655273 39.23C1.09277 39.6675 1.66699 39.8863 2.24121 39.8863C2.81543 39.8863 3.39043 39.6675 3.82715 39.23L11.3818 31.6753C11.6959 31.3628 11.8693 30.9456 11.8701 30.5011C11.8709 30.0706 11.7084 29.6667 11.4139 29.3558L12.1107 28.6589C13.9787 30.3058 16.3232 31.13 18.6678 31.13C21.2076 31.13 23.7482 30.1636 25.6818 28.2308C29.5506 24.3636 29.5506 18.0706 25.6834 14.2027ZM21.9545 16.7745L16.6084 18.2081C16.0865 16.6925 15.5357 15.0183 15.0568 13.3324C16.1756 12.8191 17.4014 12.548 18.6693 12.548C19.685 12.548 20.6732 12.7214 21.6021 13.0542C21.6279 14.1152 21.7256 15.3339 21.9545 16.7745ZM13.824 7.50111C13.4006 3.54564 15.0936 1.52611 16.9584 1.27845C17.092 1.26048 17.2248 1.25189 17.3584 1.25189C18.2131 1.25189 19.0623 1.61127 19.7873 2.28705C20.7771 3.2097 21.449 4.6347 21.7303 6.40814C21.8943 7.43939 21.8209 8.38548 21.7287 9.58314C21.6787 10.2331 21.624 10.9402 21.6029 11.7441C19.3529 11.0511 16.9029 11.1753 14.7248 12.116C14.3068 10.512 13.9771 8.93158 13.824 7.50111ZM10.4998 30.7886L10.4982 30.7902L2.94199 38.3464C2.55527 38.7331 1.92559 38.7331 1.53809 38.3456C1.35137 38.1597 1.24902 37.9113 1.24902 37.6449C1.24902 37.3792 1.35215 37.13 1.53887 36.9433L9.09668 29.3863C9.17324 29.3097 9.27559 29.2667 9.38574 29.2667H9.38652C9.49746 29.2667 9.60137 29.3097 9.67949 29.3878L10.499 30.2074C10.5771 30.2855 10.6201 30.3894 10.6193 30.5003C10.6193 30.6097 10.5771 30.712 10.4998 30.7886ZM24.7982 27.3464C23.1084 29.0355 20.8889 29.88 18.6686 29.88C16.449 29.88 14.2287 29.0355 12.5396 27.3472C9.16152 23.9675 9.16152 18.4683 12.5396 15.0886C12.9693 14.6589 13.4365 14.2808 13.9334 13.955C14.4607 15.7808 15.0623 17.5777 15.617 19.1699C15.6596 19.2926 15.7394 19.399 15.8452 19.4743C15.951 19.5496 16.0777 19.5901 16.2076 19.5902C16.2615 19.5902 16.3154 19.5831 16.3701 19.5691L22.8279 17.837C22.979 17.7966 23.1095 17.701 23.1935 17.5691C23.2776 17.4372 23.3091 17.2786 23.2818 17.1245C23.0475 15.7878 22.9279 14.641 22.8771 13.6355C23.5732 14.023 24.2201 14.5097 24.7982 15.0886C28.1779 18.4675 28.1779 23.9667 24.7982 27.3464Z" fill="black"/>
</svg>
