<svg width="40" height="40" viewBox="0 0 40 40" fill="none" xmlns="http://www.w3.org/2000/svg">
<path d="M26.5074 13.8926V21.2517C26.5074 21.6058 26.3566 21.9606 26.0555 22.2092C21.5321 25.9398 16.9816 27.138 15.8479 27.392C15.6706 27.4313 15.4883 27.4313 15.311 27.392C14.4971 27.2098 11.9219 26.5407 8.86046 24.7976C7.65732 24.1122 6.37888 23.2614 5.10332 22.2092C4.96179 22.093 4.84783 21.9468 4.76967 21.7813C4.69151 21.6157 4.65111 21.4348 4.65137 21.2517V13.8926H26.5074Z" fill="#365E7D"/>
<path d="M8.86004 13.8936V24.798C7.65699 24.1129 6.37879 23.262 5.10301 22.2097C4.96152 22.0936 4.8476 21.9474 4.7695 21.7818C4.69139 21.6162 4.65104 21.4354 4.65137 21.2523V13.8936H8.86004V13.8936Z" fill="#2B4D66"/>
<path d="M26.5074 13.8926V17.3553C21.5804 20.5271 17.2127 21.6686 15.9474 21.9516C15.8266 21.9786 15.7032 21.9921 15.5794 21.992C15.4563 21.992 15.3326 21.9787 15.2114 21.9516C13.9461 21.6686 9.57843 20.5271 4.65137 17.3553V13.8926H26.5074Z" fill="#2B4D66"/>
<path d="M30.5727 9.05078V11.5203C30.5727 12.0067 30.3663 12.4929 29.9531 12.8339C23.7463 17.9527 17.5028 19.5975 15.9474 19.9456C15.8265 19.9726 15.7031 19.9861 15.5793 19.986C15.4562 19.986 15.3325 19.9727 15.2113 19.9456C13.6558 19.5975 7.41231 17.9527 1.20555 12.8339C0.792267 12.4929 0.585938 12.0067 0.585938 11.5203V9.05078H30.5727Z" fill="#365E7D"/>
<path d="M15.5793 9.05078V19.986C15.4562 19.986 15.3325 19.9727 15.2113 19.9456C13.6558 19.5975 7.41231 17.9527 1.20555 12.8339C0.792267 12.4929 0.585938 12.0067 0.585938 11.5203V9.05078H15.5793Z" fill="#2B4D66"/>
<path d="M15.9472 17.4759C17.5026 17.1282 23.7466 15.4833 29.9532 10.3642C30.7793 9.68285 30.7793 8.41964 29.9532 7.7383C23.7466 2.61921 17.5026 0.974279 15.9472 0.626543C15.7049 0.572402 15.4538 0.572402 15.2115 0.626543C13.6561 0.974279 7.41211 2.61921 1.20551 7.7383C0.379413 8.41964 0.379413 9.68285 1.20551 10.3642C7.41211 15.4833 13.6561 17.1282 15.2115 17.4759C15.4538 17.5301 15.705 17.5301 15.9472 17.4759Z" fill="#365E7D"/>
<path d="M15.5788 10.375C16.7312 10.375 17.6655 9.78213 17.6655 9.05078C17.6655 8.31944 16.7312 7.72656 15.5788 7.72656C14.4264 7.72656 13.4922 8.31944 13.4922 9.05078C13.4922 9.78213 14.4264 10.375 15.5788 10.375Z" fill="#F6E266"/>
<path d="M8.25113 22.4573C8.91784 22.4573 9.45832 21.9169 9.45832 21.2502C9.45832 20.5834 8.91784 20.043 8.25113 20.043C7.58442 20.043 7.04395 20.5834 7.04395 21.2502C7.04395 21.9169 7.58442 22.4573 8.25113 22.4573Z" fill="#F6E266"/>
<path d="M8.70137 22.3711C8.55831 22.4287 8.4055 22.4582 8.25129 22.458C7.58457 22.458 7.04395 21.9174 7.04395 21.2507C7.04395 20.5839 7.58457 20.0439 8.25129 20.0439C8.41059 20.0439 8.56199 20.0747 8.70137 20.1308C8.2573 20.3088 7.94418 20.7432 7.94418 21.2507C7.94418 21.7582 8.2573 22.1925 8.70137 22.3711Z" fill="#FFC250"/>
<path d="M9.86477 25.4554C9.86477 24.5645 9.14258 22.457 8.25172 22.457C7.36086 22.457 6.63867 24.5645 6.63867 25.4554C6.63867 26.3463 7.36086 27.0684 8.25172 27.0684C9.14258 27.0684 9.86477 26.3463 9.86477 25.4554Z" fill="#F6E266"/>
<path d="M8.25203 27.0694C7.36086 27.0694 6.63867 26.3472 6.63867 25.4561C6.63867 24.5655 7.36094 22.458 8.25203 22.458C7.93828 22.458 7.68367 24.5655 7.68367 25.4561C7.68367 26.3472 7.93828 27.0694 8.25203 27.0694Z" fill="#FFC250"/>
<path d="M29.272 36.2048L25.1522 35.1141L22.9358 38.7541L20.2295 32.0278L26.5657 29.4785L29.272 36.2048Z" fill="#DD636E"/>
<path d="M38.5334 26.9817L14.2164 36.7658L11.5745 30.1986L10.7715 28.2023L35.0877 18.419C35.7576 18.1494 36.6453 18.6508 37.4507 19.6365C37.942 20.2374 38.4019 21.0185 38.7623 21.9148C39.7133 24.2794 39.6107 26.5484 38.5334 26.9817Z" fill="#F9F6F6"/>
<path d="M37.4506 19.6365C37.3104 19.7916 37.1466 19.9091 36.9609 19.9844L11.5745 30.1986L10.7715 28.2023L35.0877 18.419C35.7575 18.1494 36.6452 18.6508 37.4506 19.6365Z" fill="#E7ECF6"/>
<path d="M14.2093 36.7792C15.2875 36.3462 15.3915 34.0778 14.4416 31.7126C13.4918 29.3474 11.8478 27.7811 10.7696 28.2141C9.69142 28.647 9.58738 30.9154 10.5372 33.2806C11.4871 35.6458 13.1311 37.2122 14.2093 36.7792Z" fill="#E7ECF6"/>
<path d="M28.7516 30.9171L22.6373 33.3772C23.7154 32.9439 23.818 30.675 22.8669 28.3105C22.5285 27.4706 22.103 26.731 21.6462 26.1465C20.8181 25.0857 19.8873 24.5349 19.1924 24.8146L25.3067 22.3545C26.0016 22.0748 26.9324 22.6256 27.7605 23.6864C28.2172 24.2709 28.6427 25.0105 28.9811 25.8504C29.9323 28.2148 29.8296 30.4838 28.7516 30.9171Z" fill="#DD636E"/>
<path d="M27.7605 23.6864L21.6462 26.1465C20.8181 25.0857 19.8873 24.5349 19.1924 24.8146L25.3067 22.3545C26.0016 22.0748 26.9324 22.6256 27.7605 23.6864Z" fill="#CB5769"/>
<path d="M39.3059 21.6962C38.1991 18.9457 36.2924 17.3033 34.8693 17.8752L27.0931 21.0039V15.6685C28.213 14.9334 29.2921 14.138 30.3257 13.2858C30.5865 13.0715 30.7964 12.8019 30.9404 12.4966C31.0844 12.1913 31.1588 11.8579 31.1584 11.5203V9.0508L31.1582 9.05088C31.1582 8.36596 30.8549 7.72251 30.3259 7.28548C24.0873 2.14029 17.8408 0.449738 16.0742 0.0540328C15.7479 -0.0180636 15.4098 -0.0180103 15.0836 0.054189C14.5105 0.182549 13.3108 0.484113 11.7151 1.06263C11.6427 1.08884 11.5762 1.12904 11.5194 1.18095C11.4626 1.23286 11.4166 1.29545 11.384 1.36515C11.3514 1.43485 11.3328 1.51029 11.3294 1.58717C11.3259 1.66404 11.3377 1.74084 11.3639 1.81318C11.3901 1.88552 11.4303 1.95199 11.4822 2.00878C11.5341 2.06558 11.5967 2.1116 11.6664 2.14421C11.7361 2.17682 11.8115 2.19538 11.8884 2.19884C11.9652 2.2023 12.042 2.19058 12.1144 2.16436C13.6488 1.6081 14.7938 1.32006 15.339 1.19795C15.4969 1.16243 15.6607 1.16237 15.8187 1.19779C17.5205 1.57896 23.5422 3.20983 29.5799 8.18947C29.8382 8.40283 29.9863 8.71682 29.9863 9.05096C29.9863 9.3851 29.8382 9.69909 29.5802 9.91221C23.5422 14.8922 17.5205 16.523 15.8195 16.904C15.6616 16.9394 15.4977 16.9395 15.3397 16.9041C14.3991 16.6934 12.1384 16.1005 9.28498 14.7719L14.1156 10.6576C14.5336 10.85 15.0348 10.961 15.5792 10.961C17.0778 10.961 18.2517 10.122 18.2517 9.05088C18.2517 7.97978 17.0778 7.14079 15.5792 7.14079C14.0805 7.14079 12.9065 7.97986 12.9065 9.05088C12.9065 9.36245 13.0064 9.65417 13.1841 9.91151L8.13536 14.2115C6.10316 13.1754 3.8419 11.7793 1.57845 9.91245C1.32009 9.69909 1.17196 9.3851 1.17196 9.05096C1.17196 8.71682 1.32009 8.40283 1.57814 8.1897C4.12518 6.08891 6.95934 4.34648 10.0017 3.01092C10.073 2.98057 10.1376 2.93637 10.1917 2.88089C10.2458 2.82541 10.2884 2.75974 10.3169 2.68769C10.3455 2.61564 10.3595 2.53865 10.3581 2.46116C10.3567 2.38367 10.3399 2.30723 10.3087 2.23627C10.2776 2.1653 10.2327 2.10122 10.1766 2.04774C10.1205 1.99426 10.0544 1.95243 9.98199 1.92469C9.90962 1.89694 9.83247 1.88383 9.75501 1.8861C9.67754 1.88838 9.60129 1.906 9.53068 1.93795C6.38949 3.31686 3.46307 5.11609 0.832272 7.28587C0.571751 7.5003 0.362007 7.76982 0.218137 8.07503C0.0742659 8.38023 -0.000152876 8.71354 0.000236402 9.05096V9.05119L2.02563e-06 9.05088V11.5204C-0.000447759 11.858 0.0740127 12.1915 0.218015 12.4968C0.362017 12.8021 0.571972 13.0716 0.832741 13.286C1.86635 14.1382 2.9455 14.9336 4.06542 15.6687V21.2519C4.06503 21.5213 4.12448 21.7875 4.23949 22.0311C4.35449 22.2748 4.52217 22.4898 4.73042 22.6608C5.26103 23.0976 5.80815 23.5139 6.37059 23.9088C6.1598 24.5146 6.05246 25.1086 6.05246 25.4555C6.05246 26.668 7.03895 27.6545 8.25146 27.6545C9.19646 27.6545 10.004 27.0554 10.3144 26.217C10.9171 26.506 11.5304 26.7722 12.153 27.015L10.5547 27.6582L10.5533 27.6586C9.13076 28.231 8.89263 30.7369 9.99936 33.4876C10.4901 34.7074 11.1754 35.7738 11.9287 36.4908C12.575 37.1057 13.2324 37.4242 13.8339 37.4241C14.0422 37.4241 14.2438 37.3859 14.4359 37.3086C14.4377 37.3079 14.4393 37.307 14.441 37.3063L20.7075 34.7849L22.3922 38.9721C22.4328 39.073 22.5007 39.1606 22.5882 39.2251C22.6757 39.2896 22.7794 39.3284 22.8878 39.3374C22.9961 39.3463 23.1048 39.3249 23.2017 39.2756C23.2985 39.2262 23.3798 39.1509 23.4363 39.0581L25.4251 35.7917L29.122 36.7704C29.2271 36.7982 29.3379 36.7963 29.4419 36.7647C29.546 36.7332 29.6392 36.6734 29.7111 36.5919C29.7831 36.5104 29.831 36.4105 29.8494 36.3034C29.8679 36.1963 29.8561 36.0861 29.8156 35.9853L28.1309 31.7983L34.1554 29.3738C34.2268 29.3451 34.2919 29.3026 34.3468 29.2487C34.4018 29.1949 34.4456 29.1307 34.4757 29.0599C34.5059 28.9891 34.5218 28.9131 34.5226 28.8361C34.5234 28.7592 34.509 28.6828 34.4803 28.6115C34.4516 28.5401 34.409 28.475 34.3552 28.4201C34.3013 28.3651 34.2372 28.3213 34.1664 28.2912C34.0956 28.261 34.0196 28.2451 33.9426 28.2443C33.8657 28.2435 33.7893 28.2579 33.7179 28.2866L30.1472 29.7233C30.3422 28.6333 30.1443 27.1707 29.5249 25.6312C29.0342 24.4115 28.3489 23.3449 27.5956 22.6281C27.4526 22.4916 27.3011 22.3644 27.142 22.2473L35.3069 18.9622C35.8806 18.7311 37.3008 19.8518 38.2189 22.1334C38.6485 23.201 38.8634 24.2708 38.8238 25.1456C38.793 25.8286 38.598 26.3235 38.3149 26.4374L35.8696 27.421C35.7263 27.4796 35.612 27.5925 35.5517 27.7351C35.4914 27.8777 35.49 28.0384 35.5478 28.182C35.6055 28.3256 35.7178 28.4406 35.8601 28.5017C36.0023 28.5628 36.163 28.5651 36.3069 28.5082L38.7523 27.5246C39.4991 27.2242 39.9403 26.3981 39.9945 25.1984C40.0413 24.16 39.7968 22.9161 39.3059 21.6962ZM15.5792 8.3126C16.4953 8.3126 17.0799 8.74986 17.0799 9.05088C17.0799 9.3519 16.4953 9.78917 15.5792 9.78917C14.6631 9.78917 14.0784 9.3519 14.0784 9.05088C14.0784 8.74986 14.6631 8.3126 15.5792 8.3126ZM15.579 18.1018C15.7457 18.1018 15.9125 18.0837 16.0749 18.0477C17.8088 17.6592 23.8621 16.0221 29.9866 11.0924V11.5204C29.9866 11.8548 29.8385 12.1689 29.5802 12.3819C23.5394 17.3638 17.5203 18.9931 15.8207 19.3735C15.6622 19.4089 15.4978 19.409 15.3392 19.3738C14.3503 19.1525 11.9014 18.5088 8.8374 17.0298V15.8541C11.7788 17.2187 14.1113 17.8298 15.0844 18.0478C15.2461 18.0838 15.4124 18.1018 15.579 18.1018ZM1.17188 11.5204V11.0924C3.41557 12.8985 5.64964 14.2626 7.66544 15.2852V16.4374C5.75777 15.429 3.66948 14.1065 1.57845 12.3819C1.45116 12.2774 1.34866 12.1458 1.27835 11.9969C1.20805 11.8479 1.17168 11.6852 1.17188 11.5204ZM5.47574 21.7566C5.4011 21.6954 5.34098 21.6184 5.29973 21.5311C5.25848 21.4438 5.23713 21.3485 5.23722 21.252V16.4073C6.02964 16.8866 6.8396 17.3362 7.66544 17.7553V19.5559C6.96371 19.7992 6.45832 20.4666 6.45832 21.2501C6.45832 21.778 6.68778 22.2532 7.052 22.5817C6.98988 22.6626 6.93146 22.7463 6.87692 22.8325C6.39768 22.49 5.93035 22.1312 5.47574 21.7566ZM8.25138 21.8713C7.9088 21.8713 7.6302 21.5927 7.6302 21.2501C7.6302 20.9075 7.9088 20.6288 8.25138 20.6288C8.59396 20.6288 8.87263 20.9075 8.87263 21.2501C8.87263 21.5927 8.59396 21.8713 8.25138 21.8713ZM8.25138 26.4827C7.68497 26.4827 7.22426 26.022 7.22426 25.4556C7.22426 24.5258 7.94653 23.0836 8.24958 23.0431H8.24981C8.5563 23.0838 9.27849 24.5259 9.27849 25.4556C9.27849 26.022 8.81779 26.4827 8.25138 26.4827ZM10.402 24.9554C10.2873 24.2546 9.96678 23.252 9.45076 22.5817C9.81506 22.2533 10.0445 21.7781 10.0445 21.2501C10.0445 20.4665 9.53912 19.7992 8.83732 19.5558V18.3242C11.7791 19.6891 14.1114 20.2999 15.0845 20.5177C15.2485 20.554 15.4136 20.5721 15.5789 20.5721C15.7445 20.5721 15.9103 20.5539 16.0752 20.5174C17.4193 20.2165 21.3612 19.1648 25.9212 16.4072V21.2517C25.9208 21.3352 25.9044 21.4177 25.8728 21.4949L13.79 26.3564C12.658 25.9855 11.5208 25.5152 10.402 24.9554ZM20.6733 25.9374C21.3079 26.5411 21.8939 27.4616 22.3233 28.529C23.2394 30.8057 22.9943 32.5942 22.4229 32.8316L15.612 35.572C15.807 34.482 15.6092 33.0194 14.9897 31.4798C14.4989 30.26 13.8137 29.1935 13.0603 28.4765C12.9174 28.3401 12.7659 28.2129 12.6067 28.0958L19.4144 25.3568C19.6975 25.2457 20.1796 25.4677 20.6733 25.9374ZM12.7364 35.642C12.1019 35.0382 11.5159 34.1177 11.0864 33.0503C10.1684 30.7687 10.4164 28.9772 10.9904 28.746H10.9905L10.9912 28.7458C11.0401 28.7261 11.0949 28.7165 11.1548 28.7165C11.4415 28.7165 11.843 28.9358 12.2525 29.3255C12.887 29.9293 13.4731 30.8498 13.9025 31.9172C14.8189 34.1949 14.5733 35.9841 14.0013 36.2201L13.9984 36.2213L13.9971 36.2219C13.7139 36.3349 13.2312 36.1128 12.7364 35.642ZM28.292 35.3387L25.3019 34.5471C25.1798 34.5148 25.0505 34.5228 24.9333 34.57C24.8161 34.6171 24.7173 34.7009 24.6516 34.8088L23.043 37.4506L21.7947 34.3478L22.8561 33.9208L22.8565 33.9206L27.0435 32.2359L28.292 35.3387ZM26.7876 23.4773C27.4221 24.081 28.0081 25.0014 28.4376 26.0689C29.3533 28.3449 29.1087 30.133 28.5377 30.3712L24.033 32.1837C24.228 31.0936 24.0298 29.631 23.4105 28.0917C22.9197 26.8719 22.2344 25.8054 21.4811 25.0885C21.3384 24.952 21.1873 24.8247 21.0285 24.7073L25.528 22.8969C25.8112 22.785 26.2935 23.0072 26.7876 23.4773Z" fill="black"/>
</svg>
