<svg width="37" height="40" viewBox="0 0 37 40" fill="none" xmlns="http://www.w3.org/2000/svg">
<path d="M36.4072 35.6282C36.2611 35.4822 36.0611 35.3933 35.8389 35.3933H34.9596V29.9711C35.8643 29.9711 36.5691 29.1933 36.4865 28.2949L34.0453 2.11419C33.9532 1.09515 33.0961 0.317383 32.0739 0.317383H6.18519C4.53441 0.317383 3.15347 1.57452 3.00109 3.21895L0.321748 32.1711C0.236034 34.2378 1.42015 36.3869 3.20744 36.9996H4.91219C5.11854 37.9425 5.46774 38.8345 5.96297 39.6822L7.7947 37.7457L9.62644 39.6822C10.1217 38.8345 10.4709 37.9425 10.6804 36.9996H35.8389C36.2834 36.9996 36.6421 36.6409 36.6421 36.1965C36.6421 35.9742 36.5532 35.7743 36.4072 35.6282Z" fill="#53B79A"/>
<path d="M34.9593 32.6826V35.3937H10.8992C10.9468 34.5239 10.8865 33.6191 10.7246 32.6826H34.9593Z" fill="#D6EAE8"/>
<path d="M4.86735 32.6818C4.70545 33.6215 4.64513 34.523 4.69275 35.3929H3.20705C1.55944 33.8342 1.10865 31.4786 2.83562 30.0247L34.9592 29.9707V32.6818H10.7245H4.86735Z" fill="#E7F2F1"/>
<path d="M29.1528 16.1613C29.267 17.8185 27.4385 18.6978 26.4353 17.4661L21.9179 11.9106V16.6724C21.9179 17.0502 21.7814 17.3931 21.5592 17.6407C21.337 17.8883 21.029 18.0407 20.6893 18.0407C20.0005 18.0407 19.4481 17.4089 19.4608 16.6407L19.6417 7.30109C19.6608 6.03443 21.1052 5.51698 21.7846 6.52967L26.3782 13.3709V7.07887C26.3782 6.78046 26.4988 6.51062 26.6925 6.31697C26.8861 6.12332 27.156 6.00269 27.4544 6.00269C28.0194 6.00269 28.4893 6.44078 28.5274 7.00585L29.1528 16.1613ZM16.8068 10.8185C17.075 10.8185 17.3322 10.925 17.5218 11.1147C17.7114 11.3043 17.8179 11.5615 17.8179 11.8296C17.8179 12.0978 17.7114 12.355 17.5218 12.5446C17.3322 12.7342 17.075 12.8407 16.8068 12.8407H11.0862L10.7942 15.4693H16.5306C17.2417 15.4693 17.8195 16.0439 17.8195 16.755C17.8195 17.4661 17.2417 18.0439 16.5306 18.0439H9.76879C8.86086 18.0439 8.15293 17.2566 8.25134 16.3518L9.22276 7.35823C9.26271 6.98357 9.43977 6.6369 9.7199 6.38491C10 6.13292 10.3634 5.99339 10.7402 5.99316H16.7814C17.3529 5.99316 17.8195 6.45983 17.8195 7.03125C17.8195 7.32014 17.7021 7.57728 17.5148 7.76458C17.3275 7.95505 17.0671 8.06934 16.7814 8.06934H11.6196L11.3116 10.8185H16.8068Z" fill="#FFC05A"/>
<path d="M10.7243 32.6826C10.8862 33.6191 10.9465 34.5239 10.8989 35.3937C10.8703 35.9429 10.7973 36.4794 10.6798 37C10.4703 37.9429 10.1211 38.8349 9.62588 39.6826L7.79415 37.7461L5.96241 39.6826C5.47294 38.8494 5.1183 37.944 4.91163 37C4.79417 36.4794 4.72115 35.9429 4.69258 35.3937C4.64496 34.5239 4.70528 33.6223 4.86718 32.6826H10.7243Z" fill="#E15C63"/>
<path d="M36.4865 28.2949C36.5063 28.5074 36.4816 28.7217 36.4138 28.9241C36.3461 29.1264 36.2369 29.3124 36.0932 29.4702C35.9494 29.6279 35.7744 29.754 35.5792 29.8402C35.384 29.9265 35.173 29.9711 34.9596 29.9711L2.83601 30.0251C1.10904 31.479 1.55983 33.8346 3.20744 35.3933H4.69314C4.72171 35.9425 4.79473 36.479 4.91219 36.9996H3.20744C1.42015 36.3869 0.236034 34.2378 0.321748 32.1711L0.588413 29.3013C0.588413 29.3013 1.46777 26.4505 5.72488 26.4505C8.73438 26.4505 20.2137 27.0124 26.6834 17.7141C27.712 18.5585 29.258 17.6918 29.1533 16.1617L28.9691 13.4474C30.3437 10.0475 31.1786 5.75861 31.1786 0.352303V0.317383H32.0739C33.0961 0.317383 33.9532 1.09515 34.0453 2.11419L36.4865 28.2949Z" fill="#4AAF8F"/>
<path d="M35.8384 35.0763H35.2775V30.2585C35.6817 30.1879 36.0512 29.9854 36.3283 29.6827C36.5013 29.492 36.6328 29.2674 36.7144 29.0231C36.796 28.7789 36.8259 28.5203 36.8022 28.2639L34.3622 2.08414C34.3113 1.51336 34.0479 0.982501 33.6243 0.596573C33.2007 0.210644 32.6477 -0.00224098 32.0746 3.03188e-05H6.18532C5.30834 -0.00361876 4.46198 0.322245 3.81389 0.913072C3.1658 1.5039 2.76325 2.31659 2.68598 3.19016L0.00505125 32.1576C-0.0927257 34.4483 1.23933 36.6597 3.10312 37.3013C3.13631 37.3128 3.17118 37.3187 3.2063 37.3188H4.66184C4.88199 38.2048 5.22805 39.0547 5.68945 39.8426C5.71434 39.8851 5.7488 39.9213 5.7901 39.9482C5.8314 39.9752 5.8784 39.9921 5.92738 39.9977C5.97636 40.0033 6.02597 39.9974 6.07229 39.9805C6.1186 39.9636 6.16035 39.9362 6.19421 39.9003L7.79483 38.2086L9.39641 39.9003C9.4302 39.9363 9.47193 39.9639 9.51826 39.9808C9.5646 39.9978 9.61426 40.0037 9.66328 39.9981C9.71231 39.9925 9.75935 39.9755 9.80064 39.9485C9.84194 39.9215 9.87636 39.8852 9.90116 39.8426C10.3628 39.0548 10.709 38.2049 10.9291 37.3188H35.8384C36.4565 37.3188 36.9597 36.8159 36.9597 36.1978C36.9597 35.5798 36.4565 35.0763 35.8384 35.0763ZM11.2269 35.0763C11.2326 34.8451 11.2285 34.6105 11.2199 34.3744H22.3601C22.4443 34.3744 22.5251 34.3409 22.5846 34.2814C22.6441 34.2218 22.6776 34.1411 22.6776 34.0569C22.6776 33.9727 22.6441 33.892 22.5846 33.8324C22.5251 33.7729 22.4443 33.7394 22.3601 33.7394H11.1812C11.1591 33.4922 11.1301 33.2457 11.0942 33.0001H34.6429V35.0763H11.2269ZM2.96058 32.3652C2.87639 32.3652 2.79564 32.3986 2.73611 32.4582C2.67657 32.5177 2.64313 32.5984 2.64313 32.6826C2.64313 32.7668 2.67657 32.8476 2.73611 32.9071C2.79564 32.9666 2.87639 33.0001 2.96058 33.0001H4.49644C4.39364 33.6872 4.34925 34.3817 4.36375 35.0763H3.33487C2.49202 34.2394 2.02694 33.2121 2.05551 32.241C2.07678 31.509 2.38725 30.855 2.95455 30.3423L34.6426 30.2893V30.9468H3.56439C3.48019 30.9468 3.39945 30.9802 3.33991 31.0398C3.28038 31.0993 3.24693 31.18 3.24693 31.2642C3.24693 31.3484 3.28038 31.4292 3.33991 31.4887C3.39945 31.5482 3.48019 31.5817 3.56439 31.5817H34.6426V32.3655H2.96058V32.3652ZM3.2609 36.6839C1.70377 36.1156 0.55584 34.1521 0.63838 32.2004L3.31836 3.24889C3.38169 2.53317 3.71149 1.86733 4.24245 1.38323C4.77341 0.899126 5.46681 0.63207 6.18532 0.634946H32.075C32.4897 0.633235 32.8899 0.787281 33.1964 1.06659C33.5029 1.3459 33.6934 1.73012 33.7302 2.14319L36.1702 28.323C36.2025 28.6681 36.0921 28.9992 35.8591 29.2557C35.626 29.5122 35.3067 29.6534 34.96 29.6541L2.83487 29.7077C2.76058 29.7077 2.6882 29.7344 2.63106 29.7823C1.86726 30.4249 1.44853 31.269 1.4206 32.2226C1.38568 33.408 1.95678 34.648 2.98788 35.6242C3.0468 35.6802 3.12502 35.7113 3.2063 35.7112H4.40025C4.42756 36.0407 4.47041 36.3648 4.52787 36.6835L3.2609 36.6839ZM9.55958 39.1489L8.02562 37.5286C7.90531 37.4023 7.68467 37.4023 7.56436 37.5286L6.03135 39.1489C5.08882 37.3483 4.79485 35.2813 5.14342 33.0001H10.4472C10.7961 35.2813 10.5024 37.348 9.55958 39.1489ZM35.8384 36.6839H11.0631C11.1205 36.3651 11.1631 36.041 11.1907 35.7115H35.8384C36.1067 35.7115 36.3248 35.9299 36.3248 36.1978C36.3248 36.4658 36.1067 36.6839 35.8384 36.6839Z" fill="#3A322B"/>
<path d="M9.76998 18.3605H16.5312C17.4163 18.3605 18.1363 17.6405 18.1363 16.7557C18.1363 15.871 17.4163 15.151 16.5312 15.151H11.149L11.3712 13.1577H16.8074C17.5401 13.1577 18.1359 12.5618 18.1359 11.8291C18.1359 11.0964 17.5401 10.5005 16.8074 10.5005H11.6674L11.903 8.38658H16.781C17.5283 8.38658 18.1363 7.77865 18.1363 7.03167C18.1363 6.2847 17.5283 5.67676 16.781 5.67676H10.7401C10.2851 5.67603 9.84591 5.84387 9.50735 6.1479C9.16879 6.45194 8.95484 6.8706 8.90681 7.3231L7.93634 16.3183C7.90869 16.5756 7.93549 16.836 8.01502 17.0823C8.09455 17.3286 8.22503 17.5555 8.39797 17.7481C8.57091 17.9407 8.78244 18.0947 9.01881 18.2003C9.25519 18.3058 9.51112 18.3604 9.76998 18.3605ZM8.56777 16.3872L9.53824 7.39199C9.56985 7.09533 9.71019 6.82088 9.93218 6.62157C10.1542 6.42226 10.4421 6.31221 10.7404 6.31263H16.781C17.1782 6.31263 17.5013 6.63549 17.5013 7.03263C17.5013 7.42977 17.1782 7.75262 16.781 7.75262H11.6192C11.5411 7.75261 11.4657 7.78138 11.4075 7.83345C11.3493 7.88552 11.3123 7.95722 11.3036 8.03484L10.9973 10.7837C10.9923 10.8281 10.9967 10.8731 11.0103 10.9156C11.0238 10.9582 11.0463 10.9974 11.0761 11.0307C11.1059 11.064 11.1423 11.0907 11.1831 11.1089C11.224 11.1271 11.2681 11.1365 11.3128 11.1364H16.8077C17.1899 11.1364 17.5013 11.4475 17.5013 11.83C17.5013 12.2126 17.1902 12.5237 16.8077 12.5237H11.0874C11.0093 12.5237 10.934 12.5525 10.8757 12.6045C10.8175 12.6566 10.7805 12.7283 10.7719 12.8059L10.4785 15.4341C10.4738 15.4785 10.4784 15.5233 10.4921 15.5658C10.5057 15.6082 10.5282 15.6473 10.5579 15.6805C10.5877 15.7137 10.6241 15.7404 10.6648 15.7586C10.7054 15.7769 10.7495 15.7864 10.7941 15.7865H16.5309C17.0658 15.7865 17.501 16.2218 17.501 16.7564C17.501 17.291 17.0658 17.7262 16.5309 17.7262H9.76998C9.60027 17.7261 9.43248 17.6903 9.27749 17.6212C9.1225 17.5521 8.98377 17.4511 8.8703 17.3249C8.75697 17.1985 8.67147 17.0498 8.61935 16.8882C8.56723 16.7266 8.54966 16.5559 8.56777 16.3872ZM20.6905 18.3592C21.5429 18.3592 22.2362 17.6021 22.2362 16.6713V12.804L26.1905 17.6662C26.5594 18.1198 27.0578 18.3617 27.5787 18.3617C27.794 18.3617 28.0127 18.3205 28.2279 18.2357C29.0352 17.9176 29.5343 17.0748 29.4705 16.1392L28.8438 6.98279C28.8186 6.63084 28.6613 6.30143 28.4035 6.06062C28.1456 5.81981 27.8062 5.68541 27.4533 5.68438C27.0838 5.6848 26.7296 5.83177 26.4683 6.09303C26.2071 6.3543 26.0601 6.70854 26.0597 7.07802V12.3281L22.047 6.352C21.6699 5.79041 21.0518 5.55423 20.4394 5.73613C19.7743 5.93232 19.3363 6.54406 19.3232 7.29389L19.1451 16.6364C19.1363 17.116 19.315 17.5789 19.6359 17.9062C19.9226 18.1979 20.2975 18.3592 20.6905 18.3592ZM19.9578 7.30532C19.9677 6.73739 20.3201 6.43295 20.6185 6.34501C20.9642 6.24311 21.2997 6.37835 21.5197 6.70596L26.114 13.5472C26.1519 13.6037 26.207 13.6464 26.2711 13.6692C26.3352 13.692 26.405 13.6936 26.4701 13.6738C26.5351 13.6539 26.5921 13.6137 26.6326 13.559C26.6731 13.5043 26.6949 13.4381 26.6949 13.37V7.07802C26.6952 6.87687 26.7752 6.68404 26.9174 6.5418C27.0597 6.39957 27.2525 6.31955 27.4536 6.3193C27.8508 6.3193 28.1835 6.62977 28.2105 7.02628L28.8371 16.1827C28.893 16.9954 28.4187 17.4786 27.9956 17.6452C27.52 17.8325 27.0295 17.6913 26.6832 17.2659L22.1654 11.7104C22.1241 11.6595 22.0681 11.6227 22.0049 11.605C21.9418 11.5873 21.8748 11.5896 21.8131 11.6116C21.7513 11.6336 21.6979 11.6742 21.6601 11.7277C21.6223 11.7812 21.602 11.8452 21.6019 11.9107V16.6713C21.6019 17.2519 21.1934 17.7243 20.6912 17.7243C20.4699 17.7243 20.2562 17.631 20.0896 17.4611C19.887 17.2548 19.7747 16.9586 19.7804 16.6481L19.9578 7.30532Z" fill="#3A322B"/>
</svg>
