<svg width="39" height="40" viewBox="0 0 39 40" fill="none" xmlns="http://www.w3.org/2000/svg">
<path d="M23.9065 7.41551C23.9065 7.41551 27.7393 2.44098 26.6372 1.01387C26.2616 0.527539 25.9412 1.18801 25.1645 1.18801C24.2517 1.18801 24.2517 0.59082 23.3389 0.59082C22.4262 0.59082 22.4262 1.18801 21.5136 1.18801C20.601 1.18801 20.601 0.59082 19.6884 0.59082C18.7759 0.59082 18.7759 1.18801 17.8632 1.18801C17.0855 1.18801 16.7665 0.518945 16.3884 1.00551C15.2857 2.42473 19.0625 7.41543 19.0625 7.41543C2.38242 18.3809 7.76062 33.2935 17.6088 33.2935H25.4192C35.2971 33.2935 40.642 18.4173 23.9065 7.41551Z" fill="#EABC6B"/>
<path d="M23.9061 7.41551C23.9061 7.41551 27.7389 2.44098 26.6368 1.01387C26.2612 0.527539 25.9409 1.18801 25.1641 1.18801C24.2514 1.18801 24.2514 0.59082 23.3386 0.59082C22.4259 0.59082 22.4259 1.18801 21.5132 1.18801C21.4683 1.18801 21.4272 1.18551 21.3865 1.1827C21.0198 2.75457 19.3673 5.20348 18.4217 6.51465C18.7941 7.06113 19.0621 7.41543 19.0621 7.41543C18.8423 7.56014 18.624 7.70715 18.4072 7.85645C34.3439 18.8104 29.0114 33.2934 19.2649 33.2934H25.4189C35.2968 33.2935 40.6417 18.4173 23.9061 7.41551Z" fill="#E8AE4D"/>
<path d="M24.6193 9.18449C22.3922 9.74692 20.1919 9.74699 17.9644 9.18449C17.1891 8.98871 16.7496 8.11692 17.0286 7.32449L17.038 7.29793C17.2719 6.63356 17.9353 6.26074 18.5856 6.42395C20.4093 6.88184 22.174 6.88192 23.9982 6.42395C24.6485 6.26067 25.3118 6.63356 25.5458 7.29793L25.5552 7.32449C25.8341 8.11699 25.3946 8.98871 24.6193 9.18449Z" fill="#FFE07D"/>
<path d="M3.67871 35.852L12.1604 39.0091C12.8808 39.2772 13.6432 39.4145 14.4118 39.4145H23.1529C24.3762 39.4144 25.5742 39.0668 26.6075 38.4121L37.5522 31.4769C38.2743 30.8357 38.4082 29.7581 37.8649 28.9598C37.2705 28.0863 36.2872 27.9344 35.2053 28.446L24.5496 33.1378L24.5621 31.409C24.4211 29.99 23.3285 28.8512 21.9165 28.6513L15.4275 27.9042C13.9307 27.6924 13.1826 27.1908 11.8777 26.4274C10.0961 25.3852 8.06929 24.8359 6.00527 24.8359H3.67871V35.852Z" fill="#FFDDCE"/>
<path d="M3.67871 35.852L12.1604 39.0091C12.8808 39.2772 13.6432 39.4145 14.4118 39.4145H23.1529C24.3762 39.4144 25.5742 39.0668 26.6075 38.4121L37.5522 31.4769C38.2743 30.8357 38.4082 29.7581 37.8649 28.9598C37.2705 28.0863 36.2872 27.9344 35.2053 28.446L24.5496 33.1378L24.5621 31.409C24.4211 29.99 23.3285 28.8512 21.9165 28.6513L15.4275 27.9042C13.9307 27.6924 13.1826 27.1908 11.8777 26.4274C10.0961 25.3852 8.06929 24.8359 6.00527 24.8359H3.67871V35.852Z" fill="#FFDDCE"/>
<path d="M37.8649 28.9597C37.2705 28.0862 36.2872 27.9343 35.2053 28.446L32.2743 29.7365C32.4163 29.9612 32.5292 30.1405 32.5292 30.1405C33.0724 30.9389 32.9386 32.0164 32.2165 32.6576L25.8393 36.6986C24.9963 37.0847 24.0801 37.2847 23.1529 37.2849H14.4118C13.6432 37.2849 12.8808 37.1476 12.1604 36.8795L3.67871 33.7225V35.852L12.1604 39.009C12.8808 39.2771 13.6432 39.4144 14.4118 39.4144H23.1529C24.3762 39.4144 25.5742 39.0668 26.6075 38.4121L37.5522 31.4769C38.2743 30.8357 38.4082 29.7581 37.8649 28.9597Z" fill="#FFCBBE"/>
<path d="M23.7669 29.6279L23.7666 29.6696L23.7941 29.6575C23.7853 29.6475 23.776 29.6378 23.7669 29.6279Z" fill="#F5DBCC"/>
<path d="M5.50383 37.5416C5.50383 38.157 5.00492 38.6559 4.38953 38.6559H1.70023C1.08484 38.6559 0.585938 38.157 0.585938 37.5416V23.8975C0.585938 23.2821 1.08484 22.7832 1.70023 22.7832H4.38953C5.00492 22.7832 5.50383 23.2821 5.50383 23.8975V37.5416Z" fill="#407093"/>
<path d="M38.3492 28.6301C37.603 27.5335 36.3373 27.2658 34.9623 27.9128L34.2336 28.2337C35.3827 25.7845 35.5252 23.0542 34.9532 20.4753C34.2962 17.5134 32.7095 14.644 30.237 11.9469C30.185 11.8902 30.1223 11.8442 30.0526 11.8117C29.9828 11.7792 29.9074 11.7608 29.8305 11.7575C29.7537 11.7541 29.6769 11.766 29.6046 11.7923C29.5323 11.8186 29.4659 11.8589 29.4092 11.9109C29.3525 11.9629 29.3066 12.0256 29.2741 12.0953C29.2416 12.165 29.2231 12.2405 29.2198 12.3174C29.2165 12.3942 29.2283 12.471 29.2546 12.5433C29.281 12.6156 29.3213 12.682 29.3733 12.7387C31.705 15.2821 33.1975 17.9705 33.8094 20.729C34.4538 23.6347 34.0789 26.6313 32.4343 29.0259L25.142 32.2367L25.148 31.4131C25.1481 31.3923 25.1472 31.3716 25.1451 31.3509C25.0647 30.5277 24.7088 29.7558 24.135 29.1602C23.5611 28.5646 22.803 28.1802 21.9834 28.0692L15.5021 27.323C13.0098 26.9682 12.368 25.4747 8.99266 24.6231C8.75945 22.6441 9.07031 20.5372 9.92234 18.4249C11.2055 15.2438 13.7159 12.1532 17.1961 9.46313C18.4932 10.3828 24.2802 10.4973 25.5752 9.31086C26.2386 9.81469 26.8718 10.3339 27.4616 10.8595C27.5688 10.9552 27.7075 11.0081 27.8512 11.0079C27.9699 11.0079 28.0858 10.9718 28.1836 10.9045C28.2814 10.8371 28.3564 10.7416 28.3987 10.6306C28.4409 10.5197 28.4485 10.3985 28.4203 10.2831C28.3922 10.1678 28.3297 10.0637 28.241 9.98469C27.5945 9.40868 26.899 8.84032 26.1695 8.29102C26.3405 7.56618 26.1012 6.71782 25.47 6.21282C27.3043 3.43063 27.8378 1.60961 27.1009 0.655552C26.5947 0.000161827 25.965 0.30774 25.6961 0.439146C25.2403 0.661646 24.9918 0.673365 24.5724 0.39899C23.7723 -0.124526 22.9314 -0.141401 22.1055 0.39899C21.6809 0.676881 21.3464 0.676881 20.9219 0.39899C20.1217 -0.124526 19.2811 -0.141401 18.4551 0.39899C18.0309 0.676646 17.7814 0.659459 17.3328 0.43649C17.0642 0.302974 16.4352 -0.00968195 15.9259 0.645787C15.2055 1.57297 15.6874 3.33657 17.398 6.02415C17.2927 6.08101 17.193 6.14766 17.1002 6.22321C16.4198 5.50477 15.3052 4.75547 13.6934 4.93547C12.3564 5.08508 11.3705 4.64329 10.7788 4.24641C10.6498 4.16361 10.4934 4.1347 10.3432 4.16589C10.1931 4.19709 10.0612 4.2859 9.97577 4.41326C9.89036 4.54063 9.8583 4.6964 9.88645 4.84714C9.9146 4.99788 10.0007 5.13158 10.1263 5.21954C10.8806 5.72524 12.1342 6.28821 13.8234 6.09985C15.0687 5.96016 15.9137 6.59657 16.4397 7.24422C16.4325 7.26922 16.4259 7.29438 16.4197 7.31954C15.971 7.32657 15.3005 7.36844 14.562 7.52204C12.7861 7.89149 11.4678 8.73547 10.7496 9.96297C10.7089 10.0294 10.6819 10.1033 10.6702 10.1804C10.6584 10.2574 10.6621 10.336 10.6811 10.4116C10.7001 10.4871 10.734 10.5582 10.7807 10.6205C10.8275 10.6828 10.8862 10.7352 10.9535 10.7745C11.0207 10.8139 11.0952 10.8394 11.1724 10.8497C11.2496 10.8599 11.3282 10.8546 11.4033 10.8342C11.4785 10.8137 11.5489 10.7784 11.6103 10.7304C11.6716 10.6825 11.7228 10.6227 11.7609 10.5547C12.8291 8.72899 15.4367 8.50571 16.4724 8.49172C16.4769 8.50461 16.4821 8.51735 16.4868 8.53016C12.7909 11.3812 10.2177 14.5606 8.83586 17.9864C7.96242 20.1518 7.61352 22.3212 7.79063 24.3828C7.22736 24.2993 6.65894 24.2553 6.08953 24.2512V23.8969C6.08953 22.9595 5.32687 22.1969 4.38945 22.1969H1.70008C0.762656 22.1969 0 22.9595 0 23.8969V37.5409C0 38.4784 0.762656 39.241 1.70008 39.241H4.38937C5.3268 39.241 6.08945 38.4784 6.08945 37.5409V37.3741L11.9559 39.5576C12.7415 39.8505 13.5733 40.0002 14.4117 39.9998H23.1528C24.4872 40.0003 25.7942 39.6211 26.921 38.9064C38.5819 31.5142 37.8737 31.9741 37.9411 31.9145C38.8804 31.0807 39.0559 29.6687 38.3492 28.6301ZM24.4758 8.61665C22.3334 9.15758 20.2505 9.15758 18.1077 8.61665C17.1882 8.38422 17.4546 6.74438 18.4427 6.99219C20.3598 7.47344 22.2235 7.47344 24.1407 6.99219C25.1116 6.74844 25.41 8.38055 24.4758 8.61665ZM16.7977 1.47907L16.8113 1.48586C17.6042 1.87993 18.299 1.90133 19.0966 1.37954C20.0947 0.726177 20.203 1.77376 21.5136 1.77376C22.1445 1.77376 22.4927 1.54594 22.747 1.37954C23.1717 1.10157 23.5063 1.10172 23.9309 1.37954C24.732 1.90376 25.41 1.8779 26.2259 1.48438C26.3465 1.91891 26.0737 3.2143 24.3365 5.80071C23.4738 5.78602 22.222 6.63329 18.678 5.84461C16.9446 3.22477 16.6766 1.9168 16.7977 1.47907ZM37.195 31.0095L26.2939 37.9171C25.3546 38.5129 24.2652 38.829 23.1529 38.8285H14.4118C13.7129 38.8289 13.0196 38.7041 12.3647 38.4599L6.08945 36.1241V29.8152C6.08945 29.6598 6.02774 29.5108 5.91788 29.401C5.80803 29.2911 5.65903 29.2294 5.50367 29.2294C5.34831 29.2294 5.19932 29.2911 5.08946 29.401C4.97961 29.5108 4.91789 29.6598 4.91789 29.8152V37.5413C4.91773 37.6814 4.862 37.8157 4.76293 37.9147C4.66387 38.0138 4.52955 38.0695 4.38945 38.0697H1.70008C1.55998 38.0695 1.42566 38.0138 1.3266 37.9147C1.22753 37.8157 1.17181 37.6814 1.17164 37.5413V23.8972C1.17179 23.7571 1.22751 23.6228 1.32658 23.5237C1.42565 23.4247 1.55998 23.369 1.70008 23.3688H4.38937C4.52947 23.369 4.66378 23.4247 4.76285 23.5237C4.86192 23.6228 4.91765 23.7571 4.91781 23.8972V27.0764C4.91781 27.2318 4.97953 27.3808 5.08938 27.4906C5.19924 27.6005 5.34823 27.6622 5.50359 27.6622C5.65895 27.6622 5.80795 27.6005 5.9178 27.4906C6.02766 27.3808 6.08938 27.2318 6.08938 27.0764V25.4231C10.9355 25.4602 12.0252 28.0145 15.3453 28.4841C15.3503 28.4849 15.3553 28.4856 15.3603 28.4861L21.8413 29.2323C22.3915 29.3107 22.8999 29.57 23.2864 29.9692C23.6729 30.3685 23.9155 30.8851 23.9759 31.4375L23.9678 32.5519H17.9237C17.7699 32.5544 17.6234 32.6172 17.5156 32.7268C17.4077 32.8364 17.3473 32.984 17.3473 33.1377C17.3473 33.2915 17.4077 33.4391 17.5156 33.5487C17.6234 33.6583 17.7699 33.7211 17.9237 33.7236H24.5494C24.6234 33.7236 24.7088 33.7072 24.7832 33.6748L35.4412 28.9822C36.2077 28.6416 36.9065 28.5929 37.3804 29.2893C37.7488 29.8305 37.6673 30.5621 37.195 31.0095Z" fill="black"/>
<path d="M21.4462 26.5801C21.6016 26.5801 21.7506 26.5183 21.8605 26.4085C21.9704 26.2986 22.0321 26.1496 22.0321 25.9942V25.0231C23.6767 24.7562 24.6363 23.4251 24.8451 22.1832C25.1059 20.6319 24.2933 19.2827 22.775 18.7461C22.5261 18.6584 22.2784 18.5674 22.032 18.473V14.7377C22.7251 14.8526 23.1412 15.2113 23.1715 15.238C23.2865 15.3406 23.4372 15.3937 23.5911 15.3859C23.7449 15.3781 23.8895 15.3101 23.9935 15.1964C24.0976 15.0828 24.1527 14.9328 24.1469 14.7788C24.1411 14.6249 24.0749 14.4794 23.9627 14.3739C23.9213 14.3358 23.2038 13.6898 22.032 13.5547V12.7216C22.032 12.5662 21.9703 12.4172 21.8604 12.3073C21.7506 12.1975 21.6016 12.1357 21.4462 12.1357C21.2908 12.1357 21.1418 12.1975 21.032 12.3073C20.9221 12.4172 20.8604 12.5662 20.8604 12.7216V13.602C20.7191 13.6291 20.5744 13.6634 20.4258 13.7082C19.432 14.0075 18.6892 14.8596 18.4871 15.9319C18.3037 16.9049 18.6123 17.8407 19.2922 18.374C19.6826 18.6802 20.174 18.9605 20.8604 19.2602V23.893C20.1829 23.8644 19.7659 23.7372 19.0384 23.2613C18.974 23.2191 18.9019 23.1901 18.8263 23.1758C18.7507 23.1616 18.6731 23.1623 18.5978 23.1781C18.5225 23.1938 18.451 23.2242 18.3875 23.2676C18.3239 23.3109 18.2695 23.3664 18.2274 23.4308C18.1853 23.4952 18.1563 23.5672 18.142 23.6428C18.1277 23.7184 18.1285 23.7961 18.1442 23.8714C18.16 23.9467 18.1904 24.0181 18.2338 24.0817C18.2771 24.1452 18.3326 24.1996 18.3969 24.2417C19.3533 24.8673 19.9926 25.0305 20.8604 25.0643V25.9942C20.8604 26.0712 20.8755 26.1473 20.905 26.2184C20.9344 26.2895 20.9776 26.3541 21.032 26.4085C21.0864 26.4629 21.151 26.5061 21.222 26.5355C21.2931 26.5649 21.3693 26.5801 21.4462 26.5801ZM20.0153 17.4521C19.6809 17.1898 19.5364 16.6904 19.6385 16.1489C19.7332 15.6467 20.0784 15.0366 20.7637 14.8302C20.7963 14.8203 20.8284 14.8119 20.8604 14.8033V17.9677C20.5096 17.7926 20.2345 17.6241 20.0153 17.4521ZM22.3845 19.8508C23.8423 20.366 23.752 21.6177 23.6896 21.9891C23.5604 22.7579 22.996 23.5787 22.032 23.8257V19.7238C22.1461 19.7655 22.2626 19.8077 22.3845 19.8508Z" fill="black"/>
</svg>
