<svg width="40" height="40" viewBox="0 0 40 40" fill="none" xmlns="http://www.w3.org/2000/svg">
<mask id="mask0_1_1187" style="mask-type:luminance" maskUnits="userSpaceOnUse" x="0" y="0" width="40" height="40">
<path d="M0 0.000118256H39.9999V40H0V0.000118256Z" fill="white"/>
</mask>
<g mask="url(#mask0_1_1187)">
<path d="M16.5875 30.3545L5.04763 18.8146C0.893344 14.6603 0.799672 7.89511 4.9395 3.72645C8.9484 -0.310257 15.3857 -0.454941 19.5688 3.29239C19.6871 3.39837 19.8404 3.45697 19.9992 3.45697C20.1581 3.45697 20.3114 3.39837 20.4297 3.29239C24.6127 -0.454941 31.0501 -0.310257 35.0589 3.72645C39.1988 7.89511 39.1051 14.6603 34.9508 18.8146L23.4109 30.3545V32.2959H16.5875V30.3545Z" fill="#FC5B5B"/>
<path d="M15.6226 21.9059L12.8175 16.2958C12.7906 16.2421 12.7493 16.1969 12.6982 16.1653C12.6471 16.1337 12.5882 16.117 12.5281 16.117H7.70375C7.53212 16.117 7.36753 16.0488 7.24617 15.9274C7.12482 15.8061 7.05664 15.6415 7.05664 15.4699V14.1756C7.05663 14.0906 7.07336 14.0064 7.10588 13.9279C7.13839 13.8494 7.18606 13.7781 7.24615 13.718C7.30624 13.6579 7.37758 13.6102 7.4561 13.5777C7.53461 13.5452 7.61877 13.5284 7.70375 13.5285H13.9279C14.0481 13.5285 14.1659 13.5619 14.2681 13.6251C14.3704 13.6883 14.453 13.7787 14.5067 13.8862L15.6149 16.1026C15.7413 16.3553 16.1081 16.336 16.2073 16.0715L19.2877 7.85714C19.4829 7.33683 20.1999 7.28824 20.4634 7.77761L24.3204 14.9406C24.4393 15.1615 24.7536 15.1688 24.8827 14.9536L25.5493 13.8427C25.6068 13.7468 25.6881 13.6675 25.7854 13.6124C25.8826 13.5574 25.9925 13.5284 26.1042 13.5285H32.2948C32.4665 13.5285 32.6311 13.5966 32.7524 13.718C32.8738 13.8393 32.942 14.0039 32.942 14.1756V15.4699C32.9419 15.6415 32.8738 15.8061 32.7524 15.9274C32.631 16.0488 32.4665 16.1169 32.2948 16.117H27.3867C27.3308 16.117 27.2759 16.1314 27.2272 16.159C27.1786 16.1865 27.1379 16.2262 27.1092 16.2741L25.0537 19.6998C24.7956 20.1302 24.167 20.1155 23.929 19.6737L20.5484 13.3953C20.4166 13.1506 20.0581 13.1749 19.9605 13.4351L16.8073 21.8437C16.6089 22.3728 15.8752 22.4113 15.6226 21.9059Z" fill="#E3F5FF"/>
<path d="M35.0596 3.72645C32.7515 1.4024 29.6386 0.368807 26.6144 0.624821C29.0397 0.829273 31.4084 1.86271 33.2594 3.72645C37.3993 7.89503 37.3056 14.6603 33.1512 18.8146L21.6113 30.3545V32.2959H23.4116V30.3545L34.9514 18.8146C39.1057 14.6603 39.1994 7.89503 35.0596 3.72645Z" fill="#E64040"/>
<path d="M32.2953 13.5287H30.4951C30.5801 13.5287 30.6643 13.5454 30.7428 13.5779C30.8213 13.6105 30.8926 13.6581 30.9527 13.7182C31.0128 13.7783 31.0605 13.8497 31.093 13.9282C31.1255 14.0067 31.1422 14.0909 31.1422 14.1759V15.4701C31.1422 15.5551 31.1255 15.6392 31.093 15.7177C31.0604 15.7962 31.0128 15.8676 30.9527 15.9277C30.8926 15.9877 30.8213 16.0354 30.7428 16.0679C30.6642 16.1004 30.5801 16.1172 30.4951 16.1172H32.2953C32.3803 16.1172 32.4644 16.1005 32.5429 16.068C32.6214 16.0354 32.6928 15.9878 32.7529 15.9277C32.813 15.8676 32.8606 15.7962 32.8931 15.7177C32.9257 15.6392 32.9424 15.5551 32.9424 15.4701V14.1759C32.9424 14.0909 32.9257 14.0067 32.8931 13.9282C32.8606 13.8497 32.813 13.7783 32.7529 13.7182C32.6928 13.6581 32.6214 13.6105 32.5429 13.5779C32.4644 13.5454 32.3803 13.5287 32.2953 13.5287Z" fill="#C5E6F0"/>
<path d="M5.91893 37.4727H3.12988C2.43949 37.4727 1.87988 36.913 1.87988 36.2227V28.3685C1.87988 27.6782 2.43949 27.1185 3.12988 27.1185H5.91893V37.4727Z" fill="#3D4566"/>
<path d="M3.96289 37.4727H5.91929V27.1185H3.96289V37.4727Z" fill="#2E2E4D"/>
<path d="M12.2783 39.4141H7.01269C6.32238 39.4141 5.7627 38.8544 5.7627 38.1641V26.4271C5.7627 25.7368 6.32238 25.1772 7.01269 25.1772H12.2783C12.9687 25.1772 13.5283 25.7368 13.5283 26.4271V38.1641C13.5283 38.8544 12.9687 39.4141 12.2783 39.4141Z" fill="#4D5E80"/>
<path d="M27.0784 34.2373H12.9199V30.3545H27.0784V34.2373Z" fill="#E3F5FF"/>
<path d="M12.2787 25.1772H10.4785C11.1688 25.1772 11.7285 25.7368 11.7285 26.4271V38.1641C11.7285 38.8545 11.1688 39.4141 10.4785 39.4141H12.2787C12.9691 39.4141 13.5287 38.8545 13.5287 38.1641V26.4271C13.5287 25.7368 12.9691 25.1772 12.2787 25.1772Z" fill="#3D4566"/>
<path d="M24.6709 34.2373H27.079V30.3545H24.6709V34.2373Z" fill="#C5E6F0"/>
<path d="M34.0801 27.1185H36.8691C37.5595 27.1185 38.1191 27.6782 38.1191 28.3685V36.2227C38.1191 36.913 37.5595 37.4727 36.8691 37.4727H34.0801V27.1185Z" fill="#3D4566"/>
<path d="M36.8695 27.1185H35.0693C35.7596 27.1185 36.3193 27.6782 36.3193 28.3685V36.2227C36.3193 36.913 35.7596 37.4727 35.0693 37.4727H36.8695C37.5599 37.4727 38.1195 36.913 38.1195 36.2227V28.3685C38.1195 27.6782 37.5599 27.1185 36.8695 27.1185Z" fill="#2E2E4D"/>
<path d="M34.2363 27.1186V26.4271C34.2363 25.7368 33.6766 25.1772 32.9863 25.1772H27.7207C27.0303 25.1772 26.4707 25.7368 26.4707 26.4271V38.1641C26.4707 38.8545 27.0303 39.4141 27.7207 39.4141H32.9863C33.6766 39.4141 34.2363 38.8545 34.2363 38.1641V37.4727L33.3401 32.2956L34.2363 27.1186Z" fill="#4D5E80"/>
<path d="M32.9867 25.1772H31.1865C31.8768 25.1772 32.4365 25.7368 32.4365 26.4271V38.1641C32.4365 38.8545 31.8768 39.4141 31.1865 39.4141H32.9867C33.677 39.4141 34.2367 38.8545 34.2367 38.1641V26.4271C34.2367 25.7368 33.677 25.1772 32.9867 25.1772Z" fill="#3D4566"/>
</g>
</svg>
