<svg width="40" height="40" viewBox="0 0 40 40" fill="none" xmlns="http://www.w3.org/2000/svg">
<g clip-path="url(#clip0_1_1537)">
<path d="M39.7637 19.2684L37.0027 15.4424L37.4837 10.7507C37.5106 10.489 37.4542 10.2255 37.3226 9.99775C37.1909 9.76998 36.9908 9.58954 36.7507 9.48211L32.4447 7.55555L30.5184 3.24923C30.4109 3.00922 30.2305 2.80921 30.0028 2.67761C29.7751 2.54601 29.5117 2.48953 29.2501 2.51618L24.5562 2.99688L20.7311 0.236187C20.5181 0.0826316 20.2622 0 19.9996 0C19.737 0 19.4811 0.0826316 19.2681 0.236187L15.443 2.99681L10.75 2.5161C10.4884 2.48972 10.2251 2.54635 9.99748 2.67798C9.76984 2.80961 9.58941 3.00955 9.48176 3.24946L7.55583 7.55547L3.24951 9.48148C3.00938 9.58883 2.80922 9.76921 2.67755 9.99692C2.54588 10.2246 2.4894 10.4881 2.51615 10.7498L2.99686 15.4433L0.23647 19.2684C0.082791 19.4814 5.612e-05 19.7373 2.85399e-08 19.9999C-5.60629e-05 20.2625 0.0825694 20.5185 0.236158 20.7315L2.99709 24.5572L2.5167 29.2504C2.48994 29.5121 2.54638 29.7755 2.67799 30.0032C2.8096 30.2309 3.00968 30.4113 3.24975 30.5187L7.55513 32.4444L9.48169 36.751C9.70208 37.2433 10.2157 37.5384 10.75 37.4841L15.4429 37.0037L19.268 39.7637C19.4809 39.9173 19.7369 40 19.9995 39.9999C20.2558 39.9999 20.5124 39.9211 20.7307 39.7637L24.5567 37.0037L29.2502 37.4838C29.512 37.5108 29.7756 37.4545 30.0033 37.3228C30.2311 37.1911 30.4114 36.9907 30.5185 36.7504L32.4445 32.445L36.7505 30.5187C36.9906 30.4113 37.1906 30.2308 37.3222 30.0032C37.4538 29.7755 37.5103 29.5121 37.4836 29.2504L37.0029 24.5572L39.7635 20.7315C39.9171 20.5185 39.9998 20.2626 39.9998 20C39.9999 19.7374 39.9172 19.4814 39.7637 19.2684Z" fill="#F34336"/>
<path d="M39.7639 19.2685L37.0029 15.4425L37.4839 10.7507C37.5108 10.489 37.4544 10.2256 37.3228 9.99779C37.1911 9.77002 36.991 9.58958 36.7509 9.48215L32.4449 7.55558L30.5186 3.24926C30.4111 3.00925 30.2306 2.80924 30.003 2.67764C29.7753 2.54604 29.5119 2.48955 29.2503 2.51621L25.4463 2.90566C25.5401 3.00543 25.6207 3.11933 25.6788 3.24926L27.6051 7.55558L31.9111 9.48215C32.1513 9.58959 32.3514 9.77003 32.483 9.9978C32.6146 10.2256 32.671 10.4891 32.6442 10.7507L32.1632 15.4425L34.9241 19.2685C35.0777 19.4815 35.1603 19.7374 35.1603 20C35.1603 20.2626 35.0777 20.5185 34.9241 20.7315L32.1635 24.5572L32.6442 29.2505C32.6709 29.5121 32.6144 29.7755 32.4828 30.0032C32.3512 30.2309 32.1512 30.4113 31.9111 30.5188L27.6051 32.4451L25.6791 36.7505C25.6208 36.8808 25.5403 36.995 25.4463 37.0947L29.2506 37.4839C29.5123 37.5109 29.7759 37.4546 30.0037 37.3229C30.2315 37.1912 30.4118 36.9908 30.5189 36.7505L32.4449 32.4451L36.7509 30.5188C36.9909 30.4113 37.191 30.2309 37.3226 30.0032C37.4542 29.7755 37.5107 29.5121 37.4839 29.2505L37.0032 24.5572L39.7639 20.7315C39.9174 20.5185 40.0001 20.2626 40.0001 20C40.0001 19.7374 39.9174 19.4815 39.7639 19.2685Z" fill="#D22F2F"/>
<path d="M10.5353 15.4036H6.875C6.35711 15.4036 5.9375 15.8232 5.9375 16.3411V23.6592C5.9375 24.1771 6.35711 24.5967 6.875 24.5967C7.39281 24.5967 7.8125 24.1771 7.8125 23.6592V20.9374H9.80227C10.3202 20.9374 10.7398 20.5174 10.7398 19.9999C10.7398 19.4824 10.3202 19.0624 9.80227 19.0624H7.8125V17.2786H10.5353C11.0532 17.2786 11.4728 16.859 11.4728 16.3411C11.4728 15.8232 11.0532 15.4036 10.5353 15.4036ZM25.5957 17.2777C26.1136 17.2774 26.5329 16.8574 26.5329 16.3395C26.5326 15.822 26.113 15.4026 25.5954 15.4026H25.5951L21.9357 15.4035C21.4181 15.4038 20.9985 15.8234 20.9985 16.341V23.66C20.9987 23.9086 21.0975 24.147 21.2733 24.3228C21.4491 24.4986 21.6875 24.5974 21.9361 24.5976H21.9364L25.5958 24.5963C26.1137 24.5963 26.533 24.1764 26.533 23.6585C26.5327 23.1409 26.113 22.7213 25.5955 22.7213H25.5952L22.8736 22.722V20.9374L24.8634 20.937C25.3809 20.9367 25.8005 20.5171 25.8005 19.9992C25.8005 19.4817 25.3806 19.062 24.863 19.062H24.8627L22.8736 19.0624V17.2783L25.5957 17.2777ZM33.125 22.7214L30.4031 22.7217V20.9374L32.3929 20.937C32.9108 20.9367 33.3304 20.5171 33.3304 19.9992C33.3304 19.4817 32.9105 19.0617 32.3929 19.062L30.4031 19.0624V17.2783L33.1253 17.2777C33.6432 17.2774 34.0628 16.8574 34.0625 16.3395C34.0622 15.822 33.6426 15.4026 33.125 15.4026H33.1247L29.4653 15.4035C28.9477 15.4038 28.5281 15.8234 28.5281 16.341V23.6592C28.5281 23.7823 28.5524 23.9042 28.5995 24.018C28.6466 24.1317 28.7156 24.2351 28.8027 24.3221C28.8898 24.4092 28.9931 24.4783 29.1069 24.5254C29.2207 24.5725 29.3426 24.5967 29.4657 24.5967L33.1251 24.5964C33.643 24.5964 34.0626 24.1765 34.0626 23.6589C34.0626 23.141 33.6426 22.7214 33.125 22.7214ZM16.8516 20.9374H17.8816C18.3995 20.9374 18.8191 20.5174 18.8191 19.9999V16.3411C18.8191 15.8232 18.3995 15.4036 17.8816 15.4036H14.2228C13.7049 15.4036 13.2853 15.8232 13.2853 16.3411V23.6592C13.2853 24.1771 13.7049 24.5967 14.2228 24.5967C14.7407 24.5967 15.1603 24.1771 15.1603 23.6592V21.8975L17.5849 24.3224C17.6719 24.4096 17.7752 24.4787 17.889 24.5258C18.0027 24.5729 18.1247 24.597 18.2478 24.5968C18.4877 24.5968 18.7276 24.5052 18.9107 24.3224C19.277 23.9562 19.277 23.3627 18.9107 22.9965L16.8516 20.9374ZM15.1603 17.2786H16.9441V19.0624H15.1603V17.2786Z" fill="#FEEA3B"/>
</g>
<defs>
<clipPath id="clip0_1_1537">
<rect width="40" height="40" fill="white"/>
</clipPath>
</defs>
</svg>
