<svg width="40" height="40" viewBox="0 0 40 40" fill="none" xmlns="http://www.w3.org/2000/svg">
<path d="M25.5774 25.5777C25.12 26.0355 25.12 26.7773 25.5774 27.2351L28.3958 30.0534C28.8536 30.5109 29.5954 30.5109 30.0532 30.0534C30.511 29.5956 30.511 28.8538 30.0532 28.396L27.2349 25.5777C26.7771 25.1199 26.0353 25.1199 25.5775 25.5777L25.5774 25.5777Z" fill="#FD1F47"/>
<path d="M27.2355 25.5777L30.0532 28.3954C30.5113 28.8534 30.5106 29.5954 30.0532 30.0528L25.5781 25.5777C26.0355 25.1202 26.7774 25.1196 27.2355 25.5777L27.2355 25.5777Z" fill="#FE4A60"/>
<path d="M29.0596 29.0596C27.5621 30.5571 27.5621 32.9851 29.0596 34.4826L33.4536 38.8768C34.9511 40.3743 37.379 40.3743 38.8765 38.8768C40.374 37.3793 40.374 34.9514 38.8765 33.4539L34.4823 29.0596C32.9851 27.5621 30.5571 27.5621 29.0596 29.0596Z" fill="#FE4A60"/>
<path d="M34.4832 29.0602L38.8771 33.4541C40.3746 34.9519 40.3743 37.3799 38.8771 38.8768L29.0605 29.0602C29.3415 28.7788 29.6645 28.5429 30.0181 28.361C31.4607 27.6192 33.2744 27.8517 34.4832 29.0602Z" fill="#FF7579"/>
<path d="M4.57125 4.57125C-1.52375 10.6666 -1.52375 20.5487 4.57125 26.6437C10.6666 32.739 20.5487 32.739 26.6437 26.6437C32.739 20.5487 32.739 10.6665 26.6437 4.57125C20.5487 -1.52375 10.6665 -1.52375 4.57125 4.57125Z" fill="#FFB826"/>
<path d="M4.57129 4.57082L26.6443 26.6439C27.03 26.2586 27.3952 25.8534 27.7384 25.4298C32.7139 19.3004 32.3484 10.2764 26.6437 4.57145C20.5487 -1.52324 10.6662 -1.52418 4.57129 4.57082Z" fill="#FFCC4B"/>
<path d="M24.9847 6.23006C19.8058 1.05092 11.409 1.05092 6.22982 6.23006C1.051 11.409 1.051 19.8058 6.22982 24.985C11.409 30.1638 19.8059 30.1638 24.9847 24.985C30.1639 19.8058 30.1639 11.4089 24.9847 6.23006Z" fill="#D9E4EF"/>
<path d="M9.33113 10.6689H6.82066C6.1734 10.6689 5.64879 11.1936 5.64879 11.8408C5.64879 12.4881 6.1734 13.0127 6.82066 13.0127H8.15918V17.4893C8.15918 17.8812 7.84027 18.2001 7.44809 18.2001C7.05621 18.2001 6.7373 17.8812 6.7373 17.4893C6.7373 16.8421 6.21246 16.3175 5.56543 16.3175C4.91816 16.3175 4.39355 16.8421 4.39355 17.4893C4.39355 19.1736 5.76387 20.5439 7.44809 20.5439C9.1327 20.5439 10.5029 19.1736 10.5029 17.4893V11.8409C10.5029 11.1936 9.97832 10.669 9.33105 10.669L9.33113 10.6689Z" fill="#1D9CFD"/>
<path d="M24.9851 24.9847L15.2728 15.2722L15.2445 15.2434L6.23047 6.22912C11.4094 1.05123 19.8071 1.05123 24.9851 6.22912C30.1648 11.4089 30.1648 19.805 24.9851 24.9847Z" fill="#EFF6FE"/>
<path d="M26.8207 13.7245C26.8207 12.0371 25.4551 10.6699 23.766 10.6699H21.2559C20.6083 10.6699 20.084 11.1942 20.084 11.8418V19.373C20.084 20.0199 20.6083 20.5448 21.2559 20.5448H23.766C25.4535 20.5448 26.8207 19.1792 26.8207 17.4903C26.8207 16.7979 26.5919 16.1427 26.1707 15.6074C26.5919 15.0715 26.8207 14.416 26.8207 13.7245ZM23.766 18.201H22.4277V16.7793H23.766C23.8594 16.7792 23.9519 16.7975 24.0382 16.8332C24.1246 16.8689 24.203 16.9212 24.269 16.9873C24.3351 17.0533 24.3874 17.1318 24.4231 17.2181C24.4588 17.3044 24.4771 17.3969 24.477 17.4903C24.477 17.8825 24.159 18.201 23.766 18.201ZM23.766 14.4355H22.4277V13.0137H23.766C23.8594 13.0136 23.9519 13.0319 24.0382 13.0676C24.1245 13.1032 24.2029 13.1556 24.2689 13.2216C24.3349 13.2876 24.3873 13.366 24.423 13.4523C24.4587 13.5386 24.477 13.6311 24.477 13.7245C24.477 13.8178 24.4586 13.9103 24.4229 13.9966C24.3872 14.0828 24.3348 14.1612 24.2688 14.2273C24.2028 14.2933 24.1244 14.3457 24.0381 14.3814C23.9519 14.4172 23.8594 14.4355 23.766 14.4355Z" fill="#3AB4FB"/>
<path d="M15.2921 10.6689C13.4318 10.6689 11.9248 12.1741 11.9248 14.0363V17.1769C11.9248 19.0342 13.4263 20.5439 15.2946 20.5439C17.1546 20.5439 18.6618 19.039 18.6618 17.1768V14.0363C18.6618 12.1787 17.1604 10.6689 15.2921 10.6689ZM16.3181 17.1768C16.3182 17.3115 16.2917 17.4448 16.2401 17.5692C16.1885 17.6935 16.1129 17.8065 16.0176 17.9016C15.9223 17.9966 15.8091 18.0719 15.6846 18.1232C15.5601 18.1744 15.4267 18.2006 15.2921 18.2001C14.7266 18.2001 14.2686 17.7429 14.2686 17.1768V14.0363C14.2686 13.4742 14.7217 13.0127 15.2946 13.0127C15.86 13.0127 16.3181 13.4702 16.3181 14.0363V17.1768Z" fill="#1D9CFD"/>
<path d="M15.2912 10.6699C14.0389 10.6699 12.9466 11.352 12.3662 12.3661L14.2677 14.2677V14.037C14.2677 13.4745 14.7208 13.0137 15.2943 13.0137C15.8592 13.0137 16.3179 13.4705 16.3179 14.037V16.3184L18.4233 18.4239C18.5813 18.0275 18.6622 17.6046 18.6616 17.1778V14.037C18.6616 12.1794 17.1598 10.6699 15.2913 10.6699H15.2912Z" fill="#3AB4FB"/>
</svg>
