<svg width="38" height="38" viewBox="0 0 38 38" fill="none" xmlns="http://www.w3.org/2000/svg">
<path d="M8.41876 17.5446L5.58751 9.38833C5.46775 8.91065 5.17197 8.49584 4.75938 8.22696C4.3468 7.95809 3.84787 7.855 3.36251 7.93833C3.11361 7.99139 2.87809 8.09445 2.67021 8.24126C2.46234 8.38807 2.28644 8.57557 2.1532 8.79239C2.01995 9.0092 1.93213 9.25083 1.89505 9.5026C1.85798 9.75437 1.87242 10.0111 1.93751 10.2571L4.85001 19.2508L8.41876 17.5446ZM28.7813 17.5446L31.6125 9.38833C31.7323 8.91065 32.0281 8.49584 32.4406 8.22696C32.8532 7.95809 33.3521 7.855 33.8375 7.93833C34.0864 7.99139 34.3219 8.09445 34.5298 8.24126C34.7377 8.38807 34.9136 8.57557 35.0468 8.79239C35.1801 9.0092 35.2679 9.25083 35.305 9.5026C35.342 9.75437 35.3276 10.0111 35.2625 10.2571L32.35 19.2508L28.7813 17.5446Z" fill="#FFAC96"/>
<path d="M14.2538 20.9271L8.72876 17.6883C8.34644 17.4675 7.89836 17.389 7.46374 17.4667C7.02912 17.5443 6.63595 17.7732 6.35376 18.1127L4.33751 11.8883C4.21775 11.4106 3.92197 10.9958 3.50938 10.727C3.0968 10.4581 2.59787 10.355 2.11251 10.4383C1.86361 10.4914 1.62809 10.5945 1.42021 10.7413C1.21234 10.8881 1.03644 11.0756 0.903197 11.2924C0.76995 11.5092 0.682127 11.7508 0.645051 12.0026C0.607976 12.2544 0.622421 12.5111 0.687511 12.7571L3.40626 22.9008C3.53097 23.3753 3.79426 23.8017 4.16251 24.1258L8.38751 27.8821C8.65112 28.1168 8.86203 28.4047 9.00638 28.7268C9.15073 29.0489 9.22524 29.3979 9.22501 29.7508V31.7508H16.725V25.2408C16.7251 24.3687 16.497 23.5118 16.0635 22.755C15.63 21.9983 15.0061 21.3681 14.2538 20.9271ZM35.0875 10.4383C34.6021 10.355 34.1032 10.4581 33.6906 10.727C33.278 10.9958 32.9823 11.4106 32.8625 11.8883L30.8438 18.1127C30.5616 17.7732 30.1684 17.5443 29.7338 17.4667C29.2992 17.389 28.8511 17.4675 28.4688 17.6883L22.9438 20.9271C22.1919 21.3685 21.5685 21.9988 21.1354 22.7555C20.7024 23.5122 20.4747 24.369 20.475 25.2408V31.7508H27.975V29.7508C27.9748 29.3979 28.0493 29.0489 28.1936 28.7268C28.338 28.4047 28.5489 28.1168 28.8125 27.8821L33.0375 24.1258C33.4058 23.8017 33.669 23.3753 33.7938 22.9008L36.5125 12.7571C36.5776 12.5111 36.592 12.2544 36.555 12.0026C36.5179 11.7508 36.4301 11.5092 36.2968 11.2924C36.1636 11.0756 35.9877 10.8881 35.7798 10.7413C35.5719 10.5945 35.3364 10.4914 35.0875 10.4383Z" fill="#FFBCAB"/>
<path d="M19.8496 31.751V36.751H28.5996V31.751H20.4746H19.8496ZM17.3496 31.751H8.59961V36.751H17.3496V31.751Z" fill="#006DF0"/>
<path d="M26.9998 10.2263L26.5561 10.67L18.5998 18.6263L10.6436 10.67L10.1998 10.2263C9.65931 9.70801 9.2277 9.08706 8.93033 8.39981C8.63296 7.71256 8.4758 6.97285 8.46807 6.22406C8.46035 5.47527 8.6022 4.73248 8.88533 4.03924C9.16846 3.346 9.58715 2.71627 10.1169 2.18698C10.6466 1.65768 11.2766 1.23949 11.9701 0.956904C12.6636 0.674322 13.4065 0.533047 14.1552 0.541363C14.904 0.549678 15.6436 0.707418 16.3306 1.00533C17.0176 1.30324 17.6383 1.73533 18.1561 2.27626L18.5998 2.72001L19.0436 2.27626C19.5614 1.73533 20.182 1.30324 20.869 1.00533C21.556 0.707418 22.2956 0.549678 23.0444 0.541363C23.7932 0.533047 24.5361 0.674322 25.2296 0.956904C25.923 1.23949 26.5531 1.65768 27.0828 2.18698C27.6125 2.71627 28.0312 3.346 28.3143 4.03924C28.5974 4.73248 28.7393 5.47527 28.7316 6.22406C28.7238 6.97285 28.5667 7.71256 28.2693 8.39981C27.9719 9.08706 27.5403 9.70801 26.9998 10.2263Z" fill="#D80027"/>
<path d="M26.9996 2.27607C26.405 1.67512 25.6812 1.21761 24.8833 0.93831C24.0853 0.659008 23.2342 0.565263 22.3946 0.664198C23.4472 0.780856 24.4455 1.1925 25.2744 1.85172C26.1033 2.51094 26.7291 3.3909 27.0797 4.39024C27.4303 5.38959 27.4915 6.46765 27.2562 7.50024C27.0208 8.53283 26.4986 9.47795 25.7496 10.2267L25.3059 10.6704L17.9746 18.0011L18.5996 18.6261L26.5559 10.6698L26.9996 10.2261C28.053 9.17138 28.6447 7.7417 28.6447 6.25107C28.6447 4.76044 28.053 3.33076 26.9996 2.27607Z" fill="#BD0022"/>
<path d="M19.8496 12.376V9.87598H22.3496V7.37598H19.8496V4.87598H17.3496V7.37598H14.8496V9.87598H17.3496V12.376H19.8496Z" fill="#F1F2F2"/>
<path d="M30.3461 19.6882L26.1686 22.0007C26.0492 22.0699 25.9607 22.182 25.9211 22.3141C25.8814 22.4463 25.8938 22.5886 25.9555 22.712C25.9884 22.778 26.0346 22.8365 26.091 22.884C26.1475 22.9315 26.2131 22.967 26.2837 22.9882C26.3544 23.0093 26.4287 23.0159 26.5019 23.0073C26.5752 22.9987 26.646 22.9752 26.7098 22.9382L30.3461 20.9382C30.7257 20.7182 31.0161 20.3719 31.1668 19.9597C31.3174 19.5476 31.3187 19.0956 31.1705 18.6826C31.0258 19.1062 30.7331 19.4634 30.3461 19.6882ZM6.85358 19.6882L11.0311 22.0007C11.1505 22.0699 11.239 22.182 11.2786 22.3141C11.3182 22.4463 11.3059 22.5886 11.2442 22.712C11.2112 22.778 11.1651 22.8365 11.1086 22.884C11.0522 22.9315 10.9866 22.967 10.9159 22.9882C10.8452 23.0093 10.771 23.0159 10.6977 23.0073C10.6244 22.9987 10.5537 22.9752 10.4898 22.9382L6.85358 20.9382C6.47393 20.7182 6.18351 20.3719 6.03287 19.9597C5.88224 19.5476 5.88094 19.0956 6.0292 18.6826C6.17381 19.1062 6.46656 19.4634 6.85358 19.6882Z" fill="#FFAC96"/>
<path d="M22.35 6.75098H20.475V4.87598C20.475 4.71022 20.4092 4.55125 20.2919 4.43403C20.1747 4.31682 20.0158 4.25098 19.85 4.25098H17.35C17.1842 4.25098 17.0253 4.31682 16.9081 4.43403C16.7908 4.55125 16.725 4.71022 16.725 4.87598V6.75098H14.85C14.6842 6.75098 14.5253 6.81682 14.4081 6.93403C14.2908 7.05125 14.225 7.21022 14.225 7.37598V9.87598C14.225 10.0417 14.2908 10.2007 14.4081 10.3179C14.5253 10.4351 14.6842 10.501 14.85 10.501H16.725V12.376C16.725 12.5417 16.7908 12.7007 16.9081 12.8179C17.0253 12.9351 17.1842 13.001 17.35 13.001H19.85C20.0158 13.001 20.1747 12.9351 20.2919 12.8179C20.4092 12.7007 20.475 12.5417 20.475 12.376V10.501H22.35C22.5158 10.501 22.6747 10.4351 22.7919 10.3179C22.9092 10.2007 22.975 10.0417 22.975 9.87598V7.37598C22.975 7.21022 22.9092 7.05125 22.7919 6.93403C22.6747 6.81682 22.5158 6.75098 22.35 6.75098ZM21.725 9.25098H19.85C19.6842 9.25098 19.5253 9.31682 19.4081 9.43403C19.2908 9.55124 19.225 9.71022 19.225 9.87598V11.751H17.975V9.87598C17.975 9.71022 17.9092 9.55124 17.7919 9.43403C17.6747 9.31682 17.5158 9.25098 17.35 9.25098H15.475V8.00098H17.35C17.5158 8.00098 17.6747 7.93513 17.7919 7.81792C17.9092 7.70071 17.975 7.54174 17.975 7.37598V5.50098H19.225V7.37598C19.225 7.54174 19.2908 7.70071 19.4081 7.81792C19.5253 7.93513 19.6842 8.00098 19.85 8.00098H21.725V9.25098ZM35.9312 10.101C35.9439 9.99102 35.9502 9.88041 35.95 9.76973C35.947 9.19683 35.7482 8.64218 35.3868 8.19772C35.0253 7.75326 34.5228 7.44568 33.9625 7.32598C33.3288 7.20535 32.6729 7.32994 32.1275 7.67456C31.5822 8.01917 31.1881 8.55807 31.025 9.18223L28.275 17.0947C28.2342 17.1109 28.1946 17.1297 28.1562 17.151L22.6312 20.3885C21.7858 20.8851 21.0846 21.5937 20.5968 22.4443C20.109 23.2948 19.8516 24.258 19.85 25.2385V31.126C19.6842 31.126 19.5253 31.1918 19.4081 31.309C19.2908 31.4262 19.225 31.5852 19.225 31.751V36.751C19.225 36.9167 19.2908 37.0757 19.4081 37.1929C19.5253 37.3101 19.6842 37.376 19.85 37.376H28.6C28.7658 37.376 28.9247 37.3101 29.0419 37.1929C29.1592 37.0757 29.225 36.9167 29.225 36.751V31.751C29.225 31.5852 29.1592 31.4262 29.0419 31.309C28.9247 31.1918 28.7658 31.126 28.6 31.126V29.751C28.6012 29.487 28.6574 29.2262 28.765 28.9851C28.8726 28.7441 29.0293 28.5281 29.225 28.351L33.45 24.5947C33.9121 24.1904 34.243 23.6571 34.4 23.0635L37.1125 12.9197C37.1704 12.7079 37.1998 12.4893 37.2 12.2697C37.1975 11.8287 37.079 11.396 36.8563 11.0153C36.6336 10.6346 36.3145 10.3193 35.9312 10.101ZM32.2188 9.55098C32.2955 9.22776 32.4912 8.94533 32.7669 8.75999C33.0426 8.57465 33.378 8.50002 33.7062 8.55098C33.9864 8.60965 34.2379 8.76268 34.4188 8.98451C34.5997 9.20633 34.6989 9.48351 34.7 9.76973V9.78223C34.1417 9.79259 33.6021 9.98502 33.1632 10.3302C32.7244 10.6755 32.4103 11.1546 32.2687 11.6947L30.525 17.076C30.261 16.9507 29.9779 16.8705 29.6875 16.8385L32.2188 9.55098ZM27.975 36.126H20.475V32.376H27.975V36.126ZM35.9062 12.5947L33.1875 22.7447C33.0934 23.0974 32.8978 23.4147 32.625 23.6572L28.3937 27.4135C28.0663 27.7087 27.8043 28.0692 27.6246 28.4718C27.4448 28.8744 27.3513 29.3101 27.35 29.751V31.126H21.1V25.2385C21.1031 24.4759 21.304 23.7272 21.683 23.0656C22.0621 22.4039 22.6063 21.8519 23.2625 21.4635L28.7812 18.2322C28.9235 18.1493 29.0808 18.0954 29.244 18.0734C29.4073 18.0515 29.5732 18.062 29.7323 18.1044C29.8915 18.1468 30.0407 18.2202 30.1713 18.3205C30.302 18.4207 30.4116 18.5458 30.4937 18.6885C30.6561 18.9773 30.7009 19.3175 30.6187 19.6385C30.5753 19.797 30.5011 19.9453 30.4003 20.0751C30.2995 20.2049 30.1741 20.3135 30.0312 20.3947L26.45 22.4635C26.314 22.55 26.2166 22.6857 26.1782 22.8422C26.1399 22.9988 26.1635 23.1641 26.2442 23.3037C26.3249 23.4433 26.4563 23.5463 26.6112 23.5912C26.766 23.6361 26.9322 23.6194 27.075 23.5447L30.6562 21.476C30.9425 21.3136 31.1934 21.0955 31.3941 20.8347C31.5948 20.5739 31.7413 20.2755 31.825 19.9572C31.9951 19.3177 31.9053 18.6369 31.575 18.0635L31.5375 18.0072L33.4688 12.051C33.5455 11.7278 33.7412 11.4453 34.0169 11.26C34.2926 11.0746 34.628 11 34.9562 11.051C35.2364 11.1096 35.4879 11.2627 35.6688 11.4845C35.8497 11.7063 35.9489 11.9835 35.95 12.2697C35.9521 12.3797 35.9373 12.4893 35.9062 12.5947ZM17.35 31.126V25.2385C17.3484 24.258 17.091 23.2948 16.6032 22.4443C16.1154 21.5937 15.4142 20.8851 14.5687 20.3885L9.04375 17.1447C9.00625 17.126 8.9625 17.1135 8.925 17.0947L6.19375 9.22598C6.03501 8.59272 5.64094 8.04375 5.09174 7.69077C4.54254 7.3378 3.87948 7.20735 3.2375 7.32598C2.67724 7.44568 2.17472 7.75326 1.81324 8.19772C1.45176 8.64218 1.25303 9.19683 1.25 9.76973C1.24984 9.88041 1.2561 9.99102 1.26875 10.101C0.885478 10.3193 0.566439 10.6346 0.34372 11.0153C0.121 11.396 0.00245249 11.8287 0 12.2697C0.00121391 12.4888 0.0284888 12.707 0.0812499 12.9197L2.8 23.0572C2.95536 23.6534 3.28635 24.1891 3.75 24.5947L7.96875 28.351C8.16646 28.5269 8.32486 28.7424 8.43363 28.9837C8.5424 29.2249 8.59909 29.4864 8.6 29.751V31.126C8.43424 31.126 8.27527 31.1918 8.15806 31.309C8.04085 31.4262 7.975 31.5852 7.975 31.751V36.751C7.975 36.9167 8.04085 37.0757 8.15806 37.1929C8.27527 37.3101 8.43424 37.376 8.6 37.376H17.35C17.5158 37.376 17.6747 37.3101 17.7919 37.1929C17.9092 37.0757 17.975 36.9167 17.975 36.751V31.751C17.975 31.5852 17.9092 31.4262 17.7919 31.309C17.6747 31.1918 17.5158 31.126 17.35 31.126ZM2.5 9.76973C2.50077 9.48438 2.59915 9.20788 2.77879 8.98618C2.95843 8.76447 3.20851 8.6109 3.4875 8.55098C3.82479 8.50202 4.16811 8.58239 4.44863 8.77596C4.72914 8.96954 4.9261 9.26201 5 9.59473L7.5125 16.8385C7.22206 16.8705 6.939 16.9507 6.675 17.076L4.94375 11.726C4.80286 11.1805 4.48815 10.6957 4.04724 10.345C3.60632 9.99435 3.06319 9.79678 2.5 9.78223V9.76973ZM8.8 27.4135L4.575 23.6572C4.30066 23.4134 4.10488 23.0937 4.0125 22.7385L1.2875 12.5947C1.26163 12.4884 1.24903 12.3792 1.25 12.2697C1.25077 11.9844 1.34915 11.7079 1.52879 11.4862C1.70843 11.2645 1.95851 11.1109 2.2375 11.051C2.57241 11.0007 2.91394 11.0791 3.19339 11.2704C3.47283 11.4618 3.66947 11.7518 3.74375 12.0822L5.6625 18.0072L5.625 18.0635C5.29475 18.6369 5.20487 19.3177 5.375 19.9572C5.45868 20.2755 5.60519 20.5739 5.80591 20.8347C6.00663 21.0955 6.2575 21.3136 6.54375 21.476L10.125 23.5447C10.2678 23.6194 10.434 23.6361 10.5888 23.5912C10.7437 23.5463 10.8751 23.4433 10.9558 23.3037C11.0365 23.1641 11.0601 22.9988 11.0218 22.8422C10.9834 22.6857 10.886 22.55 10.75 22.4635L7.16875 20.3947C7.02592 20.3135 6.90052 20.2049 6.79971 20.0751C6.6989 19.9453 6.62466 19.797 6.58125 19.6385C6.49914 19.3175 6.54391 18.9773 6.70625 18.6885C6.78791 18.5461 6.89682 18.4211 7.02677 18.3208C7.15671 18.2205 7.30514 18.1468 7.46358 18.1038C7.62203 18.0609 7.78737 18.0496 7.95019 18.0705C8.11301 18.0915 8.2701 18.1443 8.4125 18.226L13.9375 21.4635C14.5937 21.8519 15.1379 22.4039 15.517 23.0656C15.896 23.7272 16.0969 24.4759 16.1 25.2385V31.126H9.85V29.751C9.84894 29.3095 9.75488 28.8731 9.57397 28.4704C9.39306 28.0676 9.12934 27.7075 8.8 27.4135ZM16.725 36.126H9.225V32.376H16.725V36.126Z" fill="#231F20"/>
<path d="M27.4415 1.83335C26.8613 1.25212 26.1722 0.791017 25.4135 0.476428C24.6549 0.16184 23.8417 -5.80365e-05 23.0204 1.56063e-08C22.1992 5.80677e-05 21.386 0.162071 20.6274 0.476767C19.8688 0.791462 19.1798 1.25266 18.5996 1.83397C18.0196 1.25265 17.3305 0.791444 16.572 0.476764C15.8134 0.162083 15.0003 0.000106112 14.179 0.000106112C13.3578 0.000106112 12.5446 0.162083 11.7861 0.476764C11.0275 0.791444 10.3385 1.25265 9.75839 1.83397C8.58861 3.00627 7.93164 4.59474 7.93164 6.25085C7.93164 7.90695 8.58861 9.49542 9.75839 10.6677L18.1584 19.0677C18.2756 19.1849 18.4345 19.2507 18.6003 19.2507C18.766 19.2507 18.9249 19.1849 19.0421 19.0677L27.4421 10.6677C28.6119 9.49523 29.2688 7.90661 29.2686 6.25041C29.2685 4.5942 28.6114 3.00567 27.4415 1.83335ZM18.5996 17.7421L10.6415 9.78397C9.94285 9.08435 9.46729 8.19329 9.27496 7.22344C9.08264 6.25359 9.18217 5.24849 9.56099 4.33519C9.9398 3.4219 10.5809 2.64143 11.4032 2.09243C12.2255 1.54343 13.1922 1.25056 14.1809 1.25085C14.8377 1.24859 15.4884 1.37714 16.095 1.62898C16.7016 1.88083 17.252 2.25094 17.714 2.71772L18.1578 3.16147C18.275 3.27864 18.4339 3.34446 18.5996 3.34446C18.7654 3.34446 18.9243 3.27864 19.0415 3.16147L19.4865 2.71647C19.9505 2.25163 20.5016 1.88285 21.1083 1.63123C21.715 1.37961 22.3653 1.2501 23.0221 1.2501C23.6789 1.2501 24.3293 1.37961 24.936 1.63123C25.5427 1.88285 26.0938 2.25163 26.5578 2.71647C27.494 3.65396 28.0198 4.9247 28.0198 6.2496C28.0198 7.5745 27.494 8.84524 26.5578 9.78272L18.5996 17.7421Z" fill="#231F20"/>
</svg>
