<svg width="34" height="34" viewBox="0 0 34 34" fill="none" xmlns="http://www.w3.org/2000/svg">
<path d="M25.8588 0H7.74904C3.46937 0 0 3.46937 0 7.74904V25.8588C0 30.1385 3.46937 33.6079 7.74904 33.6079H25.8588C30.1385 33.6079 33.6079 30.1385 33.6079 25.8588V7.74904C33.6079 3.46937 30.1385 0 25.8588 0Z" fill="url(#paint0_linear_1_1605)"/>
<path d="M22.2235 6.63061C23.4993 6.63574 24.7214 7.14484 25.6236 8.047C26.5257 8.94916 27.0348 10.1713 27.04 11.4471V22.1612C27.0348 23.437 26.5257 24.6592 25.6236 25.5613C24.7214 26.4635 23.4993 26.9726 22.2235 26.9777H11.3836C10.1078 26.9726 8.88568 26.4635 7.98353 25.5613C7.08137 24.6592 6.57227 23.437 6.56713 22.1612V11.4471C6.57227 10.1713 7.08137 8.94916 7.98353 8.047C8.88568 7.14484 10.1078 6.63574 11.3836 6.63061H22.2235ZM22.2235 4.39037H11.3836C7.50225 4.39037 4.32617 7.57006 4.32617 11.4478V22.1612C4.32617 26.0426 7.50586 29.2187 11.3836 29.2187H22.2235C26.1049 29.2187 29.2809 26.039 29.2809 22.1612V11.4471C29.2809 7.56572 26.1049 4.38965 22.2235 4.38965V4.39037Z" fill="white"/>
<path d="M16.8041 12.6218C17.6312 12.6218 18.4398 12.8671 19.1275 13.3266C19.8152 13.7861 20.3512 14.4393 20.6678 15.2035C20.9843 15.9676 21.0671 16.8085 20.9057 17.6197C20.7444 18.4309 20.3461 19.1761 19.7612 19.761C19.1763 20.3458 18.4312 20.7441 17.62 20.9055C16.8087 21.0669 15.9679 20.984 15.2037 20.6675C14.4395 20.351 13.7864 19.815 13.3269 19.1272C12.8673 18.4395 12.6221 17.631 12.6221 16.8038C12.6234 15.6951 13.0644 14.6322 13.8484 13.8482C14.6324 13.0642 15.6954 12.6232 16.8041 12.6218ZM16.8041 10.3816C15.5339 10.3816 14.2922 10.7582 13.2361 11.4639C12.1799 12.1696 11.3568 13.1726 10.8707 14.3461C10.3846 15.5197 10.2574 16.811 10.5052 18.0568C10.753 19.3025 11.3647 20.4469 12.2629 21.345C13.161 22.2432 14.3054 22.8549 15.5512 23.1027C16.797 23.3505 18.0883 23.2233 19.2618 22.7372C20.4353 22.2511 21.4383 21.428 22.144 20.3718C22.8497 19.3157 23.2263 18.074 23.2263 16.8038C23.2263 15.1006 22.5497 13.467 21.3453 12.2626C20.1409 11.0582 18.5074 10.3816 16.8041 10.3816Z" fill="white"/>
<path d="M23.3664 11.6227C24.2073 11.6227 24.889 10.941 24.889 10.1C24.889 9.2591 24.2073 8.57739 23.3664 8.57739C22.5255 8.57739 21.8438 9.2591 21.8438 10.1C21.8438 10.941 22.5255 11.6227 23.3664 11.6227Z" fill="white"/>
<defs>
<linearGradient id="paint0_linear_1_1605" x1="22.0266" y1="35.0185" x2="11.5813" y2="-1.41063" gradientUnits="userSpaceOnUse">
<stop stop-color="#FFDB73"/>
<stop offset="0.08" stop-color="#FDAD4E"/>
<stop offset="0.15" stop-color="#FB832E"/>
<stop offset="0.19" stop-color="#FA7321"/>
<stop offset="0.23" stop-color="#F6692F"/>
<stop offset="0.37" stop-color="#E84A5A"/>
<stop offset="0.48" stop-color="#E03675"/>
<stop offset="0.55" stop-color="#DD2F7F"/>
<stop offset="0.68" stop-color="#B43D97"/>
<stop offset="0.97" stop-color="#4D60D4"/>
<stop offset="1" stop-color="#4264DB"/>
</linearGradient>
</defs>
</svg>
