<svg width="38" height="40" viewBox="0 0 38 40" fill="none" xmlns="http://www.w3.org/2000/svg">
<path d="M13.125 3.75H36.875V35.625H13.125V3.75Z" fill="#B5EFFF"/>
<path d="M13.125 3.75H15V35.625H13.125V3.75Z" fill="#19CFFC"/>
<path d="M36.875 35.625V36.875C36.875 37.538 36.6116 38.1739 36.1428 38.6428C35.6739 39.1116 35.038 39.375 34.375 39.375H15.625C14.962 39.375 14.3261 39.1116 13.8572 38.6428C13.3884 38.1739 13.125 37.538 13.125 36.875V35.625H36.875Z" fill="#F2F6FC"/>
<path d="M15 36.875V35.625H13.125V36.875C13.125 37.538 13.3884 38.1739 13.8572 38.6428C14.3261 39.1116 14.962 39.375 15.625 39.375H17.5C16.837 39.375 16.2011 39.1116 15.7322 38.6428C15.2634 38.1739 15 37.538 15 36.875Z" fill="#DCE1EB"/>
<path d="M36.875 3.125V3.75H31.25C31.2553 3.99768 31.2104 4.24386 31.118 4.47374C31.0257 4.70361 30.8878 4.91242 30.7126 5.08759C30.5374 5.26277 30.3286 5.40068 30.0987 5.49304C29.8689 5.5854 29.6227 5.63028 29.375 5.625H20.625C20.3773 5.63028 20.1311 5.5854 19.9013 5.49304C19.6714 5.40068 19.4626 5.26277 19.2874 5.08759C19.1122 4.91242 18.9743 4.70361 18.882 4.47374C18.7896 4.24386 18.7447 3.99768 18.75 3.75H13.125V3.125C13.125 2.46196 13.3884 1.82607 13.8572 1.35723C14.3261 0.888392 14.962 0.625 15.625 0.625H34.375C35.038 0.625 35.6739 0.888392 36.1428 1.35723C36.6116 1.82607 36.875 2.46196 36.875 3.125Z" fill="#F2F6FC"/>
<path d="M17.5 0.625H15.625C14.962 0.625 14.3261 0.888392 13.8572 1.35723C13.3884 1.82607 13.125 2.46196 13.125 3.125V3.75H15V3.125C15 2.46196 15.2634 1.82607 15.7322 1.35723C16.2011 0.888392 16.837 0.625 17.5 0.625ZM20.625 3.75H18.75C18.7447 3.99768 18.7896 4.24386 18.882 4.47374C18.9743 4.70361 19.1122 4.91242 19.2874 5.08759C19.4626 5.26277 19.6714 5.40068 19.9013 5.49304C20.1311 5.5854 20.3773 5.63028 20.625 5.625H22.5C22.2523 5.63028 22.0061 5.5854 21.7763 5.49304C21.5464 5.40068 21.3376 5.26277 21.1624 5.08759C20.9872 4.91242 20.8493 4.70361 20.757 4.47374C20.6646 4.24386 20.6197 3.99768 20.625 3.75Z" fill="#DCE1EB"/>
<path d="M22.5 2.5H27.5V3.75H22.5V2.5Z" fill="#9196AA"/>
<path d="M33.75 16.875H31.25C30.5596 16.875 30 17.4346 30 18.125V20.625C30 21.3154 30.5596 21.875 31.25 21.875H33.75C34.4404 21.875 35 21.3154 35 20.625V18.125C35 17.4346 34.4404 16.875 33.75 16.875Z" fill="#FFE45C"/>
<path d="M33.75 9.375H31.25C30.5596 9.375 30 9.93464 30 10.625V13.125C30 13.8154 30.5596 14.375 31.25 14.375H33.75C34.4404 14.375 35 13.8154 35 13.125V10.625C35 9.93464 34.4404 9.375 33.75 9.375Z" fill="#19CFFC"/>
<path d="M26.25 16.875H23.75C23.0596 16.875 22.5 17.4346 22.5 18.125V20.625C22.5 21.3154 23.0596 21.875 23.75 21.875H26.25C26.9404 21.875 27.5 21.3154 27.5 20.625V18.125C27.5 17.4346 26.9404 16.875 26.25 16.875Z" fill="#F2F6FC"/>
<path d="M18.75 16.875H16.25C15.5596 16.875 15 17.4346 15 18.125V20.625C15 21.3154 15.5596 21.875 16.25 21.875H18.75C19.4404 21.875 20 21.3154 20 20.625V18.125C20 17.4346 19.4404 16.875 18.75 16.875Z" fill="#F2F6FC"/>
<path d="M26.25 9.375H23.75C23.0596 9.375 22.5 9.93464 22.5 10.625V13.125C22.5 13.8154 23.0596 14.375 23.75 14.375H26.25C26.9404 14.375 27.5 13.8154 27.5 13.125V10.625C27.5 9.93464 26.9404 9.375 26.25 9.375Z" fill="#FFCDBE"/>
<path d="M24.375 13.125V10.625C24.376 10.2938 24.508 9.97642 24.7422 9.74221C24.9764 9.508 25.2938 9.37599 25.625 9.375H23.75C23.4188 9.37599 23.1014 9.508 22.8672 9.74221C22.633 9.97642 22.501 10.2938 22.5 10.625V13.125C22.501 13.4562 22.633 13.7736 22.8672 14.0078C23.1014 14.242 23.4188 14.374 23.75 14.375H25.625C25.2938 14.374 24.9764 14.242 24.7422 14.0078C24.508 13.7736 24.376 13.4562 24.375 13.125Z" fill="#FAA68E"/>
<path d="M24.375 20.625V18.125C24.376 17.7938 24.508 17.4764 24.7422 17.2422C24.9764 17.008 25.2938 16.876 25.625 16.875H23.75C23.4188 16.876 23.1014 17.008 22.8672 17.2422C22.633 17.4764 22.501 17.7938 22.5 18.125V20.625C22.501 20.9562 22.633 21.2736 22.8672 21.5078C23.1014 21.742 23.4188 21.874 23.75 21.875H25.625C25.2938 21.874 24.9764 21.742 24.7422 21.5078C24.508 21.2736 24.376 20.9562 24.375 20.625ZM16.875 20.625V18.125C16.876 17.7938 17.008 17.4764 17.2422 17.2422C17.4764 17.008 17.7938 16.876 18.125 16.875H16.25C15.9188 16.876 15.6014 17.008 15.3672 17.2422C15.133 17.4764 15.001 17.7938 15 18.125V20.625C15.001 20.9562 15.133 21.2736 15.3672 21.5078C15.6014 21.742 15.9188 21.874 16.25 21.875H18.125C17.7938 21.874 17.4764 21.742 17.2422 21.5078C17.008 21.2736 16.876 20.9562 16.875 20.625Z" fill="#DCE1EB"/>
<path d="M31.875 20.625V18.125C31.876 17.7938 32.008 17.4764 32.2422 17.2422C32.4764 17.008 32.7938 16.876 33.125 16.875H31.25C30.9188 16.876 30.6014 17.008 30.3672 17.2422C30.133 17.4764 30.001 17.7938 30 18.125V20.625C30.001 20.9562 30.133 21.2736 30.3672 21.5078C30.6014 21.742 30.9188 21.874 31.25 21.875H33.125C32.7938 21.874 32.4764 21.742 32.2422 21.5078C32.008 21.2736 31.876 20.9562 31.875 20.625Z" fill="#FFA426"/>
<path d="M31.875 13.125V10.625C31.876 10.2938 32.008 9.97642 32.2422 9.74221C32.4764 9.508 32.7938 9.37599 33.125 9.375H31.25C30.9188 9.37599 30.6014 9.508 30.3672 9.74221C30.133 9.97642 30.001 10.2938 30 10.625V13.125C30.001 13.4562 30.133 13.7736 30.3672 14.0078C30.6014 14.242 30.9188 14.374 31.25 14.375H33.125C32.7938 14.374 32.4764 14.242 32.2422 14.0078C32.008 13.7736 31.876 13.4562 31.875 13.125Z" fill="#1EA1E3"/>
<path d="M5 26.25V28.125H0.625V15.625H5V16.875V26.25Z" fill="#FFCDBE"/>
<path d="M5 26.25V28.125H3.125V15.625H5V16.875V26.25Z" fill="#FAA68E"/>
<path d="M13.1 19.3562L13.125 19.375V30C6.875 30 6.875 26.25 6.875 26.25H5V16.875H6.875C6.875 16.875 6.875 13.75 9.375 12.5C10.5913 11.9917 11.8561 11.6084 13.15 11.3563C16.5312 10.5875 20.625 10 20.625 10C20.625 10 20.625 13.75 17.5 14.375L14.375 15C14.3438 16.5395 13.9038 18.0429 13.1 19.3562Z" fill="#FFDECF"/>
<path d="M18.7334 10.2944C18.659 11.1838 18.2221 13.8569 15.6246 14.375L12.4996 15C12.4684 16.5395 12.0284 18.0429 11.2246 19.3562L11.2496 19.375V29.8662C11.8703 29.9582 12.4971 30.0029 13.1246 30V19.375L13.0996 19.3562C13.9034 18.0429 14.3434 16.5395 14.3746 15L17.4996 14.375C20.6246 13.75 20.6246 10 20.6246 10C20.6246 10 19.8652 10.1094 18.7334 10.2944Z" fill="#FFBEAA"/>
<path d="M6.43125 7.3175L7.31562 6.43375L9.81563 8.93375L8.93125 9.81687L6.43125 7.3175ZM10 5H11.25V8.125H10V5ZM5 10H8.125V11.25H5V10Z" fill="#19CFFC"/>
<path d="M15 32.5H16.25V33.75H15V32.5ZM17.5 32.5H35V33.75H17.5V32.5Z" fill="#E3FBFF"/>
<path d="M34.375 0H15.625C14.7965 0.000992411 14.0022 0.330551 13.4164 0.916387C12.8306 1.50222 12.501 2.2965 12.5 3.125V10.8663C11.3312 11.1059 10.1903 11.4659 9.09562 11.9406C6.98 13 6.4375 15.175 6.29812 16.25H5.625V15.625C5.625 15.4592 5.55915 15.3003 5.44194 15.1831C5.32473 15.0658 5.16576 15 5 15H0.625C0.45924 15 0.300268 15.0658 0.183058 15.1831C0.065848 15.3003 0 15.4592 0 15.625V28.125C0 28.2908 0.065848 28.4497 0.183058 28.5669C0.300268 28.6842 0.45924 28.75 0.625 28.75H5C5.16576 28.75 5.32473 28.6842 5.44194 28.5669C5.55915 28.4497 5.625 28.2908 5.625 28.125V26.875H6.34812C6.64187 28.0331 7.825 30.4075 12.5 30.6056V36.875C12.501 37.7035 12.8306 38.4978 13.4164 39.0836C14.0022 39.6694 14.7965 39.999 15.625 40H34.375C35.2035 39.999 35.9978 39.6694 36.5836 39.0836C37.1694 38.4978 37.499 37.7035 37.5 36.875V3.125C37.499 2.2965 37.1694 1.50222 36.5836 0.916387C35.9978 0.330551 35.2035 0.000992411 34.375 0ZM4.375 27.5H1.25V16.25H4.375V27.5ZM15.625 1.25H34.375C34.8723 1.25 35.3492 1.44754 35.7008 1.79917C36.0525 2.15081 36.25 2.62772 36.25 3.125H31.25C31.0842 3.125 30.9253 3.19085 30.8081 3.30806C30.6908 3.42527 30.625 3.58424 30.625 3.75C30.6358 3.91696 30.6109 4.08432 30.552 4.24089C30.493 4.39746 30.4013 4.53965 30.283 4.65796C30.1646 4.77627 30.0225 4.86797 29.8659 4.92696C29.7093 4.98594 29.542 5.01084 29.375 5H20.625C20.458 5.01084 20.2907 4.98594 20.1341 4.92696C19.9775 4.86797 19.8354 4.77627 19.717 4.65796C19.5987 4.53965 19.507 4.39746 19.448 4.24089C19.3891 4.08432 19.3642 3.91696 19.375 3.75C19.375 3.58424 19.3092 3.42527 19.1919 3.30806C19.0747 3.19085 18.9158 3.125 18.75 3.125H13.75C13.75 2.62772 13.9475 2.15081 14.2992 1.79917C14.6508 1.44754 15.1277 1.25 15.625 1.25ZM36.25 35H13.75V19.4913C13.9996 19.0928 14.2089 18.6705 14.375 18.2306V20.625C14.375 21.1223 14.5725 21.5992 14.9242 21.9508C15.2758 22.3025 15.7527 22.5 16.25 22.5H18.75C19.2473 22.5 19.7242 22.3025 20.0758 21.9508C20.4275 21.5992 20.625 21.1223 20.625 20.625V18.125C20.625 17.6277 20.4275 17.1508 20.0758 16.7992C19.7242 16.4475 19.2473 16.25 18.75 16.25H16.25C15.9553 16.2507 15.6649 16.3211 15.4026 16.4555C15.1402 16.5899 14.9134 16.7844 14.7406 17.0231C14.8544 16.5274 14.9327 16.0243 14.975 15.5175L17.625 14.9875C20.4919 14.4137 21.25 11.4744 21.25 10C21.25 9.91042 21.2308 9.82188 21.1936 9.74038C21.1564 9.65889 21.1021 9.58634 21.0344 9.52767C20.9667 9.46899 20.8872 9.42554 20.8012 9.40028C20.7153 9.37502 20.6249 9.36853 20.5363 9.38125C20.4981 9.38688 16.9513 9.89937 13.75 10.5844V4.375H18.2038C18.3199 4.92367 18.627 5.41331 19.0704 5.75669C19.5138 6.10007 20.0647 6.27488 20.625 6.25H29.375C29.9353 6.27488 30.4862 6.10007 30.9296 5.75669C31.373 5.41331 31.6801 4.92367 31.7962 4.375H36.25V35ZM15.625 20.625V18.125C15.625 17.9592 15.6908 17.8003 15.8081 17.6831C15.9253 17.5658 16.0842 17.5 16.25 17.5H18.75C18.9158 17.5 19.0747 17.5658 19.1919 17.6831C19.3092 17.8003 19.375 17.9592 19.375 18.125V20.625C19.375 20.7908 19.3092 20.9497 19.1919 21.0669C19.0747 21.1842 18.9158 21.25 18.75 21.25H16.25C16.0842 21.25 15.9253 21.1842 15.8081 21.0669C15.6908 20.9497 15.625 20.7908 15.625 20.625ZM7.5 26.25C7.5 26.0842 7.43415 25.9253 7.31694 25.8081C7.19973 25.6908 7.04076 25.625 6.875 25.625H5.625V17.5H6.875C7.04076 17.5 7.19973 17.4342 7.31694 17.3169C7.43415 17.1997 7.5 17.0408 7.5 16.875C7.5 16.8475 7.525 14.125 9.65438 13.0625C10.8251 12.5742 12.043 12.2077 13.2887 11.9688C15.7262 11.4144 18.57 10.9506 19.9219 10.7413C19.75 11.7275 19.1875 13.4 17.375 13.7625L14.25 14.3875C14.1088 14.4163 13.9819 14.493 13.8908 14.6046C13.7997 14.7163 13.75 14.8559 13.75 15C13.718 16.4119 13.3173 17.7909 12.5875 19C12.2345 19.5217 11.7542 19.9448 11.192 20.2292C10.6299 20.5135 10.0045 20.6498 9.375 20.625V21.875C10.4994 21.8968 11.599 21.5431 12.5 20.87V29.3531C7.63375 29.13 7.5 26.3669 7.5 26.25ZM34.375 38.75H15.625C15.1277 38.75 14.6508 38.5525 14.2992 38.2008C13.9475 37.8492 13.75 37.3723 13.75 36.875V36.25H36.25V36.875C36.25 37.3723 36.0525 37.8492 35.7008 38.2008C35.3492 38.5525 34.8723 38.75 34.375 38.75Z" fill="black"/>
<path d="M22.5 2.5H27.5V3.75H22.5V2.5ZM6.43125 7.3175L7.31562 6.43375L9.81563 8.93375L8.93125 9.81687L6.43125 7.3175ZM10 5H11.25V8.125H10V5ZM5 10H8.125V11.25H5V10ZM23.75 15H26.25C26.7473 15 27.2242 14.8025 27.5758 14.4508C27.9275 14.0992 28.125 13.6223 28.125 13.125V10.625C28.125 10.1277 27.9275 9.65081 27.5758 9.29917C27.2242 8.94754 26.7473 8.75 26.25 8.75H23.75C23.2527 8.75 22.7758 8.94754 22.4242 9.29917C22.0725 9.65081 21.875 10.1277 21.875 10.625V13.125C21.875 13.6223 22.0725 14.0992 22.4242 14.4508C22.7758 14.8025 23.2527 15 23.75 15ZM23.125 10.625C23.125 10.4592 23.1908 10.3003 23.3081 10.1831C23.4253 10.0658 23.5842 10 23.75 10H26.25C26.4158 10 26.5747 10.0658 26.6919 10.1831C26.8092 10.3003 26.875 10.4592 26.875 10.625V13.125C26.875 13.2908 26.8092 13.4497 26.6919 13.5669C26.5747 13.6842 26.4158 13.75 26.25 13.75H23.75C23.5842 13.75 23.4253 13.6842 23.3081 13.5669C23.1908 13.4497 23.125 13.2908 23.125 13.125V10.625ZM29.375 10.625V13.125C29.375 13.6223 29.5725 14.0992 29.9242 14.4508C30.2758 14.8025 30.7527 15 31.25 15H33.75C34.2473 15 34.7242 14.8025 35.0758 14.4508C35.4275 14.0992 35.625 13.6223 35.625 13.125V10.625C35.625 10.1277 35.4275 9.65081 35.0758 9.29917C34.7242 8.94754 34.2473 8.75 33.75 8.75H31.25C30.7527 8.75 30.2758 8.94754 29.9242 9.29917C29.5725 9.65081 29.375 10.1277 29.375 10.625ZM34.375 10.625V13.125C34.375 13.2908 34.3092 13.4497 34.1919 13.5669C34.0747 13.6842 33.9158 13.75 33.75 13.75H31.25C31.0842 13.75 30.9253 13.6842 30.8081 13.5669C30.6908 13.4497 30.625 13.2908 30.625 13.125V10.625C30.625 10.4592 30.6908 10.3003 30.8081 10.1831C30.9253 10.0658 31.0842 10 31.25 10H33.75C33.9158 10 34.0747 10.0658 34.1919 10.1831C34.3092 10.3003 34.375 10.4592 34.375 10.625ZM23.75 22.5H26.25C26.7473 22.5 27.2242 22.3025 27.5758 21.9508C27.9275 21.5992 28.125 21.1223 28.125 20.625V18.125C28.125 17.6277 27.9275 17.1508 27.5758 16.7992C27.2242 16.4475 26.7473 16.25 26.25 16.25H23.75C23.2527 16.25 22.7758 16.4475 22.4242 16.7992C22.0725 17.1508 21.875 17.6277 21.875 18.125V20.625C21.875 21.1223 22.0725 21.5992 22.4242 21.9508C22.7758 22.3025 23.2527 22.5 23.75 22.5ZM23.125 18.125C23.125 17.9592 23.1908 17.8003 23.3081 17.6831C23.4253 17.5658 23.5842 17.5 23.75 17.5H26.25C26.4158 17.5 26.5747 17.5658 26.6919 17.6831C26.8092 17.8003 26.875 17.9592 26.875 18.125V20.625C26.875 20.7908 26.8092 20.9497 26.6919 21.0669C26.5747 21.1842 26.4158 21.25 26.25 21.25H23.75C23.5842 21.25 23.4253 21.1842 23.3081 21.0669C23.1908 20.9497 23.125 20.7908 23.125 20.625V18.125ZM33.75 16.25H31.25C30.7527 16.25 30.2758 16.4475 29.9242 16.7992C29.5725 17.1508 29.375 17.6277 29.375 18.125V20.625C29.375 21.1223 29.5725 21.5992 29.9242 21.9508C30.2758 22.3025 30.7527 22.5 31.25 22.5H33.75C34.2473 22.5 34.7242 22.3025 35.0758 21.9508C35.4275 21.5992 35.625 21.1223 35.625 20.625V18.125C35.625 17.6277 35.4275 17.1508 35.0758 16.7992C34.7242 16.4475 34.2473 16.25 33.75 16.25ZM34.375 20.625C34.375 20.7908 34.3092 20.9497 34.1919 21.0669C34.0747 21.1842 33.9158 21.25 33.75 21.25H31.25C31.0842 21.25 30.9253 21.1842 30.8081 21.0669C30.6908 20.9497 30.625 20.7908 30.625 20.625V18.125C30.625 17.9592 30.6908 17.8003 30.8081 17.6831C30.9253 17.5658 31.0842 17.5 31.25 17.5H33.75C33.9158 17.5 34.0747 17.5658 34.1919 17.6831C34.3092 17.8003 34.375 17.9592 34.375 18.125V20.625ZM15 32.5H16.25V33.75H15V32.5ZM17.5 32.5H35V33.75H17.5V32.5Z" fill="black"/>
</svg>
