<svg width="38" height="39" viewBox="0 0 38 39" fill="none" xmlns="http://www.w3.org/2000/svg">
<path d="M35.5745 17.2344C35.5745 19.1244 35.2558 20.9425 34.6658 22.6325C34.4843 22.6 34.3002 22.5839 34.1158 22.5844H3.81516C3.62391 22.5844 3.43266 22.6006 3.24891 22.64C2.65188 20.9001 2.34733 19.0733 2.34766 17.2338C2.34766 15.0969 2.74641 13.0556 3.48766 11.1819C5.70453 5.52876 10.9114 1.38188 17.1789 0.720007C17.7722 0.656258 18.3685 0.624545 18.9652 0.625008C22.2365 0.621893 25.4356 1.58748 28.1589 3.40001C29.7422 4.45917 31.1359 5.77739 32.2814 7.29938C33.4721 8.89013 34.3637 10.6841 34.9127 12.5938C35.3533 14.1012 35.5761 15.6639 35.5745 17.2344Z" fill="#69D6F4"/>
<path d="M3.24766 23.2656C3.11747 23.2655 2.99057 23.2247 2.88469 23.149C2.7788 23.0732 2.69921 22.9663 2.65703 22.8431C2.03798 21.038 1.72225 19.1427 1.72266 17.2344C1.72266 15.0506 2.12141 12.9375 2.90703 10.9519C5.26578 4.93438 10.7095 0.77501 17.1133 0.0993853C17.7281 0.0327933 18.3461 -0.000380463 18.9645 1.03612e-05C22.3592 -0.00371686 25.6788 0.998225 28.5045 2.87939C30.1483 3.97595 31.594 5.34349 32.7802 6.92376C34.0191 8.57452 34.9454 10.4382 35.5133 12.4225C35.9704 13.9855 36.2015 15.6059 36.1995 17.2344C36.1995 19.1581 35.8814 21.0438 35.2552 22.8388C35.2053 22.9789 35.1073 23.0969 34.9787 23.1717C34.8501 23.2466 34.6992 23.2734 34.5527 23.2475C34.4083 23.2217 34.2618 23.209 34.1152 23.2094H3.81453C3.65328 23.2094 3.50766 23.2231 3.38141 23.2506C3.33756 23.2608 3.29267 23.2659 3.24766 23.2656ZM18.9645 1.25001C18.382 1.25001 17.8045 1.28126 17.247 1.34189C11.307 1.96876 6.25828 5.82689 4.06891 11.4106C3.33815 13.265 2.96594 15.2412 2.97203 17.2344C2.97203 18.84 3.21141 20.4281 3.68453 21.9619C3.72785 21.9606 3.77119 21.96 3.81453 21.96H34.1145L34.2289 21.9613C34.7083 20.4315 34.9511 18.8375 34.9489 17.2344C34.9489 15.7106 34.7345 14.2088 34.3114 12.7694C33.7855 10.9301 32.9272 9.2026 31.7789 7.67251C30.6782 6.20583 29.3364 4.93674 27.8108 3.91939C25.1904 2.17541 22.1122 1.24656 18.9645 1.25001Z" fill="black"/>
<path d="M19.9533 4.4923C19.4589 4.6598 18.7414 4.76355 17.7283 4.66793C16.1495 4.50855 15.1764 5.25793 14.6427 5.88793C14.2758 6.32668 13.7495 6.5498 13.1758 6.55793C12.1952 6.56605 10.5602 6.9723 8.85391 9.06168C6.53328 11.9004 10.377 14.0454 11.5808 14.6192C11.7912 14.7209 12.0136 14.7958 12.2427 14.8423C13.6139 15.1611 14.4514 15.8711 14.9539 16.5648C15.5283 17.3542 15.3045 18.4867 14.4914 19.0129C12.8645 20.0736 11.9639 21.3573 11.4777 22.5854H7.92141C7.86645 22.2713 7.82661 21.9547 7.80203 21.6367C7.69016 20.1617 6.74141 19.0611 6.07953 18.4554C5.89092 18.2823 5.74573 18.0673 5.65571 17.8276C5.56569 17.588 5.53339 17.3305 5.56141 17.0761C5.88828 14.1654 4.74016 12.3154 3.48828 11.1836C5.70516 5.53043 10.912 1.38355 17.1795 0.72168C18.2609 1.42348 19.2847 2.21013 20.2414 3.07418C20.7108 3.50355 20.5595 4.2848 19.9533 4.4923ZM35.5739 17.2342C35.5739 19.1242 35.2552 20.9423 34.6652 22.6323C34.4836 22.5998 34.2996 22.5837 34.1152 22.5842H23.6452C23.6055 22.2508 23.6729 21.9134 23.8378 21.6209C24.0026 21.3284 24.2563 21.096 24.562 20.9573L24.602 20.9492C24.7401 20.8867 24.8599 20.7899 24.9499 20.668C25.04 20.5462 25.0973 20.4032 25.1165 20.2529C25.1357 20.1026 25.116 19.9499 25.0594 19.8093C25.0029 19.6687 24.9112 19.5449 24.7933 19.4498C24.2989 19.0511 23.7883 18.5329 23.3183 18.0223C22.2339 16.8423 22.3695 14.9842 23.5814 13.9479C24.9452 12.7598 26.3245 11.9304 27.337 11.4042C27.487 11.3272 27.6523 11.2849 27.8208 11.2804C27.9893 11.2759 28.1567 11.3094 28.3105 11.3782C28.4644 11.4471 28.6008 11.5497 28.7096 11.6784C28.8185 11.8071 28.8971 11.9586 28.9395 12.1217C28.9795 12.2892 29.0433 12.4486 29.107 12.6161C29.7608 14.3223 31.9458 14.8729 33.4445 13.7961C33.9602 13.4282 34.4505 13.0261 34.912 12.5923C35.3526 14.1002 35.5754 15.6633 35.5739 17.2342ZM32.282 7.30043C29.772 7.93293 27.4408 7.15293 26.0483 6.48855C25.9189 6.42629 25.8086 6.33036 25.729 6.21083C25.6494 6.0913 25.6035 5.95256 25.5959 5.80915C25.5884 5.66575 25.6195 5.52295 25.6862 5.39573C25.7528 5.26851 25.8524 5.16155 25.9745 5.08605C26.7658 4.61168 27.5252 3.98918 28.1577 3.39855C29.7433 4.45653 31.1378 5.77588 32.282 7.30043Z" fill="#B4DD7F"/>
<path d="M11.4778 23.2103H7.9215C7.7743 23.2103 7.63184 23.1583 7.51922 23.0635C7.4066 22.9687 7.33105 22.8372 7.30588 22.6922C7.24723 22.3584 7.20489 22.022 7.179 21.6841C7.0865 20.4616 6.30088 19.5041 5.65775 18.916C5.3957 18.6774 5.19402 18.38 5.06929 18.0483C4.94455 17.7166 4.90033 17.36 4.94025 17.0078C5.18838 14.7972 4.559 12.9941 3.069 11.6466C2.97485 11.5614 2.90887 11.4496 2.87984 11.326C2.85081 11.2024 2.86011 11.0729 2.9065 10.9547C5.26588 4.93471 10.7096 0.77534 17.1134 0.0997146C17.2509 0.0859646 17.3971 0.11909 17.5171 0.195965C18.6269 0.915796 19.6775 1.72293 20.659 2.60971C21.0503 2.96784 21.2178 3.48721 21.1103 4.00221C21.0599 4.25045 20.9452 4.48108 20.7775 4.67097C20.6099 4.86085 20.3953 5.00333 20.1553 5.08409L20.154 5.08471C19.4784 5.31346 18.6415 5.38284 17.6696 5.29034C16.6253 5.18534 15.7715 5.52284 15.119 6.29221C14.6484 6.85471 13.9603 7.17221 13.1834 7.18284C12.2678 7.19034 10.8615 7.59034 9.33775 9.45659C8.83963 10.066 8.66025 10.6397 8.78838 11.2116C9.11025 12.6485 11.2128 13.751 11.8496 14.0547C11.9996 14.1297 12.1765 14.1891 12.3734 14.231C13.6846 14.5353 14.7478 15.2147 15.4596 16.1978C15.6439 16.4562 15.774 16.7492 15.8422 17.0591C15.9103 17.369 15.9152 17.6895 15.8564 18.0013C15.7976 18.3132 15.6764 18.6099 15.5001 18.8737C15.3237 19.1376 15.0959 19.363 14.8303 19.5366C13.5128 20.396 12.579 21.4991 12.0578 22.8147C12.012 22.9313 11.9322 23.0314 11.8288 23.102C11.7253 23.1726 11.603 23.2103 11.4778 23.2103ZM8.46088 21.9603H11.0653C11.7046 20.5741 12.7409 19.4078 14.1503 18.4891C14.2751 18.4069 14.382 18.3003 14.4645 18.1757C14.547 18.0511 14.6034 17.9111 14.6303 17.7641C14.6587 17.6204 14.6572 17.4724 14.626 17.3293C14.5949 17.1862 14.5346 17.0511 14.449 16.9322C13.9084 16.186 13.1184 15.6878 12.1015 15.451C11.8247 15.3937 11.5561 15.302 11.3021 15.1778C10.3309 14.7147 8.00213 13.4178 7.569 11.4841C7.35463 10.5266 7.62463 9.57784 8.37025 8.66534C10.2009 6.42409 11.9909 5.94159 13.1709 5.93222C13.4546 5.92847 13.8609 5.84784 14.164 5.48659C14.809 4.72597 15.9509 3.86034 17.7921 4.04534C18.7759 4.13971 19.4021 4.01846 19.7521 3.90034C19.7867 3.88932 19.8176 3.86915 19.8416 3.84196C19.8656 3.81478 19.8817 3.78161 19.8884 3.74596C19.8964 3.70772 19.8943 3.66804 19.8822 3.63086C19.8702 3.59369 19.8486 3.56033 19.8196 3.53409C18.9436 2.74331 18.01 2.01881 17.0265 1.36659C11.3209 2.04784 6.46525 5.71721 4.22713 11.0253C5.37525 12.1953 6.52025 14.1466 6.18338 17.1447C6.16608 17.3001 6.18545 17.4574 6.23994 17.6039C6.29443 17.7504 6.38252 17.8821 6.49713 17.9885C7.31213 18.7341 8.30275 19.9591 8.42588 21.5885C8.43338 21.7116 8.44588 21.8353 8.46088 21.9603ZM34.6653 23.2578C34.6278 23.2578 34.5903 23.2547 34.5521 23.2478C34.4077 23.222 34.2613 23.2093 34.1146 23.2097H23.6453C23.4924 23.2097 23.3448 23.1537 23.2304 23.0522C23.116 22.9508 23.0428 22.8109 23.0246 22.6591C22.9673 22.1933 23.0607 21.7215 23.2913 21.3128C23.522 20.9041 23.8775 20.5801 24.3059 20.3885C24.3304 20.3772 24.3556 20.3679 24.3815 20.3603C24.4129 20.3404 24.4394 20.3138 24.4592 20.2823C24.479 20.2509 24.4915 20.2154 24.4959 20.1785C24.5022 20.1322 24.4962 20.0851 24.4785 20.0419C24.4609 19.9986 24.4321 19.9608 24.3953 19.9322C23.9528 19.576 23.4628 19.1022 22.859 18.4472C22.5459 18.1079 22.3051 17.7085 22.1511 17.2733C21.9972 16.838 21.9333 16.376 21.9634 15.9153C21.9922 15.4481 22.1143 14.9914 22.3224 14.5721C22.5305 14.1529 22.8205 13.7795 23.1753 13.4741C24.3579 12.4495 25.6581 11.5689 27.0484 10.851C27.2811 10.7312 27.5377 10.665 27.7993 10.6573C28.0609 10.6497 28.3209 10.7007 28.5603 10.8066C28.7994 10.9134 29.0117 11.0723 29.1816 11.2717C29.3515 11.4711 29.4747 11.706 29.5421 11.9591C29.5778 12.1047 29.6265 12.2266 29.6746 12.3528C29.7884 12.6577 29.9718 12.9318 30.2104 13.1532C30.4489 13.3746 30.7359 13.5371 31.0484 13.6278C31.3904 13.7297 31.7512 13.7523 32.1033 13.6938C32.4554 13.6354 32.7895 13.4974 33.0803 13.2903C33.5731 12.939 34.0415 12.5546 34.4821 12.1397C34.56 12.0667 34.6554 12.0147 34.759 11.9889C34.8626 11.9631 34.9712 11.9642 35.0743 11.9921C35.1774 12.02 35.2716 12.0739 35.348 12.1485C35.4244 12.2231 35.4805 12.3161 35.5109 12.4185C35.9684 13.9831 36.1999 15.6052 36.1984 17.2353C36.1984 19.1591 35.8803 21.0447 35.254 22.8397C35.2114 22.9619 35.1318 23.0677 35.0263 23.1426C34.9208 23.2176 34.7946 23.2578 34.6653 23.2578ZM24.3671 21.9603H34.1146L34.229 21.9616C34.7084 20.4318 34.9512 18.8378 34.949 17.2347C34.949 16.0478 34.819 14.8735 34.5615 13.7316C34.3178 13.9297 34.0665 14.1222 33.8084 14.306C33.3621 14.6235 32.8494 14.8352 32.3092 14.9251C31.7689 15.015 31.2153 14.9807 30.6903 14.8247C29.6809 14.5222 28.8909 13.7991 28.524 12.8416C28.4475 12.6554 28.3832 12.4643 28.3315 12.2697C28.3118 12.1988 28.2764 12.1333 28.2281 12.0778C28.1798 12.0223 28.1196 11.9783 28.0521 11.9491C27.9835 11.9188 27.9089 11.9044 27.8339 11.907C27.7589 11.9096 27.6854 11.9291 27.619 11.9641C26.7103 12.436 25.3378 13.2491 23.9921 14.421C23.7623 14.616 23.5745 14.8558 23.4402 15.1257C23.3059 15.3956 23.2279 15.69 23.2109 15.991C23.1914 16.2839 23.2317 16.5777 23.3292 16.8546C23.4268 17.1314 23.5796 17.3856 23.7784 17.6016C24.3384 18.2097 24.7859 18.6435 25.1859 18.9653C25.6003 19.3085 25.8034 19.821 25.7353 20.341C25.7021 20.5953 25.6046 20.8369 25.4519 21.043C25.2992 21.249 25.0964 21.4127 24.8628 21.5185C24.8323 21.5328 24.8008 21.5445 24.7684 21.5535C24.5959 21.6446 24.4558 21.7867 24.3671 21.9603ZM30.3653 8.16096C28.5521 8.16096 26.9371 7.60534 25.7796 7.05346C25.549 6.94318 25.3523 6.77288 25.2101 6.56042C25.0679 6.34796 24.9855 6.10116 24.9715 5.8459C24.9575 5.59063 25.0124 5.33631 25.1305 5.10957C25.2486 4.88284 25.4256 4.69205 25.6428 4.55721C26.3115 4.15596 27.0109 3.61471 27.7315 2.94221C27.8344 2.84615 27.9668 2.78766 28.1071 2.7762C28.2474 2.76474 28.3875 2.801 28.5046 2.87909C30.15 3.97547 31.5966 5.34423 32.7821 6.92659C32.844 7.00896 32.8845 7.10533 32.9001 7.20714C32.9157 7.30895 32.9059 7.41304 32.8716 7.51015C32.8373 7.60726 32.7795 7.69438 32.7033 7.76376C32.6272 7.83314 32.5351 7.88264 32.4353 7.90784C31.7583 8.07724 31.0631 8.16226 30.3653 8.16096ZM28.2121 4.19409C27.5559 4.77284 26.914 5.25159 26.2971 5.62222C26.2714 5.63884 26.2507 5.66218 26.2372 5.68972C26.2238 5.71726 26.2181 5.74794 26.2209 5.77847C26.2219 5.8099 26.2318 5.84041 26.2494 5.86649C26.2669 5.89258 26.2915 5.91319 26.3203 5.92597C27.5109 6.49409 29.2465 7.06972 31.1378 6.87034C30.2763 5.86136 29.2937 4.96249 28.2121 4.19409Z" fill="black"/>
<path d="M37.3047 25.7743V34.5456C37.3036 35.3911 36.9672 36.2017 36.3693 36.7995C35.7714 37.3974 34.9609 37.7338 34.1154 37.735H3.81535C3.39647 37.7351 2.98166 37.6527 2.59464 37.4925C2.20761 37.3323 1.85595 37.0974 1.55976 36.8012C1.26356 36.505 1.02864 36.1533 0.86842 35.7663C0.708197 35.3793 0.625814 34.9645 0.625978 34.5456V25.7743C0.625299 25.027 0.887831 24.3034 1.3675 23.7303C1.84718 23.1573 2.51334 22.7715 3.2491 22.6406C3.43223 22.6006 3.6241 22.585 3.81535 22.585H34.1154C34.9609 22.5861 35.7714 22.9225 36.3693 23.5204C36.9672 24.1183 37.3036 24.9288 37.3047 25.7743Z" fill="#ED5565"/>
<path d="M1.89973 34.5456V25.7743C1.89905 25.027 2.16158 24.3034 2.64125 23.7303C3.12093 23.1573 3.78709 22.7715 4.52285 22.6406C4.70598 22.6006 4.89785 22.585 5.0891 22.585H3.81535C3.6241 22.585 3.43285 22.6012 3.2491 22.6406C2.51329 22.7713 1.84705 23.1571 1.36736 23.7302C0.887664 24.3033 0.625176 25.027 0.625978 25.7743V34.5456C0.625814 34.9645 0.708198 35.3793 0.86842 35.7663C1.02864 36.1533 1.26356 36.505 1.55976 36.8012C1.85595 37.0974 2.20761 37.3323 2.59464 37.4925C2.98167 37.6527 3.39647 37.7351 3.81535 37.735H5.08973C4.67082 37.7351 4.25598 37.6527 3.86892 37.4925C3.48186 37.3323 3.13016 37.0974 2.83391 36.8012C2.53767 36.505 2.30269 36.1534 2.1424 35.7663C1.98211 35.3793 1.89965 34.9645 1.89973 34.5456Z" fill="black" fill-opacity="0.125"/>
<path d="M34.115 38.36H3.81501C2.80356 38.3588 1.83388 37.9565 1.11868 37.2413C0.403475 36.5261 0.00116697 35.5564 9.0476e-06 34.545V25.7743C-0.0019425 24.8798 0.311872 24.0132 0.886168 23.3273C1.46046 22.6414 2.25839 22.1802 3.13938 22.025C3.32938 21.9831 3.56438 21.96 3.81438 21.96H34.1144C34.6156 21.9591 35.112 22.0571 35.5752 22.2485C36.0385 22.4398 36.4594 22.7207 36.8138 23.0751C37.1682 23.4295 37.4492 23.8503 37.6406 24.3135C37.8321 24.7767 37.9302 25.2731 37.9294 25.7743V34.5456C37.9282 35.5569 37.526 36.5264 36.8109 37.2415C36.0958 37.9566 35.1263 38.3588 34.115 38.36ZM3.81501 23.21C3.65376 23.21 3.50813 23.2237 3.38188 23.2512C2.13688 23.4718 1.25063 24.5306 1.25063 25.7743V34.5456C1.25146 35.2256 1.52197 35.8776 2.00282 36.3584C2.48367 36.8393 3.13561 37.1098 3.81563 37.1106H34.1156C34.7957 37.1098 35.4476 36.8393 35.9285 36.3584C36.4093 35.8776 36.6798 35.2256 36.6806 34.5456V25.7743C36.681 25.4375 36.6149 25.1038 36.4861 24.7925C36.3574 24.4812 36.1685 24.1983 35.9303 23.9601C35.6921 23.7219 35.4093 23.5329 35.098 23.4041C34.7868 23.2753 34.4531 23.2091 34.1163 23.2093H3.81501V23.21Z" fill="black"/>
<path d="M6.84824 27.4497L9.51574 31.4866V27.4122C9.51574 27.1472 9.57262 26.9491 9.68637 26.8166C9.80012 26.6841 9.95324 26.6178 10.1464 26.6178C10.3457 26.6178 10.5032 26.6841 10.6182 26.8166C10.7332 26.9491 10.7914 27.1478 10.7914 27.4122V32.7991C10.7914 33.4003 10.542 33.7009 10.0439 33.7009C9.91949 33.7009 9.80699 33.6828 9.70762 33.6472C9.60824 33.6116 9.51449 33.5547 9.42699 33.4766C9.33949 33.3984 9.25887 33.3078 9.18387 33.2034C9.10887 33.0991 9.03449 32.9922 8.95949 32.8834L6.35699 28.8934V32.9066C6.35699 33.1684 6.29637 33.3659 6.17449 33.4997C6.11589 33.5652 6.04368 33.617 5.96293 33.6517C5.88218 33.6864 5.79483 33.7029 5.70699 33.7003C5.51074 33.7003 5.35324 33.6328 5.23512 33.4972C5.11699 33.3616 5.05762 33.1647 5.05762 32.9059V27.6216C5.05762 27.3972 5.08262 27.2216 5.13262 27.0934C5.19199 26.9534 5.29012 26.8391 5.42699 26.7503C5.56387 26.6616 5.71199 26.6172 5.87074 26.6172C5.99512 26.6172 6.10199 26.6372 6.19074 26.6778C6.27949 26.7184 6.35762 26.7728 6.42449 26.8416C6.49137 26.9103 6.56012 26.9991 6.63012 27.1078L6.84824 27.4497ZM16.8232 27.8047H13.6976V29.4866H16.5757C16.7876 29.4866 16.9457 29.5341 17.0501 29.6291C17.1545 29.7241 17.2064 29.8497 17.2064 30.0053C17.2064 30.1609 17.1551 30.2878 17.052 30.3859C16.9495 30.4841 16.7901 30.5328 16.5757 30.5328H13.6976V32.4809H16.9307C17.1489 32.4809 17.3132 32.5316 17.4239 32.6328C17.5345 32.7341 17.5895 32.8691 17.5895 33.0372C17.5895 33.1991 17.5345 33.3309 17.4239 33.4322C17.3132 33.5334 17.1489 33.5841 16.9307 33.5841H13.1601C12.8582 33.5841 12.6407 33.5172 12.5082 33.3834C12.3757 33.2497 12.3095 33.0328 12.3095 32.7341V27.5853C12.3095 27.3859 12.3389 27.2234 12.3982 27.0972C12.4576 26.9709 12.5501 26.8791 12.6764 26.8216C12.8026 26.7641 12.9639 26.7353 13.1601 26.7353H16.8232C17.0445 26.7353 17.2089 26.7841 17.3164 26.8822C17.4239 26.9803 17.4776 27.1091 17.4776 27.2678C17.4806 27.3406 17.4678 27.4132 17.4399 27.4806C17.4121 27.5479 17.3699 27.6084 17.3164 27.6578C17.2082 27.7559 17.0439 27.8047 16.8232 27.8047ZM23.5414 32.5047L22.4339 28.3984L21.3126 32.5053C21.2251 32.8166 21.1564 33.0403 21.1045 33.1759C21.0532 33.3116 20.9632 33.4328 20.8357 33.5403C20.7082 33.6478 20.5382 33.7016 20.3264 33.7016C20.1551 33.7016 20.0139 33.6697 19.9032 33.6059C19.7926 33.5422 19.7032 33.4516 19.6345 33.3347C19.5657 33.2178 19.5101 33.0791 19.4664 32.9191C19.4226 32.7584 19.3839 32.6097 19.3495 32.4728L18.2095 27.8616C18.1407 27.5934 18.107 27.3897 18.107 27.2497C18.107 27.0722 18.1695 26.9228 18.2939 26.8009C18.3548 26.7411 18.4271 26.6941 18.5066 26.6627C18.586 26.6314 18.671 26.6163 18.7564 26.6184C19.0089 26.6184 19.1782 26.6997 19.2657 26.8616C19.3532 27.0234 19.4295 27.2584 19.4945 27.5672L20.3914 31.5666L21.3957 27.8241C21.4707 27.5378 21.5376 27.3197 21.5964 27.1697C21.6551 27.0197 21.752 26.8909 21.8857 26.7822C22.0195 26.6734 22.202 26.6184 22.4326 26.6184C22.6664 26.6184 22.8476 26.6753 22.977 26.7891C23.1064 26.9028 23.1957 27.0266 23.2457 27.1603C23.2957 27.2941 23.3626 27.5153 23.4464 27.8241L24.4601 31.5666L25.357 27.5672C25.4007 27.3584 25.442 27.1947 25.4807 27.0766C25.5195 26.9584 25.5864 26.8522 25.6814 26.7591C25.7764 26.6653 25.9145 26.6191 26.0951 26.6191C26.2757 26.6191 26.4289 26.6791 26.5551 26.7991C26.6814 26.9191 26.7445 27.0691 26.7445 27.2497C26.7445 27.3772 26.7101 27.5816 26.642 27.8616L25.502 32.4728C25.4239 32.7841 25.3595 33.0122 25.3082 33.1572C25.257 33.3022 25.1695 33.4291 25.0464 33.5378C24.9232 33.6466 24.7495 33.7016 24.5251 33.7016C24.3132 33.7016 24.1439 33.6484 24.0157 33.5428C23.8882 33.4372 23.7995 33.3178 23.7495 33.1853C23.6995 33.0528 23.632 32.8259 23.5414 32.5047ZM32.872 31.5284C32.872 31.9428 32.7651 32.3147 32.552 32.6453C32.3389 32.9759 32.0264 33.2341 31.6151 33.4209C31.2039 33.6078 30.7164 33.7016 30.1526 33.7016C29.477 33.7016 28.9189 33.5741 28.4801 33.3184C28.1717 33.1376 27.9113 32.8853 27.7207 32.5828C27.5264 32.2759 27.4289 31.9778 27.4289 31.6878C27.4289 31.5197 27.487 31.3753 27.6039 31.2559C27.6617 31.1966 27.7312 31.1499 27.808 31.1189C27.8849 31.0879 27.9673 31.0733 28.0501 31.0759C28.1964 31.0759 28.3201 31.1228 28.4214 31.2159C28.5226 31.3097 28.6089 31.4478 28.6807 31.6316C28.7682 31.8497 28.862 32.0316 28.9632 32.1784C29.0645 32.3247 29.207 32.4453 29.3907 32.5403C29.5745 32.6353 29.8157 32.6828 30.1151 32.6828C30.5264 32.6828 30.8601 32.5872 31.117 32.3953C31.3739 32.2041 31.5026 31.9647 31.5026 31.6784C31.5026 31.4509 31.4332 31.2666 31.2945 31.1247C31.1557 30.9828 30.977 30.8747 30.757 30.7997C30.5376 30.7247 30.2439 30.6453 29.8764 30.5616C29.3845 30.4466 28.9726 30.3116 28.6407 30.1572C28.3089 30.0028 28.0457 29.7928 27.8514 29.5266C27.657 29.2603 27.5595 28.9291 27.5595 28.5334C27.5595 28.1566 27.662 27.8216 27.8676 27.5291C28.0732 27.2366 28.3707 27.0109 28.7601 26.8541C29.1495 26.6966 29.6076 26.6178 30.1339 26.6178C30.5545 26.6178 30.9182 26.6697 31.2251 26.7741C31.532 26.8784 31.7864 27.0172 31.9889 27.1897C32.1914 27.3628 32.3395 27.5441 32.4326 27.7341C32.5264 27.9241 32.5726 28.1097 32.5726 28.2903C32.5726 28.4553 32.5145 28.6041 32.3976 28.7366C32.2807 28.8691 32.1351 28.9353 31.9607 28.9353C31.802 28.9353 31.6814 28.8953 31.5989 28.8159C31.5164 28.7366 31.427 28.6066 31.3301 28.4259C31.2057 28.1672 31.0557 27.9659 30.8814 27.8209C30.707 27.6759 30.4264 27.6034 30.0401 27.6034C29.682 27.6034 29.3932 27.6822 29.1732 27.8397C28.9539 27.9972 28.8439 28.1859 28.8439 28.4072C28.8439 28.5441 28.8814 28.6628 28.9557 28.7622C29.0307 28.8616 29.1332 28.9478 29.2639 29.0191C29.3945 29.0909 29.527 29.1466 29.6607 29.1872C29.7945 29.2278 30.0157 29.2866 30.3245 29.3647C30.7107 29.4553 31.0601 29.5547 31.3732 29.6634C31.6864 29.7722 31.9526 29.9047 32.172 30.0603C32.3914 30.2159 32.5626 30.4128 32.6857 30.6516C32.8101 30.8909 32.872 31.1828 32.872 31.5284Z" fill="black"/>
<path d="M4.52896 17.2344C4.52896 15.0975 4.92771 13.0562 5.66896 11.1825C7.88584 5.52938 13.0927 1.3825 19.3602 0.720625C19.6524 0.688531 19.9454 0.664771 20.239 0.649375C20.0221 0.64125 19.8077 0.625 19.5896 0.625C18.9833 0.625 18.3858 0.656875 17.8033 0.720625C11.5358 1.3825 6.32896 5.52875 4.11271 11.1825C3.35417 13.1098 2.96736 15.1632 2.97271 17.2344C2.97271 19.1244 3.29146 20.9425 3.87396 22.6406C4.05709 22.6006 4.24896 22.585 4.44021 22.585H5.41396C4.82789 20.862 4.52891 19.0543 4.52896 17.2344Z" fill="black" fill-opacity="0.125"/>
</svg>
