<svg width="39" height="39" viewBox="0 0 39 39" fill="none" xmlns="http://www.w3.org/2000/svg">
<path fill-rule="evenodd" clip-rule="evenodd" d="M22.1518 32.4735C31.0947 32.4735 38.3886 25.1797 38.3886 16.2367C38.3886 7.29375 31.0947 0 22.1518 0C13.209 0 5.91504 7.29383 5.91504 16.2368C5.91504 25.1798 13.2089 32.4735 22.1518 32.4735Z" fill="#64B5F6"/>
<path fill-rule="evenodd" clip-rule="evenodd" d="M32.8243 4.00122C36.2337 6.97771 38.3882 11.3554 38.3882 16.2368C38.3882 25.204 31.1188 32.4735 22.1515 32.4735C17.2702 32.4735 12.8925 30.319 9.91602 26.9097C12.7699 29.4012 16.503 30.911 20.5889 30.911C29.5562 30.911 36.8256 23.6415 36.8256 14.6743C36.8256 10.5883 35.3159 6.85513 32.8242 4.00122H32.8243Z" fill="#42A5F5"/>
<path fill-rule="evenodd" clip-rule="evenodd" d="M22.1523 29.759C29.6003 29.759 35.6747 23.6845 35.6747 16.2366C35.6747 8.78872 29.6002 2.71411 22.1523 2.71411C14.7044 2.71411 8.62988 8.78864 8.62988 16.2366C8.62988 23.6846 14.7043 29.759 22.1523 29.759Z" fill="#E6F8FF"/>
<path fill-rule="evenodd" clip-rule="evenodd" d="M12.5905 25.7989C7.30967 20.518 7.30967 11.956 12.5905 6.67519C17.8714 1.3944 26.4333 1.3944 31.7141 6.67519C31.8982 6.85961 32.077 7.04924 32.2503 7.24386C26.9404 2.50644 18.7908 2.68464 13.6954 7.78003C8.59998 12.8754 8.42178 21.025 13.1592 26.335C12.9646 26.1617 12.775 25.9829 12.5905 25.7989Z" fill="#CBF0FF"/>
<path fill-rule="evenodd" clip-rule="evenodd" d="M21.5273 2.61084C21.5273 2.44508 21.5932 2.28611 21.7104 2.1689C21.8276 2.05169 21.9865 1.98584 22.1523 1.98584C22.3181 1.98584 22.477 2.05169 22.5942 2.1689C22.7115 2.28611 22.7773 2.44508 22.7773 2.61084V5.05084C22.7773 5.2166 22.7115 5.37557 22.5942 5.49278C22.477 5.60999 22.3181 5.67584 22.1523 5.67584C21.9865 5.67584 21.8276 5.60999 21.7104 5.49278C21.5932 5.37557 21.5273 5.2166 21.5273 5.05084V2.61084ZM12.0754 7.04373C11.9581 6.92652 11.8923 6.76754 11.8923 6.60178C11.8923 6.43601 11.9581 6.27704 12.0754 6.15982C12.1926 6.04261 12.3515 5.97676 12.5173 5.97676C12.6831 5.97676 12.842 6.04261 12.9593 6.15982L14.6846 7.88522C14.8019 8.00243 14.8677 8.1614 14.8677 8.32717C14.8677 8.49293 14.8019 8.65191 14.6846 8.76912C14.5674 8.88634 14.4085 8.95218 14.2427 8.95218C14.0769 8.95218 13.918 8.88634 13.8007 8.76912L12.0754 7.04373ZM8.52637 16.8617C8.36061 16.8617 8.20164 16.7959 8.08443 16.6786C7.96722 16.5614 7.90137 16.4025 7.90137 16.2367C7.90137 16.0709 7.96722 15.912 8.08443 15.7948C8.20164 15.6775 8.36061 15.6117 8.52637 15.6117H10.9664C11.1322 15.6117 11.2912 15.6775 11.4084 15.7948C11.5256 15.912 11.5914 16.0709 11.5914 16.2367C11.5914 16.4025 11.5256 16.5614 11.4084 16.6786C11.2912 16.7959 11.1322 16.8617 10.9664 16.8617H8.52637ZM12.9593 26.3137C12.842 26.4309 12.6831 26.4967 12.5173 26.4967C12.3515 26.4967 12.1926 26.4309 12.0754 26.3137C11.9581 26.1964 11.8923 26.0375 11.8923 25.8717C11.8923 25.7059 11.9581 25.547 12.0754 25.4297L13.8007 23.7044C13.8588 23.6463 13.9277 23.6003 14.0035 23.5689C14.0793 23.5375 14.1606 23.5213 14.2427 23.5213C14.3248 23.5213 14.406 23.5375 14.4819 23.5689C14.5577 23.6003 14.6266 23.6463 14.6846 23.7044C14.7427 23.7624 14.7887 23.8313 14.8201 23.9071C14.8515 23.983 14.8677 24.0642 14.8677 24.1463C14.8677 24.2284 14.8515 24.3097 14.8201 24.3855C14.7887 24.4613 14.7427 24.5302 14.6846 24.5883L12.9593 26.3137ZM22.7773 29.8626C22.7773 30.0284 22.7115 30.1874 22.5942 30.3046C22.477 30.4218 22.3181 30.4876 22.1523 30.4876C21.9865 30.4876 21.8276 30.4218 21.7104 30.3046C21.5932 30.1874 21.5273 30.0284 21.5273 29.8626V27.4226C21.5273 27.2568 21.5932 27.0978 21.7104 26.9806C21.8276 26.8634 21.9865 26.7976 22.1523 26.7976C22.3181 26.7976 22.477 26.8634 22.5942 26.9806C22.7115 27.0978 22.7773 27.2568 22.7773 27.4226V29.8626ZM32.2292 25.4297C32.3464 25.547 32.4122 25.7059 32.4122 25.8717C32.4122 26.0375 32.3464 26.1964 32.2292 26.3137C32.112 26.4309 31.953 26.4967 31.7872 26.4967C31.6215 26.4967 31.4625 26.4309 31.3453 26.3137L29.6199 24.5883C29.5618 24.5302 29.5158 24.4613 29.4844 24.3855C29.453 24.3097 29.4368 24.2284 29.4368 24.1463C29.4368 24.0642 29.453 23.983 29.4844 23.9071C29.5158 23.8313 29.5618 23.7624 29.6199 23.7044C29.6779 23.6463 29.7468 23.6003 29.8227 23.5689C29.8985 23.5375 29.9798 23.5213 30.0618 23.5213C30.1439 23.5213 30.2252 23.5375 30.301 23.5689C30.3769 23.6003 30.4458 23.6463 30.5038 23.7044L32.2292 25.4297ZM35.7782 15.6118C35.9439 15.6118 36.1029 15.6776 36.2201 15.7948C36.3373 15.912 36.4032 16.071 36.4032 16.2368C36.4032 16.4025 36.3373 16.5615 36.2201 16.6787C36.1029 16.7959 35.9439 16.8618 35.7782 16.8618H33.3381C33.1723 16.8618 33.0134 16.7959 32.8961 16.6787C32.7789 16.5615 32.7131 16.4025 32.7131 16.2368C32.7131 16.071 32.7789 15.912 32.8961 15.7948C33.0134 15.6776 33.1723 15.6118 33.3381 15.6118H35.7782ZM31.3453 6.15982C31.4625 6.04261 31.6215 5.97676 31.7872 5.97676C31.953 5.97676 32.112 6.04261 32.2292 6.15982C32.3464 6.27704 32.4122 6.43601 32.4122 6.60178C32.4122 6.76754 32.3464 6.92652 32.2292 7.04373L30.5038 8.76912C30.4458 8.82716 30.3769 8.8732 30.301 8.90461C30.2252 8.93602 30.1439 8.95218 30.0618 8.95218C29.9798 8.95218 29.8985 8.93602 29.8227 8.90461C29.7468 8.8732 29.6779 8.82716 29.6199 8.76912C29.5618 8.71108 29.5158 8.64218 29.4844 8.56635C29.453 8.49052 29.4368 8.40925 29.4368 8.32717C29.4368 8.24509 29.453 8.16382 29.4844 8.08799C29.5158 8.01215 29.5618 7.94325 29.6199 7.88522L31.3453 6.15982Z" fill="#465759"/>
<path d="M23.0626 7.85748C23.0626 7.3351 22.6391 6.91162 22.1168 6.91162C21.5944 6.91162 21.1709 7.3351 21.1709 7.85748V16.8139C21.1709 17.3363 21.5944 17.7597 22.1168 17.7597C22.6391 17.7597 23.0626 17.3363 23.0626 16.8139V7.85748Z" fill="#96A4AF"/>
<path fill-rule="evenodd" clip-rule="evenodd" d="M22.1168 6.91162C22.2558 6.91162 22.3882 6.94209 22.5074 6.99662C22.1806 7.146 21.9521 7.47639 21.9521 7.85748V16.8139C21.9521 17.1951 22.1807 17.5254 22.5074 17.6747C22.3848 17.7309 22.2516 17.7598 22.1168 17.7597C21.5965 17.7597 21.1709 17.3341 21.1709 16.8139V7.85748C21.1709 7.33725 21.5965 6.91162 22.1168 6.91162Z" fill="#8696A3"/>
<path fill-rule="evenodd" clip-rule="evenodd" d="M24.9953 23.8189C24.5141 24.0166 23.9587 23.7846 23.7609 23.3035L21.3167 17.3548C21.119 16.8736 21.3509 16.3182 21.8321 16.1204C22.3133 15.9227 22.8687 16.1546 23.0665 16.6358L25.5107 22.5844C25.7084 23.0656 25.4765 23.621 24.9953 23.8188V23.8189Z" fill="#96A4AF"/>
<path fill-rule="evenodd" clip-rule="evenodd" d="M24.9953 23.8188C24.5141 24.0166 23.9587 23.7846 23.7609 23.3034L21.3167 17.3548C21.119 16.8736 21.3509 16.3181 21.8321 16.1204C22.0818 16.0178 22.3515 16.0309 22.5809 16.1345C22.1218 16.3434 21.9048 16.8845 22.098 17.3548L24.5422 23.3034C24.6339 23.5265 24.8077 23.7059 25.0277 23.8047C25.017 23.8096 25.0062 23.8143 24.9952 23.8188H24.9953Z" fill="#8696A3"/>
<path fill-rule="evenodd" clip-rule="evenodd" d="M22.1512 17.7786C23.0003 17.7786 23.693 17.086 23.693 16.2368C23.693 15.3876 23.0003 14.6951 22.1512 14.6951C21.302 14.6951 20.6094 15.3876 20.6094 16.2368C20.6094 17.0859 21.302 17.7786 22.1512 17.7786Z" fill="#64B5F6"/>
<path fill-rule="evenodd" clip-rule="evenodd" d="M22.1511 14.6951C22.2861 14.6951 22.417 14.7124 22.5417 14.7451C21.8794 14.918 21.3906 15.5203 21.3906 16.2368C21.3906 16.9533 21.8795 17.5556 22.5417 17.7285C22.417 17.7611 22.2861 17.7785 22.1511 17.7785C21.2996 17.7785 20.6094 17.0882 20.6094 16.2368C20.6094 15.3854 21.2997 14.6951 22.1511 14.6951Z" fill="#42A5F5"/>
<path fill-rule="evenodd" clip-rule="evenodd" d="M5.28352 26.5642H16.4624C19.3684 26.5642 21.7459 28.9418 21.7459 31.8476V38.5938H0V31.8476C0 28.9417 2.37758 26.5642 5.28352 26.5642Z" fill="#FFDA2D"/>
<path fill-rule="evenodd" clip-rule="evenodd" d="M5.28316 26.5642H16.4621C19.368 26.5642 21.7456 28.9418 21.7456 31.8476V38.5938H20.0486V32.6289C20.0486 29.723 17.6711 27.3455 14.7651 27.3455H3.58621C3.13379 27.3455 2.69418 27.4031 2.27441 27.5114C3.12973 26.915 4.16738 26.5642 5.28316 26.5642Z" fill="#FFC700"/>
<path fill-rule="evenodd" clip-rule="evenodd" d="M16.5447 26.5457V36.4838C16.5447 36.6495 16.4788 36.8085 16.3616 36.9257C16.2444 37.0429 16.0854 37.1088 15.9197 37.1088H5.8623C5.69654 37.1088 5.53757 37.0429 5.42036 36.9257C5.30315 36.8085 5.2373 36.6495 5.2373 36.4838V26.5457H6.4873V35.8588H15.2947V26.5457H16.5447Z" fill="#96A4AF"/>
<path fill-rule="evenodd" clip-rule="evenodd" d="M5.31859 33.2974H16.4277C17.0659 33.2974 17.588 33.8195 17.588 34.4578V38.5941H4.1582V34.4578C4.1582 33.8196 4.68031 33.2974 5.31859 33.2974Z" fill="#FC685B"/>
<path fill-rule="evenodd" clip-rule="evenodd" d="M5.31859 33.2974H16.4277C16.9511 33.2974 17.3964 33.6486 17.5396 34.127C17.4323 34.0949 17.3209 34.0786 17.2089 34.0786H6.09984C5.46164 34.0786 4.93945 34.6007 4.93945 35.239V38.5941H4.1582V34.4578C4.1582 33.8196 4.68031 33.2974 5.31859 33.2974Z" fill="#FB4737"/>
<path fill-rule="evenodd" clip-rule="evenodd" d="M8.68848 23.4092H13.0581V28.2183C13.0581 29.42 12.075 30.4031 10.8733 30.4031C9.67168 30.4031 8.68855 29.42 8.68855 28.2183L8.68848 23.4092Z" fill="#EAAB92"/>
<path fill-rule="evenodd" clip-rule="evenodd" d="M8.68848 23.4092H9.46973V27.4371C9.46973 28.6388 10.4529 29.6218 11.6545 29.6218C12.056 29.6218 12.433 29.512 12.7571 29.321C12.3765 29.9671 11.6734 30.4031 10.8732 30.4031C9.6716 30.4031 8.68848 29.42 8.68848 28.2183V23.4092Z" fill="#E59879"/>
<path d="M5.91371 19.2393H15.8328C16.4271 19.2393 16.9096 19.7218 16.9096 20.3161C16.9096 20.9104 16.4271 21.3929 15.8328 21.3929H5.91371C5.31941 21.3929 4.83691 20.9104 4.83691 20.3161C4.83691 19.7218 5.31941 19.2393 5.91379 19.2393H5.91371Z" fill="#F9C6AA"/>
<path fill-rule="evenodd" clip-rule="evenodd" d="M16.836 19.9258C16.8836 20.047 16.9097 20.1788 16.9097 20.3164C16.9097 20.9087 16.4252 21.3933 15.8329 21.3933H5.91379C5.32152 21.3933 4.83691 20.9088 4.83691 20.3165C4.83691 20.1789 4.86309 20.0471 4.91066 19.9259C5.06793 20.3265 5.4591 20.612 5.91379 20.612H15.8329C16.2876 20.612 16.6788 20.3265 16.836 19.9259V19.9258Z" fill="#EAAB92"/>
<path fill-rule="evenodd" clip-rule="evenodd" d="M9.8293 14.0161H11.6684C13.9889 14.0161 16.0118 16.9503 16.0118 19.2709V20.8936C16.0118 23.4963 12.623 25.5629 10.8 25.5805C9.00758 25.5978 5.73438 23.6021 5.73438 20.8936V19.2709C5.73438 16.9503 7.50875 14.0161 9.8293 14.0161Z" fill="#FFD6BD"/>
<path fill-rule="evenodd" clip-rule="evenodd" d="M15.9298 21.5953C15.4028 23.8582 12.4557 25.5645 10.8 25.5804C9.00758 25.5977 5.73438 23.602 5.73438 20.8936V19.2708C5.73438 18.1483 6.14961 16.8821 6.84102 15.874C6.63102 16.4862 6.51562 17.1171 6.51562 17.7083V19.3311C6.51562 22.0395 9.78883 24.0352 11.5812 24.0179C12.8266 24.0059 14.8026 23.0375 15.9298 21.5953Z" fill="#F9C6AA"/>
<path fill-rule="evenodd" clip-rule="evenodd" d="M16.0114 19.617C15.6266 14.6229 11.9009 17.0072 9.99754 15.2494C8.72441 14.0736 6.22668 17.2202 5.7341 20.0821C1.90918 12.5869 9.10902 9.16273 9.64988 11.3637C9.68543 11.5084 9.7966 11.4169 9.8198 11.357C10.6974 9.08788 19.8293 10.9557 16.0114 19.617Z" fill="#004960"/>
<path fill-rule="evenodd" clip-rule="evenodd" d="M16.0112 19.6171C15.982 19.2376 15.9332 18.9014 15.8676 18.602C17.7508 11.4862 9.85144 10.0355 9.03824 12.1383C9.01512 12.1981 8.90387 12.2896 8.86832 12.145C8.63332 11.1884 7.14074 11.2948 5.84184 12.3355C7.2373 10.6055 9.36504 10.2057 9.64957 11.3637C9.68512 11.5084 9.79629 11.4169 9.81949 11.357C10.6971 9.08788 19.8291 10.9557 16.0112 19.617V19.6171ZM7.50105 16.238C6.7023 16.8609 5.89262 18.0444 5.38574 19.3405C5.49357 19.5914 5.60967 19.8388 5.73387 20.0821C5.97316 18.6919 6.68566 17.2346 7.50105 16.238Z" fill="#003D50"/>
</svg>
