<svg width="32" height="36" viewBox="0 0 32 36" fill="none" xmlns="http://www.w3.org/2000/svg">
<path fill-rule="evenodd" clip-rule="evenodd" d="M15.7236 0H20.8838V3.45703H15.7236V0Z" fill="#D81159"/>
<path d="M16.348 5.42109C16.348 5.76641 16.0691 6.04531 15.7238 6.04531C15.3785 6.04531 15.0996 5.76641 15.0996 5.42109V0.624219C15.0996 0.278906 15.3785 0 15.7238 0C16.0691 0 16.348 0.278906 16.348 0.624219V5.42109Z" fill="#1D4E89"/>
<path fill-rule="evenodd" clip-rule="evenodd" d="M2.66211 28.322H8.78789V30.5322H2.66211V28.322ZM28.7848 28.322H22.6613V30.5322H28.7848V28.322ZM18.7863 28.322H12.6605V30.5322H18.7863V28.322Z" fill="#336666"/>
<path fill-rule="evenodd" clip-rule="evenodd" d="M3.30273 28.322H8.78789V30.065H3.30273V28.322ZM23.302 28.322V30.065H28.7855V28.322H23.302ZM13.3035 28.322V30.065H18.7871V28.322H13.3035Z" fill="#19CFBA"/>
<path fill-rule="evenodd" clip-rule="evenodd" d="M0.813477 16.0352H30.6369V18.5023H0.813477V16.0352ZM0.813477 33.0016H30.6369V30.532H0.813477V33.0016Z" fill="#9E4521"/>
<path fill-rule="evenodd" clip-rule="evenodd" d="M1.72949 16.0352H30.6365V17.8203H1.72949V16.0352ZM1.72949 32.3172H30.6365V30.532H1.72949V32.3172Z" fill="#FBB13C"/>
<path fill-rule="evenodd" clip-rule="evenodd" d="M2.66211 20.7126H8.78789V18.5024H2.66211V20.7126ZM18.7863 20.7126H12.6605V18.5024H18.7863V20.7126ZM28.7848 20.7126H22.6613V18.5024H28.7848V20.7126Z" fill="#336666"/>
<path fill-rule="evenodd" clip-rule="evenodd" d="M8.78789 20.2454V18.5024H3.30273V20.2454H8.78789ZM18.7871 20.2454H13.3035V18.5024H18.7871V20.2454ZM28.7855 20.2454H23.302V18.5024H28.7855V20.2454Z" fill="#19CFBA"/>
<path fill-rule="evenodd" clip-rule="evenodd" d="M4.49121 20.7126H6.9584V28.322H4.49121V20.7126Z" fill="#FBB13C"/>
<path fill-rule="evenodd" clip-rule="evenodd" d="M15.7238 5.42114C21.641 5.42114 26.4379 8.92896 26.4379 13.2563H5.00977C5.00977 8.92896 9.80664 5.42114 15.7238 5.42114Z" fill="#9E4521"/>
<path fill-rule="evenodd" clip-rule="evenodd" d="M21.6346 6.72104C24.5291 8.12261 26.4377 10.5257 26.4377 13.2562H6.44238C6.84551 9.19683 11.476 5.99683 17.1275 5.99683C18.7377 5.99683 20.2658 6.2562 21.6346 6.72104Z" fill="#FBB13C"/>
<path fill-rule="evenodd" clip-rule="evenodd" d="M0 13.2563H31.4469V16.0353H0V13.2563ZM0 33.0017H31.4469V35.7806H0V33.0017Z" fill="#00306C"/>
<path fill-rule="evenodd" clip-rule="evenodd" d="M0.839844 13.2563H31.4477V15.2915H0.839844V13.2563ZM31.4469 35.0368H0.839844V33.0017H31.4477V35.0368H31.4469Z" fill="#1D4E89"/>
<path fill-rule="evenodd" clip-rule="evenodd" d="M14.4902 20.7126H16.9574V28.322H14.4902V20.7126ZM24.3605 20.7126H26.8301V28.322H24.3605V20.7126Z" fill="#FBB13C"/>
</svg>
