<svg width="40" height="40" viewBox="0 0 40 40" fill="none" xmlns="http://www.w3.org/2000/svg">
<path d="M17.5965 31.321C26.1148 31.321 33.0202 24.4156 33.0202 15.8973C33.0202 7.37906 26.1148 0.473633 17.5965 0.473633C9.07827 0.473633 2.17285 7.37906 2.17285 15.8973C2.17285 24.4156 9.07827 31.321 17.5965 31.321Z" fill="#FF8D5C"/>
<path d="M22.5886 1.2998C25.3403 9.36709 21.0312 18.1376 12.9639 20.8893C9.73367 21.9912 6.22929 21.9912 2.99902 20.8893C5.75742 28.95 14.5279 33.2482 22.5886 30.4899C30.6492 27.7316 34.9474 18.9609 32.189 10.9003C31.4271 8.6738 30.1659 6.65109 28.5018 4.98705C26.8378 3.323 24.8151 2.06174 22.5886 1.2998Z" fill="#FF774D"/>
<path d="M38.8162 27.48C39.1137 26.6283 39.3422 25.7541 39.4994 24.8657C39.5606 24.5136 39.5205 24.1513 39.3837 23.8211C39.247 23.4908 39.0191 23.2063 38.7268 23.0006C37.9873 22.4835 37.2074 22.0267 36.3945 21.6348L36.9597 24.5574L38.8162 27.48Z" fill="#B56959"/>
<path d="M16.1143 38.1013C14.7858 37.5905 13.5276 36.9128 12.3701 36.0846C12.0861 35.8796 11.8647 35.5996 11.7307 35.276C11.5966 34.9524 11.5552 34.5979 11.6111 34.2522C11.8434 32.8516 12.2524 31.4861 12.8283 30.1885L15.2771 34.1448L16.1143 38.1013Z" fill="#A85B4A"/>
<path d="M18.7336 38.8741C21.5174 39.4516 24.9808 39.415 28.9055 37.7894C33.482 35.8938 36.1117 32.9034 37.6212 30.1656L36.3946 24.9619L33.6551 20.5828C30.6514 19.7133 26.6761 19.4573 22.0977 21.3537C18.1727 22.9795 15.6978 25.4029 14.1377 27.7799L15.7808 33.5899L18.7336 38.8741Z" fill="#B56959"/>
<path d="M29.4669 35.9309C22.9108 35.9308 17.5543 30.696 17.4035 24.1416C16.1382 25.1833 15.0372 26.4099 14.1377 27.7799L15.7808 33.5899L18.7337 38.874C21.5175 39.4515 24.9809 39.415 28.9056 37.7894C30.4251 37.1682 31.856 36.3494 33.1612 35.3539C31.9673 35.7372 30.7208 35.9319 29.4669 35.9309Z" fill="#A85B4A"/>
<path d="M33.6514 20.582L37.6209 30.1653C38.0946 29.3052 38.4947 28.4066 38.8169 27.4791L36.3965 21.6358C35.5128 21.2077 34.5945 20.8552 33.6514 20.582Z" fill="#F2F2FF"/>
<path d="M16.1034 38.0967C16.9574 38.4273 17.8371 38.6871 18.7338 38.8735L14.1388 27.7803C13.6366 28.546 13.1982 29.3518 12.8281 30.1895L16.1034 38.0967Z" fill="#CCCCF0"/>
<path d="M7.08257 37.4308C10.7326 37.4308 13.6915 34.4719 13.6915 30.8218C13.6915 27.1718 10.7326 24.2129 7.08257 24.2129C3.43256 24.2129 0.473633 27.1718 0.473633 30.8218C0.473633 34.4719 3.43256 37.4308 7.08257 37.4308Z" fill="#F2F2FF"/>
<path d="M10.0582 24.9189C9.47077 29.5557 5.55137 33.0474 0.87793 33.0975C2.13572 36.5241 5.9331 38.2822 9.35966 37.0244C12.7862 35.7666 14.5443 31.9692 13.2865 28.5427C12.7089 26.9691 11.5549 25.6738 10.0582 24.9189Z" fill="#E6E6FF"/>
<path d="M38.9994 22.614C38.2392 22.0818 37.4371 21.612 36.601 21.2092C35.6978 20.772 34.7594 20.4116 33.7957 20.1317C33.7927 20.1308 33.79 20.1291 33.7869 20.1282C33.5196 20.0508 33.2504 19.9798 32.9796 19.9154C33.3211 18.6033 33.4936 17.2529 33.4931 15.897C33.4931 7.13139 26.3618 0 17.5962 0C8.8305 0 1.69919 7.13146 1.69919 15.8971C1.69373 18.8979 2.54242 21.8383 4.14607 24.3746C3.62312 24.6142 3.13108 24.9161 2.68068 25.2739C-0.383469 27.7048 -0.896673 32.1596 1.53431 35.2236C3.96528 38.2877 8.41992 38.801 11.4841 36.37C11.5717 36.3005 11.6576 36.2289 11.7419 36.1554C12.0277 36.4648 19.1574 42.3398 29.0869 38.2267C33.069 36.5773 36.0799 33.9421 38.0359 30.3942L38.0352 30.3939C38.5215 29.5107 38.9323 28.588 39.2632 27.6357C39.5695 26.7599 39.8045 25.8609 39.966 24.9473C40.0415 24.5068 39.9907 24.0539 39.8197 23.641C39.6487 23.2282 39.3643 22.8721 38.9994 22.614ZM39.0334 24.7849C38.9571 25.2206 38.8623 25.6529 38.7492 26.0806L37.3377 22.6729C37.7201 22.8954 38.0928 23.134 38.4548 23.3882C38.6732 23.5427 38.8434 23.7558 38.9458 24.003C39.0482 24.2501 39.0786 24.5212 39.0334 24.7849ZM32.0518 19.7201C31.684 19.653 31.314 19.5979 30.9425 19.5552C30.8212 13.9641 27.8977 10.612 25.8566 8.15772C24.8877 6.99271 24.0297 5.95971 23.5288 4.93186C25.8871 5.05092 27.7398 5.78157 29.3441 6.66044C30.7757 8.47908 31.7654 10.6053 32.2352 12.8715C32.7051 15.1378 32.6423 17.4822 32.0518 19.7201ZM23.4601 20.3472C23.3635 16.6099 22.5617 10.9356 18.5362 5.51649C19.8259 5.16522 21.152 4.96496 22.488 4.91975C23.0034 6.20594 23.9941 7.39859 25.1289 8.76302C27.2977 11.3707 29.8596 14.4529 29.9983 19.4733C27.7834 19.3526 25.5656 19.6491 23.4601 20.3472ZM27.6556 4.84666C26.2222 4.2949 24.7047 3.99362 23.1692 3.95597C23.0208 3.31777 23.0106 2.6552 23.1395 2.01275C24.8022 2.67978 26.3318 3.63961 27.6556 4.84666ZM22.2401 1.68594C22.0693 2.43472 22.0563 3.21083 22.2019 3.96491C20.7449 4.03983 19.3019 4.28715 17.9031 4.70169C16.8874 3.43665 15.7345 2.2882 14.4656 1.27741C17.0478 0.725351 19.73 0.866298 22.2401 1.68594ZM13.2857 1.58104C13.7839 1.92838 15.2802 3.04673 16.924 5.00329C15.9448 5.32608 14.4932 5.79801 12.3089 7.23151C10.5159 5.60465 8.46544 5.30215 7.01081 5.34971C8.75829 3.59353 10.9144 2.29859 13.2857 1.58104ZM6.06226 6.39483C7.18697 6.21624 9.52373 6.11498 11.5058 7.7866C6.49419 11.4222 4.20439 16.4774 3.26963 20.1798C1.84559 15.4065 2.89275 10.2376 6.06226 6.39483ZM3.87902 21.8529C4.30118 19.4266 5.98038 12.8928 12.1897 8.46128C13.4658 9.97378 13.0716 11.5685 12.444 14.1063C11.761 16.8684 10.8882 20.4039 11.778 25.5255C10.877 24.7252 9.78655 24.1681 8.60999 23.907C7.43343 23.6459 6.2097 23.6896 5.05471 24.0337C4.60294 23.3407 4.20968 22.6112 3.87902 21.8529ZM0.987246 30.1198C1.14461 28.7194 1.78282 27.417 2.79308 26.4345C2.91819 26.7813 3.02346 27.1349 3.10838 27.4936L2.4178 27.9196C1.87975 28.2516 2.38742 29.0501 2.91472 28.7253L3.30394 28.4852C3.3774 28.9626 3.42436 29.4438 3.44473 29.9265L2.7646 29.8482C2.14302 29.7768 2.03388 30.7169 2.6563 30.7885L3.45246 30.8802C3.43641 31.483 3.3833 32.0844 3.29341 32.6807L2.66857 32.321C2.12575 32.0081 1.6542 32.8292 2.19626 33.1414L3.11247 33.6688C3.00551 34.1645 2.87527 34.6548 2.72219 35.1383C2.07404 34.4862 1.58142 33.6963 1.28102 32.8274C0.980622 31.9585 0.880203 31.033 0.987246 30.1198ZM6.38059 36.9173C5.34146 36.7996 4.35005 36.4167 3.50154 35.8055C3.64173 35.3875 3.81297 34.8407 3.97293 34.164L4.36617 34.3904C4.90376 34.7002 5.38637 33.8856 4.83847 33.57L4.17372 33.1873C4.30171 32.4611 4.37859 31.7267 4.40381 30.9897L5.10992 31.071C5.73166 31.1429 5.8408 30.2023 5.21823 30.1307L4.40442 30.0371C4.38337 29.3348 4.3086 28.6352 4.18076 27.9444L5.09773 27.3788C5.6304 27.0502 5.13431 26.2445 4.60081 26.5731L3.95801 26.9696C3.85242 26.5705 3.72042 26.1789 3.56289 25.7974C6.10565 24.013 9.58144 24.4145 11.6505 26.7315C11.4111 27.0666 11.1942 27.4172 11.0012 27.781L10.4653 27.2486C10.021 26.8068 9.35415 27.4791 9.79821 27.9201L10.5632 28.68C10.2818 29.3236 10.05 29.9877 9.87001 30.6666L9.05537 30.5728C8.43378 30.5004 8.32449 31.4415 8.94706 31.5131L9.65484 31.5946C9.51131 32.3179 9.41883 33.0504 9.37809 33.7867L8.64335 34.0084C8.04168 34.19 8.31934 35.0953 8.91676 34.9147L9.35135 34.7836C9.35325 35.4808 9.39392 36.0309 9.43739 36.489C8.47196 36.8912 7.41939 37.0387 6.38059 36.9173ZM10.3475 36.0162C10.309 35.5105 10.2944 35.0032 10.3037 34.4961L11.3136 34.1914C11.9142 34.0101 11.6381 33.1043 11.0402 33.2851L10.353 33.4924C10.4016 32.8917 10.4871 32.2946 10.6089 31.7044L11.4007 31.7956C12.0224 31.8674 12.1316 30.9268 11.509 30.8553L10.8338 30.7775C10.9634 30.3133 11.1183 29.8566 11.2978 29.4094L11.6181 29.7276C12.0567 30.1635 12.7347 29.5025 12.2852 29.0561L11.7129 28.4875C11.8762 28.1585 12.0577 27.8389 12.2565 27.53C14.0766 30.3836 13.2389 34.1723 10.3853 35.9924L10.3475 36.0162ZM12.4119 35.4863C12.9435 34.882 13.3669 34.1906 13.6634 33.4423L15.2222 37.2056C13.8917 36.5825 12.656 35.7646 12.4119 35.4863ZM16.4625 37.7266L14.0728 31.9573C14.2318 30.984 14.1844 29.9882 13.9337 29.0344C13.9743 28.9616 14.0141 28.8886 14.0558 28.8164L17.9422 38.1991C17.4418 38.0651 16.948 37.9074 16.4625 37.7266ZM28.7246 37.3522C25.4874 38.6931 22.2419 39.0646 19.0746 38.459L14.6733 27.8334C15.3151 26.8876 16.0575 26.0141 16.8874 25.228C17.3425 24.7975 16.6915 24.1099 16.2369 24.5405C15.2927 25.4338 14.4555 26.4338 13.7421 27.5204C13.7404 27.5231 13.7395 27.5261 13.7377 27.5289C13.6634 27.6423 13.5906 27.7566 13.5192 27.8719C13.3881 27.5881 13.2383 27.3132 13.0709 27.0491C11.7262 21.3929 12.5225 17.7317 13.3628 14.3337C13.985 11.8172 14.4846 9.79102 12.9754 7.92876C15.0932 6.56448 16.5623 6.10725 17.5612 5.79665C21.6289 11.0974 22.4465 16.7376 22.5168 20.6796C21.4068 21.0975 20.3358 21.6123 19.316 22.218C18.7725 22.5427 19.2701 23.3482 19.8015 23.0306C22.6826 21.3094 27.6304 19.4175 33.3014 20.9758L37.0951 30.1348C35.2432 33.3899 32.4286 35.8179 28.7246 37.3522ZM37.6662 29.0394L34.4798 21.3465C35.0061 21.5338 35.5229 21.7469 36.0283 21.985L38.3098 27.4931C38.1207 28.0187 37.9059 28.5348 37.6662 29.0394Z" fill="black"/>
<path d="M18.0094 24.137C18.2708 24.137 18.4827 23.9251 18.4827 23.6637C18.4827 23.4023 18.2708 23.1904 18.0094 23.1904C17.748 23.1904 17.5361 23.4023 17.5361 23.6637C17.5361 23.9251 17.748 24.137 18.0094 24.137Z" fill="black"/>
<path d="M31.7707 23.2781C30.7376 23.4477 29.6904 23.6752 28.6292 23.9608L28.3189 23.2117C28.0793 22.6337 27.2045 22.995 27.4443 23.5739L27.7121 24.2203C26.6017 24.5507 25.4832 24.9415 24.3564 25.3927L24.098 24.7691C23.8583 24.1899 22.9842 24.5534 23.2236 25.1313L23.4818 25.7546C22.3686 26.2307 21.3013 26.7453 20.28 27.2984L20.0123 26.6523C19.7722 26.0726 18.8987 26.4374 19.1379 27.0145L19.4479 27.7629C18.8254 28.1214 18.2147 28.5 17.6169 28.8983C17.0895 29.25 17.628 30.029 18.1421 29.6857C18.6883 29.3218 19.2457 28.9749 19.8134 28.6456L20.1692 29.5044C20.4084 30.0822 21.2845 29.7233 21.0437 29.1422L20.6441 28.1775C21.6605 27.6236 22.7271 27.1075 23.844 26.6292L24.2549 27.6211C24.4942 28.1989 25.3702 27.8401 25.1294 27.2589L24.7186 26.2671C25.8452 25.8158 26.9644 25.4265 28.0761 25.0992L28.4757 26.0637C28.7152 26.6419 29.5907 26.2822 29.3502 25.7015L28.9945 24.8426C29.9828 24.5812 30.9593 24.371 31.9241 24.212C32.5416 24.1108 32.3896 23.177 31.7707 23.2781Z" fill="black"/>
</svg>
