<svg width="35" height="37" viewBox="0 0 35 37" fill="none" xmlns="http://www.w3.org/2000/svg">
<path fill-rule="evenodd" clip-rule="evenodd" d="M28.1152 11.0826V36.4872H31.565V7.63281L28.1152 11.0826Z" fill="#F59329"/>
<path fill-rule="evenodd" clip-rule="evenodd" d="M22.1963 16.8295V36.4873H25.6439V13.3818L22.1963 16.8295Z" fill="#FB4455"/>
<path fill-rule="evenodd" clip-rule="evenodd" d="M16.2744 20.0464V36.4871H19.7242V19.4316L17.722 21.4338L16.2744 20.0464Z" fill="#F59329"/>
<path fill-rule="evenodd" clip-rule="evenodd" d="M10.3535 18.2852V36.4871H13.8033V17.9342L12.2912 16.4824L10.3535 18.2852Z" fill="#69A7FF"/>
<path fill-rule="evenodd" clip-rule="evenodd" d="M4.43457 23.4442V36.4871H7.88222V20.2354L4.43457 23.4442Z" fill="#FB4455"/>
<path fill-rule="evenodd" clip-rule="evenodd" d="M12.3928 14.0899L0 25.515L1.88584 27.6604L12.3098 17.9655L17.6973 23.1348L32.4723 8.35977L33.9968 9.88421L34.3416 7.00565L34.6863 4.125L31.8078 4.46971L28.9271 4.81449L30.4515 6.33893L17.6537 19.1389L12.3928 14.0899Z" fill="#009933"/>
<path fill-rule="evenodd" clip-rule="evenodd" d="M17.9381 12.6692C19.191 12.6692 20.4157 12.2977 21.4574 11.6016C22.4991 10.9055 23.3111 9.91621 23.7905 8.75871C24.27 7.60122 24.3954 6.32754 24.151 5.09875C23.9065 3.86996 23.3032 2.74124 22.4173 1.85533C21.5314 0.96943 20.4027 0.366125 19.1739 0.121711C17.9451 -0.122702 16.6714 0.00275434 15.5139 0.482215C14.3564 0.961676 13.3671 1.77361 12.6711 2.81533C11.975 3.85706 11.6035 5.0818 11.6035 6.33466C11.6067 8.01372 12.2751 9.62311 13.4624 10.8104C14.6496 11.9977 16.259 12.666 17.9381 12.6692Z" fill="#FFD23B"/>
<path fill-rule="evenodd" clip-rule="evenodd" d="M17.9384 10.9208C18.8456 10.9206 19.7324 10.6513 20.4866 10.1472C21.2408 9.64299 21.8285 8.92649 22.1755 8.08827C22.5225 7.25006 22.6131 6.32777 22.4359 5.43805C22.2588 4.54833 21.8217 3.73112 21.1801 3.08979C20.5384 2.44845 19.721 2.01178 18.8312 1.835C17.9414 1.65822 17.0192 1.74927 16.1811 2.09663C15.3431 2.444 14.6268 3.03207 14.123 3.7865C13.6192 4.54092 13.3504 5.4278 13.3506 6.335C13.353 7.55083 13.8372 8.71613 14.6972 9.57566C15.5571 10.4352 16.7226 10.9189 17.9384 10.9208Z" fill="#F59329"/>
<path d="M18.4513 9.0985V9.54503C18.4513 9.61241 18.4381 9.67913 18.4123 9.74138C18.3865 9.80363 18.3487 9.86019 18.3011 9.90784C18.2534 9.95548 18.1969 9.99328 18.1346 10.0191C18.0724 10.0448 18.0056 10.0581 17.9383 10.0581C17.8709 10.0581 17.8042 10.0448 17.7419 10.0191C17.6797 9.99328 17.6231 9.95548 17.5754 9.90784C17.5278 9.86019 17.49 9.80363 17.4642 9.74138C17.4384 9.67913 17.4252 9.61241 17.4252 9.54503V9.0985C17.2634 9.04718 17.1106 8.97081 16.9724 8.87217C16.6889 8.67237 16.4736 8.39035 16.3556 8.06424C16.3156 7.93762 16.3263 7.80046 16.3854 7.68157C16.4445 7.56267 16.5473 7.47131 16.6724 7.42667C16.7974 7.38203 16.9349 7.3876 17.0559 7.4422C17.1769 7.4968 17.272 7.59618 17.3213 7.71946C17.3676 7.84681 17.4516 7.95698 17.5623 8.03519C17.672 8.11301 17.8035 8.15441 17.938 8.15356C18.0238 8.15353 18.1088 8.13657 18.188 8.10366C18.2673 8.07074 18.3393 8.02252 18.3998 7.96175C18.4604 7.90098 18.5084 7.82885 18.5411 7.7495C18.5737 7.67016 18.5904 7.58514 18.5902 7.49934C18.5901 7.3264 18.5214 7.16057 18.3991 7.03827C18.2768 6.91598 18.111 6.84723 17.938 6.84714C17.6058 6.84746 17.281 6.74921 17.0047 6.56481C16.7283 6.38041 16.5129 6.11817 16.3857 5.81128C16.2585 5.5044 16.2253 5.16667 16.2901 4.84085C16.355 4.51504 16.515 4.2158 16.7501 3.98101C16.9387 3.79164 17.1702 3.65058 17.425 3.56982V3.12148C17.425 2.98541 17.4791 2.8549 17.5753 2.75868C17.6715 2.66246 17.802 2.6084 17.9381 2.6084C18.0742 2.6084 18.2047 2.66246 18.3009 2.75868C18.3971 2.8549 18.4512 2.98541 18.4512 3.12148V3.56953C18.6964 3.64881 18.9201 3.78327 19.1052 3.96257C19.2903 4.14188 19.4318 4.36124 19.5188 4.6038C19.5587 4.73041 19.548 4.86757 19.4889 4.98647C19.4299 5.10536 19.327 5.19672 19.202 5.24136C19.0769 5.286 18.9395 5.28043 18.8184 5.22584C18.6974 5.17124 18.6023 5.07186 18.553 4.94858C18.5077 4.82144 18.4245 4.71127 18.3145 4.63292C18.1883 4.54474 18.0352 4.50371 17.8818 4.517C17.7284 4.53028 17.5846 4.59705 17.4755 4.70562C17.3531 4.82829 17.2844 4.99447 17.2844 5.16772C17.2844 5.34097 17.3531 5.50716 17.4755 5.62982C17.5363 5.6906 17.6085 5.73876 17.688 5.77155C17.7675 5.80434 17.8526 5.82111 17.9386 5.82089C18.3387 5.82119 18.7255 5.96434 19.0294 6.22456C19.3333 6.48477 19.5343 6.84495 19.5962 7.24022C19.6581 7.63548 19.5768 8.03985 19.3669 8.38049C19.1571 8.72113 18.8325 8.97566 18.4517 9.09821L18.4513 9.0985Z" fill="#FFD23B"/>
<path d="M1.60352 2.70449C1.60352 2.56841 1.65757 2.43791 1.75379 2.34169C1.85002 2.24546 1.98052 2.19141 2.1166 2.19141C2.25268 2.19141 2.38319 2.24546 2.47941 2.34169C2.57563 2.43791 2.62969 2.56841 2.62969 2.70449V4.95383C2.62969 5.08991 2.57563 5.22042 2.47941 5.31664C2.38319 5.41286 2.25268 5.46692 2.1166 5.46692C1.98052 5.46692 1.85002 5.41286 1.75379 5.31664C1.65757 5.22042 1.60352 5.08991 1.60352 4.95383V2.70449ZM1.60352 8.91211C1.60352 8.77603 1.65757 8.64552 1.75379 8.5493C1.85002 8.45308 1.98052 8.39902 2.1166 8.39902C2.25268 8.39902 2.38319 8.45308 2.47941 8.5493C2.57563 8.64552 2.62969 8.77603 2.62969 8.91211V11.1614C2.62969 11.2975 2.57563 11.428 2.47941 11.5242C2.38319 11.6204 2.25268 11.6745 2.1166 11.6745C1.98052 11.6745 1.85002 11.6204 1.75379 11.5242C1.65757 11.428 1.60352 11.2975 1.60352 11.1614V8.91211ZM6.68986 5.94452C6.68986 5.80844 6.74392 5.67794 6.84014 5.58172C6.93636 5.48549 7.06687 5.43144 7.20295 5.43144C7.33903 5.43144 7.46953 5.48549 7.56575 5.58172C7.66197 5.67794 7.71603 5.80844 7.71603 5.94452V8.19379C7.71603 8.32987 7.66197 8.46037 7.56575 8.5566C7.46953 8.65282 7.33903 8.70687 7.20295 8.70687C7.06687 8.70687 6.93636 8.65282 6.84014 8.5566C6.74392 8.46037 6.68986 8.32987 6.68986 8.19379V5.94452ZM6.68986 12.1521C6.68986 12.0161 6.74392 11.8856 6.84014 11.7893C6.93636 11.6931 7.06687 11.6391 7.20295 11.6391C7.33903 11.6391 7.46953 11.6931 7.56575 11.7893C7.66197 11.8856 7.71603 12.0161 7.71603 12.1521V14.4014C7.71603 14.5375 7.66197 14.668 7.56575 14.7642C7.46953 14.8604 7.33903 14.9145 7.20295 14.9145C7.06687 14.9145 6.93636 14.8604 6.84014 14.7642C6.74392 14.668 6.68986 14.5375 6.68986 14.4014V12.1521Z" fill="#69A7FF"/>
<path d="M1.00098 4.95312H3.23362V8.91169H1.00098V4.95312ZM6.08522 8.19308H8.31787V12.1516H6.08522V8.19308Z" fill="#69A7FF"/>
<path d="M1.81289 36.9998C1.67681 36.9998 1.54631 36.9457 1.45008 36.8495C1.35386 36.7533 1.2998 36.6228 1.2998 36.4867C1.2998 36.3506 1.35386 36.2201 1.45008 36.1239C1.54631 36.0277 1.67681 35.9736 1.81289 35.9736H34.1855C34.3216 35.9736 34.4521 36.0277 34.5483 36.1239C34.6445 36.2201 34.6986 36.3506 34.6986 36.4867C34.6986 36.6228 34.6445 36.7533 34.5483 36.8495C34.4521 36.9457 34.3216 36.9998 34.1855 36.9998H1.81289Z" fill="#4D6C8F"/>
<path fill-rule="evenodd" clip-rule="evenodd" d="M12.6086 6.33462C12.609 4.74161 13.2093 3.20717 14.29 2.03678C15.3707 0.866391 16.8525 0.145904 18.4404 0.0187529C18.2732 0.00623623 18.1057 -7.09253e-06 17.938 3.6136e-05C17.1044 -0.00277965 16.2783 0.15899 15.5073 0.47607C14.7363 0.793149 14.0354 1.2593 13.445 1.8478C12.8545 2.4363 12.386 3.13556 12.0663 3.90551C11.7466 4.67545 11.582 5.50092 11.582 6.33459C11.582 7.16826 11.7466 7.99373 12.0663 8.76367C12.386 9.53361 12.8545 10.2329 13.445 10.8214C14.0354 11.4099 14.7363 11.876 15.5073 12.1931C16.2783 12.5102 17.1044 12.672 17.938 12.6691C18.1062 12.6691 18.2745 12.6629 18.4406 12.6504C16.8527 12.5233 15.3708 11.8028 14.2901 10.6323C13.2094 9.46193 12.6092 7.92745 12.6088 6.33441L12.6086 6.33462Z" fill="#E8BD31"/>
<path fill-rule="evenodd" clip-rule="evenodd" d="M17.5977 1.7595C18.7523 1.84517 19.8318 2.3643 20.6196 3.21273C21.4074 4.06116 21.8452 5.17612 21.8452 6.33391C21.8452 7.49171 21.4074 8.60667 20.6196 9.4551C19.8318 10.3035 18.7523 10.8227 17.5977 10.9083C17.7098 10.9166 17.8241 10.9208 17.9383 10.9208C19.1548 10.9208 20.3215 10.4375 21.1817 9.5773C22.0419 8.7171 22.5252 7.55042 22.5252 6.33391C22.5252 5.11741 22.0419 3.95073 21.1817 3.09053C20.3215 2.23033 19.1548 1.74707 17.9383 1.74707C17.8246 1.74705 17.711 1.75115 17.5977 1.7595Z" fill="#E68720"/>
<path fill-rule="evenodd" clip-rule="evenodd" d="M0.762258 26.2772L13.1551 14.8522L18.4159 19.9011L31.2138 7.10112L30.4515 6.33893L17.6537 19.1389L12.3928 14.0899L0 25.515L1.88584 27.6604L1.93773 27.6126L0.762258 26.2772ZM28.9271 4.81449L29.6893 5.57674L32.57 5.23197L34.5825 4.99103L34.6863 4.125L31.8078 4.46971L28.9271 4.81449Z" fill="#00852C"/>
<path fill-rule="evenodd" clip-rule="evenodd" d="M5.53322 35.974V24.2686L4.43457 25.2904V35.974H5.53322Z" fill="#E82E41"/>
<path fill-rule="evenodd" clip-rule="evenodd" d="M10.3535 19.7845V35.974H11.4522V18.7627L10.3535 19.7845Z" fill="#4C8FED"/>
<path fill-rule="evenodd" clip-rule="evenodd" d="M16.2744 21.7695V35.9735H17.3731V22.8246L16.2744 21.7695Z" fill="#E68720"/>
<path fill-rule="evenodd" clip-rule="evenodd" d="M22.1963 18.6358V35.9738H23.2949V17.5371L22.1963 18.6358Z" fill="#E82E41"/>
<path fill-rule="evenodd" clip-rule="evenodd" d="M28.1152 12.7168V35.974H29.2139V11.6182L28.1152 12.7168Z" fill="#E68720"/>
</svg>
