<svg width="40" height="40" viewBox="0 0 40 40" fill="none" xmlns="http://www.w3.org/2000/svg">
<path d="M28.5007 0.883789H27.4968L25.4265 2.11099L23.7301 4.22038L22.2666 6.48603V9.45481L24.7623 13.283L26.4093 14.7153L27.6334 15.0408L28.5006 15.1876C31.597 14.2836 33.8592 11.424 33.8592 8.03573C33.8593 4.64734 31.597 1.78778 28.5007 0.883789Z" fill="#00C2FB"/>
<path d="M27.7691 25.8123H21.0704C20.3171 25.8123 19.7703 25.0955 19.9696 24.369L20.8842 21.0331C21.4874 19.1685 20.7978 18.0395 19.9811 17.3817C19.2281 16.7751 18.1038 17.0647 17.7418 17.9612L16.5987 20.7913C16.3324 21.4507 15.8478 21.9939 15.2348 22.3545C13.733 23.2379 12.5427 24.6793 12.0108 25.391C11.8258 25.6391 11.5938 25.8484 11.3279 26.0068L10.2178 27.6504L11.8779 33.9792L15.6019 38.8503L16.7252 39.4145H26.8431C27.7672 39.4145 28.5562 38.696 28.5869 37.7724C28.6191 36.8068 27.8459 36.014 26.8877 36.014L29.0039 34.4515C29.006 34.4252 29.0077 34.3986 29.0086 34.372C29.0407 33.4064 28.2676 32.6134 27.3092 32.6135H27.435L29.4255 31.051C29.4276 31.0247 29.4293 30.9982 29.4301 30.9714C29.4624 30.0059 28.6893 29.2129 27.7308 29.2129L29.4637 27.6504C29.4662 27.6197 29.468 27.5888 29.4687 27.5576C29.4935 26.598 28.723 25.8123 27.7691 25.8123Z" fill="#FFCEBE"/>
<path d="M11.3276 26.0068C11.2488 26.0539 11.1673 26.0962 11.0834 26.1334C10.2719 26.4907 9.39497 26.6753 8.5083 26.6753H7.41751L6.71484 27.229V36.6041L7.41751 37.3468H9.13659C9.51565 37.3468 9.87894 37.4881 10.1662 37.7353C11.5826 38.9543 13.2069 39.4147 15.019 39.4145H17.0403C11.8423 35.6403 11.3239 28.678 11.3276 26.0068Z" fill="#FFB1A0"/>
<path d="M23.1418 8.03586C23.1418 4.64754 25.404 1.7879 28.5003 0.883989C27.8209 0.685805 27.1167 0.585447 26.4089 0.585939C22.2944 0.585939 18.959 3.92144 18.959 8.03593C18.959 12.1504 22.2944 15.4859 26.4089 15.4859C27.1167 15.4863 27.8209 15.386 28.5003 15.1878C25.404 14.2837 23.1418 11.4242 23.1418 8.03586Z" fill="#00ABF2"/>
<path d="M0.777502 33.3422L1.44157 33.6645H6.59787L7.16428 33.3618L7.41772 32.8939V26.4511C7.41772 25.8832 6.95733 25.4229 6.38951 25.4229H1.61415C1.04625 25.4229 0.585938 25.8832 0.585938 26.4511V32.8071L0.777502 33.3422Z" fill="#C464B0"/>
<path d="M6.38945 33.5243H1.61414C1.04625 33.5243 0.585938 33.0639 0.585938 32.4961V37.5702C0.585938 38.138 1.04633 38.5984 1.61414 38.5984H6.38937C6.95719 38.5984 7.41758 38.138 7.41758 37.5702V32.4961C7.41766 33.064 6.95727 33.5243 6.38945 33.5243Z" fill="#B551A1"/>
<path d="M27.7308 29.2128H23.7396M27.3092 32.6133H23.7396M26.8876 36.0138H23.7396M23.5716 7.76192L26.009 10.1994L29.5724 6.63605M16.6587 11.7512L14.7021 12.8808M15.6632 8.03606H13.404M16.6587 4.32103L14.7021 3.19141M36.1594 11.7512L38.1159 12.8808M37.1549 8.03606H39.4141M36.1594 4.32103L38.1159 3.19141M7.41772 37.5706V26.451C7.41772 25.8831 6.95733 25.4228 6.38951 25.4228H1.61415C1.04625 25.4228 0.585938 25.8832 0.585938 26.451V37.5706C0.585938 38.1385 1.04625 38.5988 1.61415 38.5988H6.38943C6.95733 38.5989 7.41772 38.1385 7.41772 37.5706Z" stroke="black" stroke-width="1.17189" stroke-miterlimit="10" stroke-linecap="round" stroke-linejoin="round"/>
<path d="M19.2332 39.4141H26.8433C27.7674 39.4141 28.5564 38.6955 28.5872 37.7719C28.6193 36.8064 27.8461 36.0136 26.8879 36.0136H27.2652C28.1893 36.0136 28.9781 35.295 29.0088 34.3715C29.0409 33.4059 28.2678 32.613 27.3094 32.613L27.6868 32.613C28.6108 32.6128 29.3995 31.8944 29.4304 30.971C29.4626 30.0054 28.6895 29.2125 27.7311 29.2125C28.6591 29.2125 29.4451 28.4849 29.469 27.5571C29.4937 26.5976 28.7232 25.812 27.7693 25.812H21.0704C20.3172 25.812 19.7704 25.0952 19.9697 24.3687L20.8843 21.0328C21.4875 19.1682 20.7979 18.0392 19.9811 17.3813C19.2282 16.7748 18.1039 17.0643 17.7417 17.9608L16.5987 20.7909C16.3324 21.4503 15.8477 21.9936 15.2348 22.3541C13.733 23.2375 12.5427 24.6789 12.0108 25.3906C11.77 25.713 11.4519 25.9708 11.0836 26.133C10.2722 26.4903 9.3952 26.6749 8.50853 26.6749H7.41797V37.3464H9.13705C9.51611 37.3464 9.87948 37.4877 10.1667 37.7349C11.5831 38.9539 13.2074 39.4143 15.0194 39.4141H16.4988M33.7336 6.66873C33.0915 3.20729 30.0567 0.585938 26.4093 0.585938C22.2948 0.585938 18.9594 3.92144 18.9594 8.03593C18.9594 12.1504 22.2948 15.4858 26.4093 15.4858C30.0567 15.4858 33.0915 12.8645 33.7336 9.40313" stroke="black" stroke-width="1.17189" stroke-miterlimit="10" stroke-linecap="round" stroke-linejoin="round"/>
</svg>
