<svg width="38" height="40" viewBox="0 0 38 40" fill="none" xmlns="http://www.w3.org/2000/svg">
<path d="M6.22227 24.4463C6.22227 24.4463 9.74344 14.9318 9.71328 14.9217C9.68313 14.9117 9.37172 13.6436 9.37172 13.6436C9.24803 13.6558 9.12317 13.6405 9.00614 13.5986C8.8891 13.5568 8.78281 13.4895 8.69492 13.4016L7.17937 11.886C6.85086 11.5575 6.3182 11.5575 5.98969 11.886L3.17477 14.701C2.84625 15.0295 2.84625 15.5621 3.17477 15.8906L4.69031 17.4062C4.8193 17.5354 4.90281 17.703 4.92825 17.8837C4.95368 18.0645 4.91967 18.2486 4.83133 18.4084C4.39289 19.2033 4.04409 20.0445 3.79133 20.9165C3.74073 21.0917 3.63459 21.2456 3.48889 21.3552C3.34319 21.4648 3.16583 21.5241 2.98352 21.5242H0.84125C0.376641 21.5242 0 21.9008 0 22.3654V26.3463C0 26.8109 0.376641 27.1875 0.84125 27.1875H2.98344C3.35805 27.1875 3.68703 27.4353 3.79125 27.7952C4.04395 28.6671 4.39276 29.5083 4.83125 30.3032C4.91959 30.463 4.9536 30.6471 4.92817 30.8279C4.90273 31.0086 4.81923 31.1762 4.69023 31.3054L3.17469 32.821C2.84617 33.1495 2.84617 33.6821 3.17469 34.0106L5.98961 36.8256C6.31812 37.1541 6.85078 37.1541 7.1793 36.8256L8.69484 35.31C8.78114 35.2238 8.88519 35.1574 8.99975 35.1155C9.11431 35.0735 9.23663 35.0571 9.3582 35.0672L9.71336 33.0004L6.22227 24.4463Z" fill="#4D66D2"/>
<path d="M30.4477 21.5238H27.1587C27.106 21.5237 27.0538 21.5341 27.0051 21.5543C26.9564 21.5744 26.9122 21.604 26.8749 21.6413C26.8376 21.6785 26.8081 21.7228 26.7879 21.7715C26.7677 21.8202 26.7573 21.8724 26.7573 21.9251V23.954C26.7573 24.1756 26.5777 24.3554 26.356 24.3554H24.1653C23.9493 24.3554 23.7745 24.5265 23.7643 24.7423C23.5605 29.0902 19.9411 32.5448 15.5288 32.4834C11.1505 32.4225 7.57734 28.8494 7.51648 24.4712C7.45328 19.9287 11.1166 16.2266 15.6445 16.2266C16.4488 16.2266 17.2255 16.3436 17.9591 16.5612C18.2171 16.6377 18.4763 16.4466 18.4763 16.1774V9.55219C18.4763 9.08758 18.0996 8.71094 17.635 8.71094H13.6541C13.1895 8.71094 12.8129 9.08758 12.8129 9.55219V11.6944C12.8129 12.069 12.5651 12.398 12.2053 12.5022C11.3334 12.755 10.4922 13.1038 9.69719 13.5422C9.59672 13.5976 9.486 13.632 9.3718 13.6432C6.93828 16.5471 5.4707 20.2865 5.4707 24.3627C5.4707 28.4317 6.93281 32.1651 9.35836 35.0667C9.47461 35.0763 9.59016 35.1095 9.69719 35.1686C10.4921 35.607 11.3333 35.9558 12.2053 36.2085C12.3805 36.2591 12.5344 36.3653 12.644 36.511C12.7536 36.6567 12.8129 36.834 12.8129 37.0163V39.1585C12.8129 39.6231 13.1895 39.9998 13.6541 39.9998H17.635C18.0996 39.9998 18.4763 39.6231 18.4763 39.1585V37.0163C18.4763 36.6417 18.7241 36.3127 19.0838 36.2085C19.9557 35.9557 20.7969 35.607 21.5919 35.1686C21.7516 35.0802 21.9357 35.0462 22.1165 35.0716C22.2973 35.097 22.4649 35.1805 22.5941 35.3095L24.1096 36.8251C24.4381 37.1536 24.9708 37.1536 25.2993 36.8251L28.1142 34.0102C28.4427 33.6816 28.4427 33.149 28.1142 32.8204L26.5987 31.3048C26.4697 31.1757 26.3862 31.008 26.3608 30.8273C26.3353 30.6465 26.3694 30.4623 26.4577 30.3026C26.8962 29.5076 27.245 28.6665 27.4977 27.7945C27.5483 27.6194 27.6544 27.4654 27.8001 27.3558C27.9458 27.2462 28.1232 27.1869 28.3055 27.1869H30.4476C30.9122 27.1869 31.2888 26.8102 31.2888 26.3456V22.3648C31.2889 21.9004 30.9123 21.5238 30.4477 21.5238Z" fill="#6B7ED9"/>
<path d="M24.1643 18.1299H21.1042C21.007 18.1299 20.9139 18.1685 20.8452 18.2372C20.7765 18.3059 20.7379 18.399 20.7379 18.4962V21.5563C20.7379 21.6534 20.7765 21.7465 20.8452 21.8152C20.9139 21.8839 21.007 21.9225 21.1042 21.9225H24.1643C24.2614 21.9225 24.3546 21.8839 24.4232 21.8152C24.4919 21.7465 24.5305 21.6534 24.5305 21.5563V18.4962C24.5305 18.399 24.4919 18.3059 24.4232 18.2372C24.3546 18.1685 24.2614 18.1299 24.1643 18.1299ZM28.9175 8.33677e-09H25.8575C25.7603 8.33677e-09 25.6672 0.0385869 25.5985 0.107272C25.5298 0.175957 25.4912 0.269114 25.4912 0.36625V3.42633C25.4912 3.52346 25.5298 3.61662 25.5985 3.68531C25.6672 3.75399 25.7603 3.79258 25.8575 3.79258H28.9175C29.0147 3.79258 29.1078 3.75399 29.1765 3.68531C29.2452 3.61662 29.2838 3.52346 29.2838 3.42633V0.36625C29.2838 0.31815 29.2743 0.27052 29.2559 0.22608C29.2375 0.18164 29.2106 0.141261 29.1765 0.107249C29.1425 0.0732378 29.1021 0.0462604 29.0577 0.0278582C29.0133 0.00945608 28.9656 -1.02551e-05 28.9175 8.33677e-09ZM35.402 14.4983H32.3419C32.2448 14.4983 32.1516 14.5369 32.0829 14.6056C32.0142 14.6742 31.9757 14.7674 31.9757 14.8645V17.9246C31.9757 18.0217 32.0142 18.1149 32.0829 18.1836C32.1516 18.2523 32.2448 18.2909 32.3419 18.2909H35.402C35.4991 18.2909 35.5923 18.2523 35.661 18.1836C35.7297 18.1149 35.7682 18.0217 35.7682 17.9246V14.8645C35.7682 14.7674 35.7297 14.6742 35.661 14.6056C35.5923 14.5369 35.4991 14.4983 35.402 14.4983ZM37.1767 4.86102H31.8503C31.7531 4.86102 31.66 4.8996 31.5913 4.96829C31.5226 5.03697 31.484 5.13013 31.484 5.22727V10.5537C31.484 10.6508 31.5226 10.744 31.5913 10.8126C31.66 10.8813 31.7531 10.9199 31.8503 10.9199H37.1767C37.2738 10.9199 37.367 10.8813 37.4357 10.8126C37.5043 10.744 37.5429 10.6508 37.5429 10.5537V5.22734C37.5429 5.17924 37.5335 5.13161 37.5151 5.08716C37.4967 5.04272 37.4697 5.00233 37.4357 4.96832C37.4017 4.9343 37.3613 4.90731 37.3169 4.8889C37.2724 4.87049 37.2248 4.86102 37.1767 4.86102ZM28.488 8.48047H22.5176C22.4205 8.48047 22.3273 8.51906 22.2586 8.58774C22.19 8.65643 22.1514 8.74958 22.1514 8.84672V14.8171C22.1514 14.9142 22.19 15.0074 22.2586 15.0761C22.3273 15.1448 22.4205 15.1834 22.5176 15.1834H28.488C28.5851 15.1834 28.6783 15.1448 28.747 15.0761C28.8157 15.0074 28.8543 14.9142 28.8543 14.8171V8.84672C28.8543 8.74958 28.8157 8.65643 28.747 8.58774C28.6783 8.51906 28.5851 8.48047 28.488 8.48047ZM15.644 21.0716C13.829 21.0716 12.3525 22.5482 12.3525 24.363C12.3525 26.178 13.8291 27.6545 15.644 27.6545C17.4589 27.6545 18.9354 26.178 18.9354 24.363C18.9355 22.5482 17.4589 21.0716 15.644 21.0716Z" fill="#00D2FC"/>
</svg>
