<svg width="35" height="35" viewBox="0 0 35 35" fill="none" xmlns="http://www.w3.org/2000/svg">
<path d="M31.2502 0H20.5127C18.4377 0 16.7627 1.6875 16.7627 3.75V14.4875C16.7627 16.5625 18.4377 18.2375 20.5127 18.2375H31.2502C33.3127 18.2375 35.0002 16.5625 35.0002 14.4875V3.75C35.0002 1.6875 33.3127 0 31.2502 0Z" fill="#F97316"/>
<path d="M11.0375 3.44995H3.75C1.6875 3.44995 0 5.13745 0 7.19995V14.4875C0 16.5625 1.6875 18.2375 3.75 18.2375H11.0375C13.1125 18.2375 14.7875 16.5625 14.7875 14.4875V7.19995C14.7875 5.13745 13.1125 3.44995 11.0375 3.44995ZM11.0375 20.2125H3.75C1.6875 20.2125 0 21.8875 0 23.9625V31.25C0 33.3125 1.6875 35 3.75 35H11.0375C13.1125 35 14.7875 33.3125 14.7875 31.25V23.9625C14.7875 21.8875 13.1125 20.2125 11.0375 20.2125ZM27.8 20.2125H20.5125C18.4375 20.2125 16.7625 21.8875 16.7625 23.9625V31.25C16.7625 33.3125 18.4375 35 20.5125 35H27.8C29.8625 35 31.55 33.3125 31.55 31.25V23.9625C31.55 21.8875 29.8625 20.2125 27.8 20.2125Z" fill="#0A1012"/>
</svg>
