<svg width="38" height="27" viewBox="0 0 38 27" fill="none" xmlns="http://www.w3.org/2000/svg">
<path d="M36.7273 4.10842C36.2952 2.50189 35.0285 1.23551 33.4222 0.80291C30.4877 -5.58793e-08 18.7495 0 18.7495 0C18.7495 0 7.0118 0 4.0773 0.7725C2.50189 1.20463 1.20439 2.50219 0.772265 4.10842C0 7.04267 0 13.128 0 13.128C0 13.128 0 19.244 0.772265 22.1476C1.2048 23.7538 2.47101 25.0203 4.07754 25.4528C7.04267 26.256 18.75 26.256 18.75 26.256C18.75 26.256 30.4877 26.256 33.4222 25.4835C35.0287 25.0511 36.2952 23.7847 36.7277 22.1784C37.4998 19.2439 37.4998 13.1589 37.4998 13.1589C37.4998 13.1589 37.5306 7.04261 36.7273 4.10842ZM15.0123 18.7498V7.50609L24.7732 13.1279L15.0123 18.7498Z" fill="#FF0202"/>
</svg>
